<svg width="56" height="56" viewBox="0 0 56 56" fill="none" xmlns="http://www.w3.org/2000/svg">
<g clip-path="url(#clip0_13_2275)">
<path d="M56 51.625C56 54.0422 54.0422 56 51.625 56H4.375C1.95781 56 0 54.0422 0 51.625V4.375C0 1.95781 1.95781 0 4.375 0H51.625C54.0422 0 56 1.95781 56 4.375V51.625Z" fill="#FDCA2E"/>
<path d="M21.7547 29.3344C22.2469 28.339 22.6625 27.475 22.8484 27.1031C23.7344 25.3203 22.8156 22.8265 19.7531 22.8265H9.6906L7.95154 26.3594H17.3359C18.0687 26.3594 18.3312 26.5125 18.1125 26.9719C17.8937 27.4203 17.4344 28.3609 17.3031 28.6234C17.15 28.9406 17.0734 29.3344 17.5656 29.3344H21.7547Z" fill="#D0131D"/>
<path d="M15.4875 29.6734C14.9953 29.6734 14.9516 29.3453 15.0719 29.0937C15.1703 28.8859 15.8266 27.5515 15.9578 27.3C16.1109 26.9828 16.0672 26.6547 15.3125 26.6547H11.0578L7.85313 33.1734H16.2969C18.6047 33.1734 20.2781 32.3422 21.4266 30.0125C21.4812 29.9031 21.5359 29.7828 21.5906 29.6734H15.4875ZM22.5641 29.6734L20.8469 33.1734H26.0859L27.8141 29.6734H22.5641ZM29.9359 29.6734L28.2188 33.1734H33.4578L35.1859 29.6734H29.9359ZM35.35 29.3344L38.5438 22.8265H33.3047L31.5766 26.3594H29.4328L31.1719 22.8265H25.9219L22.7391 29.3344H35.35ZM39.8781 22.8265H45.1281L41.9234 29.3344H36.6844L39.8781 22.8265ZM36.5203 29.6734H48.2563L46.5391 33.1734H37.8875C36.0828 33.1734 35.5031 31.7953 36.1484 30.4609C36.2031 30.3078 36.5203 29.6734 36.5203 29.6734ZM8.75 29.6734L8.24687 30.7015H0V29.6734H8.75ZM8.14844 30.8984L7.63438 31.9375H0V30.8984H8.14844ZM7.53594 32.1453L7.02187 33.1734H0V32.1453H7.53594ZM56 30.7015H48.475L48.9781 29.6734H56V30.7015ZM56 31.9375H47.8625L48.3656 30.8984H56V31.9375ZM56 33.1734H47.25L47.7641 32.1453H56V33.1734Z" fill="#D0131D"/>
</g>
<defs>
<clipPath id="clip0_13_2275">
<rect width="56" height="56" fill="white"/>
</clipPath>
</defs>
</svg>
