<svg width="66" height="66" viewBox="0 0 66 66" fill="none" xmlns="http://www.w3.org/2000/svg">
<path d="M47.384 41.5028H56.9229V34.1457H47.384V41.5028Z" fill="#EBEBEB"/>
<path d="M48.0659 40.8608H49.2153V39.5616H48.0659V40.8608Z" fill="white"/>
<path d="M54.0128 34.1647H52.9293V35.7345H54.0128V34.1647Z" fill="#FAFAFA"/>
<path d="M54.0128 39.9111H52.9293V41.481H54.0128V39.9111Z" fill="#FAFAFA"/>
<path d="M49.765 41.5535C49.7482 41.5535 49.7346 39.9353 49.7346 37.9397C49.7346 35.9435 49.7482 34.3257 49.765 34.3257C49.7817 34.3257 49.7953 35.9435 49.7953 37.9397C49.7953 39.9353 49.7817 41.5535 49.765 41.5535Z" fill="#E0E0E0"/>
<path d="M43.4935 54.1726H59.9518V41.4786H43.4935V54.1726Z" fill="#EBEBEB"/>
<path d="M44.67 53.0647H46.6532V50.8228H44.67V53.0647Z" fill="white"/>
<path d="M54.9309 41.5112H53.0614V44.2199H54.9309V41.5112Z" fill="#FAFAFA"/>
<path d="M54.9309 51.4263H53.0614V54.1349H54.9309V51.4263Z" fill="#FAFAFA"/>
<path d="M47.6015 54.2599C47.5724 54.2599 47.549 51.468 47.549 48.0248C47.549 44.5803 47.5724 41.7889 47.6015 41.7889C47.6305 41.7889 47.6539 44.5802 47.6539 48.0248C47.6539 51.468 47.6304 54.2599 47.6015 54.2599Z" fill="#E0E0E0"/>
<path d="M59.429 15.0758L60.3106 16.8622L62.282 17.1487L60.8555 18.5392L61.1922 20.5027L59.429 19.5757L57.6657 20.5027L58.0024 18.5392L56.5759 17.1487L58.5473 16.8622L59.429 15.0758Z" fill="#EBEBEB"/>
<path d="M6.93127 38.1436L7.48699 39.2694L8.72938 39.45L7.83032 40.3263L8.04258 41.5637L6.93127 40.9794L5.8201 41.5637L6.03222 40.3263L5.1333 39.45L6.37568 39.2694L6.93127 38.1436Z" fill="#EBEBEB"/>
<path d="M7.62066 28.3352L8.85446 30.8353L11.6134 31.2362L9.61702 33.1821L10.0883 35.9298L7.62066 34.6325L5.15305 35.9298L5.62442 33.1821L3.62805 31.2362L6.38685 30.8353L7.62066 28.3352Z" fill="#EBEBEB"/>
<path d="M58.6439 23.1427L59.1757 24.2202L60.3647 24.393L59.5044 25.2317L59.7075 26.416L58.6439 25.8569L57.5803 26.416L57.7835 25.2317L56.923 24.393L58.112 24.2202L58.6439 23.1427Z" fill="#EBEBEB"/>
<path d="M41.1905 5.68494L41.7222 6.76245L42.9114 6.93524L42.0509 7.7741L42.254 8.9584L41.1905 8.39925L40.1268 8.9584L40.33 7.7741L39.4696 6.93524L40.6587 6.76245L41.1905 5.68494Z" fill="#EBEBEB"/>
<path d="M53.3576 17.214L53.7056 17.9193L54.4839 18.0324L53.9207 18.5814L54.0536 19.3565L53.3576 18.9904L52.6614 19.3565L52.7943 18.5814L52.2312 18.0324L53.0095 17.9193L53.3576 17.214Z" fill="#EBEBEB"/>
<path d="M21.2421 52.8142L21.92 54.1878L23.4359 54.4081L22.339 55.4773L22.598 56.9871L21.2421 56.2743L19.8862 56.9871L20.1451 55.4773L19.0482 54.4081L20.5641 54.1878L21.2421 52.8142Z" fill="#EBEBEB"/>
<path d="M23.0316 51.4489L23.3117 52.0165L23.938 52.1074L23.4848 52.5492L23.5918 53.173L23.0316 52.8784L22.4713 53.173L22.5784 52.5492L22.1252 52.1074L22.7515 52.0165L23.0316 51.4489Z" fill="#EBEBEB"/>
<path d="M48.0659 46.1895L48.662 47.3973L49.9948 47.5909L49.0304 48.531L49.2581 49.8585L48.0659 49.2317L46.8738 49.8585L47.1015 48.531L46.1371 47.5909L47.4699 47.3973L48.0659 46.1895Z" fill="#FF725E"/>
<path d="M50.9096 45.119L51.1905 45.6881L51.8185 45.7794L51.364 46.2224L51.4714 46.8478L50.9096 46.5525L50.3479 46.8478L50.4551 46.2224L50.0006 45.7794L50.6287 45.6881L50.9096 45.119Z" fill="#FF725E"/>
<path d="M47.1823 13.6831L47.6484 12.2233C47.2855 11.4956 47.1132 10.662 47.1918 9.79319C47.4178 7.2943 49.6296 5.45211 52.1318 5.67849C54.6342 5.90473 56.4795 8.11389 56.2535 10.6128C56.0275 13.1115 53.8157 14.9537 51.3134 14.7275C50.2685 14.633 49.408 14.2547 48.6952 13.592L47.1823 13.6831Z" fill="#FAFAFA"/>
<path d="M47.1823 13.6831C47.1823 13.6831 47.2174 13.6795 47.283 13.6746C47.3508 13.6697 47.4476 13.6627 47.5739 13.6538C47.8303 13.6362 48.2059 13.6105 48.6942 13.5771L48.7006 13.5767L48.7053 13.581C49.1352 13.978 49.7917 14.4184 50.6795 14.6061C50.8997 14.6534 51.1319 14.6902 51.3739 14.7053C51.4951 14.7099 51.6183 14.7145 51.7435 14.7191C51.8687 14.7182 51.9957 14.7051 52.1248 14.6985C52.6389 14.6508 53.1783 14.5124 53.6958 14.2595C54.213 14.0078 54.7073 13.6422 55.1206 13.1704C55.5329 12.6994 55.8679 12.1234 56.0545 11.478C56.2401 10.8337 56.2873 10.1274 56.1667 9.43069C56.1459 9.2546 56.0903 9.08498 56.0461 8.9118C56.0268 8.82428 55.9897 8.74218 55.9595 8.65757C55.9273 8.57375 55.8977 8.48848 55.863 8.40532C55.7078 8.08007 55.5371 7.75442 55.3049 7.46785C55.2 7.31658 55.0698 7.18722 54.9476 7.05245C54.889 6.98249 54.8158 6.92744 54.75 6.86527C54.6817 6.80587 54.6175 6.74185 54.5463 6.68668L54.3293 6.52656L54.2211 6.44696L54.1061 6.37819L53.8771 6.24118C53.8 6.19735 53.7176 6.16396 53.6385 6.12488C53.0001 5.82538 52.3073 5.67991 51.6376 5.69443C50.9674 5.70763 50.3236 5.87105 49.7605 6.14323C49.1962 6.41489 48.7126 6.79307 48.3321 7.22352C47.9507 7.6541 47.6729 8.13604 47.4905 8.6185C47.4687 8.67935 47.4471 8.73954 47.4257 8.79947C47.4029 8.859 47.3829 8.91866 47.37 8.98018C47.3398 9.10162 47.3101 9.22121 47.2808 9.33882C47.2484 9.5788 47.2043 9.8094 47.1997 10.0351C47.1633 10.9398 47.4018 11.6901 47.6617 12.2166L47.6645 12.2221L47.6626 12.2278C47.5083 12.6981 47.3895 13.0598 47.3085 13.3066C47.2681 13.4282 47.2372 13.5212 47.2156 13.5864C47.1944 13.6497 47.1823 13.6831 47.1823 13.6831C47.1823 13.6831 47.1903 13.653 47.2091 13.5909C47.2289 13.5261 47.2573 13.4337 47.2944 13.3131C47.3721 13.0627 47.486 12.6957 47.6341 12.2187L47.635 12.2299C47.3683 11.7027 47.1222 10.9474 47.1542 10.0334C47.1576 9.80544 47.2009 9.5722 47.2327 9.32945C47.2618 9.21052 47.2912 9.08947 47.3213 8.96645C47.3341 8.90428 47.354 8.84369 47.3769 8.7835C47.3984 8.72291 47.42 8.66179 47.4418 8.60015C47.6244 8.11135 47.9038 7.62242 48.289 7.18511C48.673 6.74806 49.1622 6.36354 49.7336 6.08687C50.304 5.8098 50.9567 5.64269 51.6366 5.62856C52.316 5.61299 53.0192 5.75964 53.6676 6.06337C53.7478 6.10284 53.8314 6.13676 53.9097 6.18125L54.1424 6.32011L54.2592 6.38994L54.3692 6.47059L54.5896 6.63308C54.6618 6.68905 54.7271 6.754 54.7964 6.81432C54.8632 6.87742 54.9374 6.93325 54.9971 7.00427C55.1212 7.14102 55.2532 7.27249 55.3598 7.42601C55.5953 7.71707 55.7689 8.04746 55.9261 8.37786C55.9613 8.46234 55.9913 8.54893 56.024 8.63407C56.0548 8.71987 56.0923 8.8033 56.1118 8.89213C56.1567 9.06782 56.2128 9.24022 56.2341 9.41894C56.3559 10.1263 56.3073 10.843 56.118 11.4965C55.9277 12.1511 55.5869 12.7349 55.1679 13.2116C54.7479 13.689 54.2459 14.0582 53.7214 14.3117C53.1965 14.5662 52.65 14.7045 52.1296 14.7507C51.9991 14.7569 51.8705 14.7696 51.7441 14.7698C51.6175 14.7645 51.493 14.7593 51.3705 14.7541C51.1262 14.7378 50.8921 14.6995 50.67 14.6506C49.7742 14.4565 49.114 14.0065 48.6854 13.6028L48.6963 13.6068C48.203 13.6325 47.8235 13.6523 47.5646 13.6659C47.44 13.672 47.3444 13.6766 47.2775 13.6799C47.213 13.6827 47.1823 13.6831 47.1823 13.6831Z" fill="#263238"/>
<path d="M49.1443 10.0315L49.893 9.38322L51.154 10.6773L53.981 8.323L54.5794 9.06801L50.9574 12.0173L49.1443 10.0315Z" fill="#FF725E"/>
<path d="M39.3506 46.1333L14.038 51.7744C13.4235 51.9113 12.8145 51.5243 12.6776 50.9098L4.4627 14.0491C4.32582 13.4346 4.71284 12.8256 5.3273 12.6887L30.64 7.04754C31.2545 6.91066 31.8635 7.29768 32.0004 7.91214L40.2152 44.773C40.3522 45.3873 39.965 45.9964 39.3506 46.1333Z" fill="#E0E0E0"/>
<path d="M39.3506 46.1332C39.3506 46.1332 39.3787 46.1245 39.4346 46.1086C39.4901 46.0921 39.5715 46.0605 39.6718 46.0052C39.77 45.9469 39.8856 45.8595 39.9916 45.7267C40.0956 45.594 40.1896 45.4132 40.223 45.1922C40.242 45.0823 40.2398 44.9625 40.2202 44.8398C40.1995 44.717 40.1657 44.5888 40.1369 44.4538C40.0764 44.184 40.0102 43.8888 39.9384 43.5691C39.7952 42.9296 39.6299 42.1918 39.4438 41.3614C38.7012 38.0385 37.6267 33.2306 36.2989 27.29C35.6359 24.3193 34.9095 21.0654 34.1299 17.5723C33.7402 15.8256 33.3371 14.0192 32.922 12.1585C32.7144 11.2282 32.5039 10.2843 32.2903 9.32741C32.183 8.84944 32.0752 8.36817 31.9664 7.88373C31.9089 7.64705 31.7656 7.43427 31.5748 7.28221C31.3811 7.13357 31.1388 7.045 30.8922 7.04592C30.7686 7.0454 30.6486 7.06969 30.5248 7.09886C30.4017 7.12631 30.2784 7.15377 30.1548 7.18136C29.9079 7.2364 29.6601 7.29171 29.4115 7.34715C28.9146 7.45803 28.4147 7.56944 27.9118 7.68164C26.9061 7.90591 25.889 8.13268 24.861 8.36197C22.8049 8.8204 20.7056 9.28847 18.5685 9.76499C14.2942 10.7178 9.86868 11.7042 5.33606 12.7145C5.0586 12.7754 4.80859 12.9459 4.65204 13.1817C4.49351 13.416 4.43041 13.7114 4.47991 13.9889C4.59937 14.5507 4.72886 15.1134 4.85228 15.6728C5.10176 16.7923 5.34953 17.9044 5.59558 19.0083C6.08754 21.2163 6.57224 23.3919 7.0485 25.5295C8.00075 29.805 8.91934 33.929 9.79436 37.8576C10.669 41.7863 11.5001 45.5196 12.2779 49.0135C12.3751 49.4503 12.4715 49.8832 12.567 50.3124C12.6157 50.5263 12.6602 50.7421 12.7118 50.9518C12.7653 51.1589 12.8825 51.3467 13.0388 51.489C13.1955 51.6318 13.3924 51.7267 13.5989 51.7636C13.7025 51.7809 13.8077 51.7834 13.9116 51.7733C14.0144 51.7597 14.118 51.7345 14.2215 51.7116C14.6351 51.6196 15.0445 51.5285 15.45 51.4382C17.0718 51.0774 18.6282 50.7311 20.1137 50.4007C26.056 49.0801 30.8646 48.0115 34.1882 47.2729C35.8498 46.9049 37.14 46.6191 38.0153 46.4252C38.4526 46.329 38.7862 46.2556 39.0108 46.2061C39.2354 46.157 39.3506 46.1332 39.3506 46.1332C39.3506 46.1332 39.2362 46.1607 39.0123 46.2115C38.7879 46.2622 38.4547 46.3373 38.0179 46.4359C37.1432 46.6321 35.8537 46.9211 34.193 47.2935C30.8704 48.0362 26.063 49.1105 20.1223 50.4382C18.637 50.7697 17.0809 51.1172 15.4594 51.4791C15.054 51.5697 14.6446 51.661 14.2311 51.7533C14.1279 51.7761 14.025 51.8016 13.9167 51.816C13.8087 51.8265 13.6995 51.824 13.5917 51.8061C13.3771 51.7679 13.1725 51.6695 13.0096 51.5212C12.847 51.3735 12.7252 51.1782 12.6695 50.963C12.6168 50.7497 12.5728 50.5366 12.5239 50.3219C12.428 49.8927 12.3315 49.4598 12.234 49.0231C11.4547 45.5296 10.6219 41.7968 9.74552 37.8685C8.86957 33.9401 7.94993 29.8162 6.99662 25.541C6.5201 23.4034 6.03514 21.2277 5.54291 19.0199C5.29686 17.916 5.04896 16.8039 4.79948 15.6844C4.6758 15.1238 4.5471 14.5649 4.42658 13.998C4.37471 13.7069 4.44097 13.3967 4.60716 13.1512C4.77124 12.904 5.03405 12.7248 5.32471 12.6612C9.85746 11.6513 14.283 10.6651 18.5574 9.71272C20.6947 9.2366 22.7941 8.76905 24.8503 8.31101C25.8783 8.08213 26.8956 7.85548 27.9013 7.63148C28.4043 7.51954 28.9041 7.40813 29.4012 7.29739C29.6498 7.24208 29.8976 7.1869 30.1445 7.13186C30.2681 7.1044 30.3914 7.07695 30.5145 7.04949C30.636 7.02085 30.7645 6.99471 30.8931 6.9955C31.1509 6.99458 31.4042 7.08724 31.6063 7.24261C31.8059 7.4014 31.9553 7.62409 32.0154 7.87119C32.124 8.35616 32.2319 8.83796 32.339 9.31646C32.5521 10.2735 32.7622 11.2174 32.9695 12.1479C33.3837 14.0088 33.7859 15.8155 34.1748 17.5622C34.9521 21.0559 35.6763 24.3103 36.3373 27.2814C37.6578 33.2236 38.7265 38.0327 39.4652 41.3566C39.6493 42.1875 39.813 42.9256 39.9549 43.5654C40.0257 43.8853 40.0911 44.1806 40.1508 44.4506C40.1792 44.5861 40.2123 44.7133 40.2329 44.8377C40.2522 44.9617 40.2539 45.0828 40.2344 45.1938C40.1998 45.4169 40.1041 45.5988 39.9986 45.7318C39.891 45.865 39.7742 45.9521 39.6749 46.01C39.5737 46.0647 39.4917 46.0955 39.4358 46.1112C39.3793 46.1264 39.3506 46.1332 39.3506 46.1332Z" fill="#263238"/>
<g opacity="0.3">
<path d="M15.3216 50.4694L38.3848 45.1972L37.6551 40.6766L36.348 38.1437L14.2855 46.8096L15.3216 50.4694Z" fill="black"/>
</g>
<g opacity="0.3">
<path d="M24.9501 8.39929L25.8225 9.83981L25.9926 10.603L25.4003 10.735L24.9501 8.39929Z" fill="black"/>
</g>
<path d="M5.77686 14.2626L13.7783 50.1669L38.8598 44.5772L37.429 38.1571L30.8582 8.6731L5.77686 14.2626Z" fill="white"/>
<path d="M5.77686 14.2627C5.95558 14.2227 15.6095 12.0624 30.8534 8.65137L30.8752 8.64648L30.8801 8.66826C33.1052 18.646 35.8821 31.0976 38.8862 44.5684L38.8868 44.5713L38.8929 44.5983L38.866 44.6043C29.8991 46.6018 21.3848 48.4985 13.7841 50.1915L13.7594 50.197L13.754 50.1725C9.04386 28.97 5.82543 14.4814 5.77686 14.2627C5.8257 14.4811 9.06405 28.9655 13.803 50.1614L13.7729 50.1423C21.3733 48.4477 29.8872 46.5495 38.8537 44.5502L38.8327 44.5832L38.832 44.5803C35.8318 31.1087 33.0586 18.6563 30.8364 8.6779L30.8631 8.6948C15.6132 12.0795 5.95545 14.2231 5.77686 14.2627Z" fill="#263238"/>
<path d="M25.5357 11.0267L12.8452 13.8549L12.2066 10.9891C12.1063 10.5389 12.3898 10.0928 12.8399 9.99247L23.9005 7.5275C24.3506 7.42718 24.7967 7.71072 24.8971 8.16084L25.5357 11.0267Z" fill="#263238"/>
<path d="M19.6767 7.01587L16.4467 7.73567L17.4413 10.4201L19.8742 9.87789L19.6767 7.01587Z" fill="#263238"/>
<path d="M23.9002 7.52764C23.9035 7.54229 21.4301 8.10606 18.3764 8.78665C15.3217 9.46738 12.8435 10.0073 12.8402 9.99247C12.8369 9.97782 15.3098 9.41418 18.3645 8.73332C21.4182 8.05286 23.8969 7.51298 23.9002 7.52764Z" fill="#455A64"/>
<path d="M12.997 13.1978C12.9824 13.2011 12.8543 12.6831 12.7113 12.0409C12.568 11.3986 12.464 10.8754 12.4787 10.8721C12.4933 10.8688 12.6214 11.3868 12.7645 12.0291C12.9075 12.6712 13.0117 13.1945 12.997 13.1978Z" fill="#455A64"/>
<path d="M24.9312 10.2491C24.9164 10.2524 24.7992 9.78231 24.6693 9.19927C24.5393 8.61609 24.446 8.14076 24.4606 8.13759C24.4753 8.13429 24.5926 8.60421 24.7225 9.18752C24.8524 9.77043 24.9459 10.2458 24.9312 10.2491Z" fill="#455A64"/>
<path d="M24.4284 10.875C24.4317 10.8898 21.8927 11.4681 18.7581 12.1667C15.6224 12.8655 13.0786 13.4199 13.0753 13.4051C13.072 13.3904 15.6105 12.8121 18.7462 12.1133C21.8808 11.4149 24.4251 10.8604 24.4284 10.875Z" fill="#455A64"/>
<path d="M17.7473 21.3199C17.7506 21.3348 16.0382 21.7291 13.923 22.2005C11.8071 22.672 10.0896 23.0421 10.0863 23.0272C10.083 23.0123 11.795 22.6181 13.911 22.1465C16.0262 21.6751 17.744 21.305 17.7473 21.3199Z" fill="#263238"/>
<path d="M30.5134 19.8821C30.5167 19.897 26.0422 20.9068 20.5206 22.1375C14.9971 23.3685 10.5181 24.3539 10.5148 24.3391C10.5115 24.3242 14.9851 23.3145 20.5086 22.0836C26.0303 20.853 30.5101 19.8673 30.5134 19.8821Z" fill="#263238"/>
<path d="M30.7886 21.116C30.7919 21.1309 26.3173 22.1409 20.7958 23.3714C15.2722 24.6024 10.7932 25.5878 10.7899 25.5729C10.7866 25.5579 15.2602 24.5483 20.7838 23.3174C26.3053 22.0869 30.7851 21.1011 30.7886 21.116Z" fill="#263238"/>
<path d="M31.0635 22.35C31.0668 22.3649 26.5922 23.3747 21.0707 24.6054C15.5471 25.8364 11.0681 26.8218 11.0648 26.8069C11.0615 26.792 15.5351 25.7823 21.0587 24.5514C26.5802 23.3209 31.0602 22.3351 31.0635 22.35Z" fill="#263238"/>
<path d="M31.3385 23.5839C31.3418 23.5988 26.8673 24.6088 21.3457 25.8393C15.8222 27.0703 11.3431 28.0557 11.3398 28.0408C11.3365 28.0258 15.8102 27.0162 21.3337 25.7853C26.8553 24.5546 31.3352 23.569 31.3385 23.5839Z" fill="#263238"/>
<path d="M31.6134 24.8179C31.6167 24.8328 27.1422 25.8428 21.6206 27.0733C16.0971 28.3043 11.6182 29.2897 11.6147 29.2748C11.6114 29.2598 16.0851 28.2502 21.6086 27.0193C27.1303 25.7886 31.6101 24.803 31.6134 24.8179Z" fill="#263238"/>
<path d="M15.4931 33.5035C15.492 33.5029 15.4879 33.4886 15.4811 33.4618C15.4735 33.4311 15.4639 33.3924 15.452 33.3442C15.4267 33.2372 15.3914 33.0891 15.3474 32.9031C15.2592 32.5215 15.1354 31.9851 14.9873 31.3436L15.0158 31.3617C14.3855 31.5033 13.6434 31.6699 12.8516 31.8479C12.8467 31.855 12.8911 31.7857 12.8725 31.8153L12.8726 31.8158L12.8729 31.817L12.8734 31.8193L12.8745 31.824L12.8766 31.8332L12.8807 31.8517L12.889 31.8888L12.9055 31.9627C12.9164 32.0118 12.9273 32.0608 12.9381 32.1095C12.9597 32.2069 12.9813 32.3035 13.0024 32.399C13.0447 32.59 13.0861 32.7769 13.1265 32.9588C13.2064 33.3223 13.2819 33.6655 13.3514 33.9807L13.3229 33.9626C13.9666 33.8243 14.5048 33.7087 14.8877 33.6264C15.0749 33.5874 15.2239 33.5563 15.3315 33.5339C15.3801 33.5243 15.4193 33.5165 15.4503 33.5103C15.4774 33.5051 15.492 33.5027 15.4931 33.5035C15.4941 33.5042 15.4817 33.5079 15.4565 33.5145C15.4269 33.5217 15.3897 33.531 15.3435 33.5425C15.2378 33.5676 15.0914 33.6024 14.9077 33.646C14.5224 33.7349 13.981 33.8598 13.3333 34.0094L13.3101 34.0148L13.3048 33.9913C13.2338 33.6765 13.1564 33.3336 13.0744 32.9705C13.0337 32.7888 12.9918 32.6018 12.949 32.411C12.9277 32.3154 12.9061 32.2189 12.8844 32.1215C12.8735 32.0728 12.8626 32.0238 12.8516 31.9747L12.8351 31.9008L12.8268 31.8637L12.8227 31.8451L12.8206 31.8358L12.8196 31.8312L12.819 31.8288L12.8188 31.8277L12.8186 31.8271C12.7999 31.8564 12.844 31.7865 12.8397 31.7937C13.6321 31.6186 14.3748 31.4544 15.0055 31.3148L15.029 31.3097L15.034 31.3331C15.1736 31.9829 15.2905 32.5261 15.3735 32.9127C15.412 33.0976 15.4427 33.2449 15.4648 33.3513C15.4741 33.3981 15.4816 33.4357 15.4874 33.4656C15.4922 33.4913 15.4941 33.5042 15.4931 33.5035Z" fill="#263238"/>
<path d="M31.5854 28.1669L16.4824 31.5322L16.7632 32.7922L31.8662 29.4269L31.5854 28.1669Z" fill="#E0E0E0"/>
<path d="M16.3301 37.259C16.3291 37.2584 16.325 37.2441 16.3181 37.2173C16.3106 37.1865 16.301 37.1479 16.2891 37.0997C16.2637 36.9926 16.2285 36.8445 16.1844 36.6585C16.0962 36.2768 15.9725 35.7406 15.8243 35.0991L15.8528 35.1172C15.2225 35.2588 14.4804 35.4254 13.6887 35.6033C13.6838 35.6105 13.7281 35.541 13.7095 35.5707L13.7097 35.5713L13.7099 35.5725L13.7105 35.5748L13.7115 35.5794L13.7136 35.5887L13.7177 35.6073L13.726 35.6444L13.7425 35.7183C13.7535 35.7674 13.7643 35.8164 13.7753 35.8651C13.7969 35.9625 13.8183 36.0591 13.8396 36.1546C13.8819 36.3456 13.9232 36.5325 13.9636 36.7144C14.0436 37.0779 14.1191 37.4211 14.1886 37.7363L14.16 37.7182C14.8038 37.5799 15.342 37.4643 15.7249 37.382C15.9121 37.343 16.0611 37.3119 16.1687 37.2895C16.2173 37.2799 16.2565 37.2721 16.2875 37.2659C16.3144 37.2607 16.3289 37.2584 16.3301 37.259C16.3312 37.2597 16.3188 37.2634 16.2936 37.27C16.264 37.2772 16.2268 37.2865 16.1806 37.298C16.0748 37.323 15.9285 37.3579 15.7447 37.4016C15.3594 37.4905 14.8179 37.6154 14.1702 37.765L14.147 37.7704L14.1417 37.7469C14.0707 37.4321 13.9933 37.0893 13.9114 36.7261C13.8706 36.5444 13.8287 36.3576 13.786 36.1666C13.7646 36.0711 13.7431 35.9745 13.7213 35.8771C13.7105 35.8284 13.6995 35.7794 13.6885 35.7303L13.672 35.6564L13.6637 35.6193L13.6596 35.6007L13.6575 35.5915L13.6565 35.5868L13.6559 35.5845L13.6557 35.5833L13.6555 35.5827C13.6368 35.6121 13.6809 35.5421 13.6767 35.5494C14.4691 35.3742 15.2117 35.21 15.8424 35.0706L15.8659 35.0653L15.8709 35.0887C16.0106 35.7385 16.1274 36.2817 16.2105 36.6683C16.2491 36.8532 16.2797 37.0006 16.3019 37.107C16.3111 37.1537 16.3185 37.1913 16.3245 37.2213C16.3292 37.2469 16.3312 37.2598 16.3301 37.259Z" fill="#263238"/>
<path d="M32.4224 31.9228L17.3195 35.2881L17.6002 36.5481L32.7032 33.1827L32.4224 31.9228Z" fill="#E0E0E0"/>
<path d="M17.1669 41.0146C17.1659 41.014 17.1618 40.9997 17.1549 40.9729C17.1474 40.9422 17.1377 40.9035 17.1259 40.8553C17.1005 40.7484 17.0653 40.6002 17.0212 40.4142C16.933 40.0324 16.8093 39.4962 16.6611 38.8547L16.6896 38.8728C16.0593 39.0144 15.3172 39.181 14.5255 39.359C14.5206 39.3661 14.5651 39.2968 14.5463 39.3264L14.5464 39.327L14.5467 39.3282L14.5472 39.3306L14.5483 39.3352L14.5504 39.3444L14.5545 39.363L14.5628 39.4001L14.5793 39.4741C14.5903 39.5232 14.6011 39.5721 14.6119 39.6208C14.6336 39.7183 14.6551 39.8149 14.6762 39.9103C14.7186 40.1013 14.7599 40.2882 14.8001 40.4701C14.8801 40.8337 14.9556 41.1769 15.0251 41.4921L14.9966 41.474C15.6403 41.3357 16.1785 41.22 16.5614 41.1377C16.7486 41.0986 16.8976 41.0676 17.0053 41.0451C17.0539 41.0355 17.0931 41.0277 17.1241 41.0215C17.1513 41.0163 17.1659 41.014 17.1669 41.0146C17.168 41.0153 17.1556 41.019 17.1303 41.0256C17.1008 41.033 17.0636 41.0422 17.0174 41.0537C16.9116 41.0788 16.7652 41.1136 16.5815 41.1572C16.1962 41.2462 15.6548 41.371 15.0071 41.5206L14.9839 41.526L14.9786 41.5025C14.9076 41.1876 14.8302 40.8449 14.7483 40.4817C14.7075 40.3 14.6656 40.1131 14.6229 39.9222C14.6015 39.8266 14.58 39.7301 14.5582 39.6327C14.5474 39.584 14.5364 39.535 14.5255 39.4859L14.509 39.412L14.5006 39.3749L14.4965 39.3563L14.4944 39.3471L14.4934 39.3425L14.4929 39.3401L14.4926 39.3389L14.4925 39.3384C14.4737 39.3677 14.5178 39.2977 14.5136 39.305C15.306 39.1298 16.0486 38.9656 16.6793 38.8261L16.7028 38.8209L16.7078 38.8443C16.8475 39.4941 16.9643 40.0373 17.0473 40.4239C17.0859 40.6089 17.1165 40.7562 17.1387 40.8626C17.1479 40.9093 17.1554 40.947 17.1612 40.9769C17.1661 41.0025 17.168 41.0154 17.1669 41.0146Z" fill="#263238"/>
<path d="M33.2593 35.6786L18.1564 39.0439L18.4371 40.3039L33.5401 36.9386L33.2593 35.6786Z" fill="#E0E0E0"/>
<path d="M13.4131 32.7275L13.6399 32.3707L14.3143 32.7455L15.182 31.4363L15.518 31.6677L14.3979 33.3175L13.4131 32.7275Z" fill="#FF725E"/>
<path d="M14.2222 36.3575L14.4489 36.0007L15.1232 36.3755L15.9911 35.0663L16.327 35.2977L15.207 36.9475L14.2222 36.3575Z" fill="#FF725E"/>
<path d="M15.0516 40.0793L15.2784 39.7225L15.9527 40.0973L16.8204 38.7881L17.1565 39.0195L16.0364 40.6694L15.0516 40.0793Z" fill="#FF725E"/>
<path d="M21.9643 44.7498C21.9676 44.7648 20.6924 45.0616 19.1166 45.4127C17.5402 45.764 16.26 46.0367 16.2567 46.0218C16.2534 46.0069 17.5281 45.7101 19.1046 45.3588C20.6804 45.0076 21.9608 44.7351 21.9643 44.7498Z" fill="#263238"/>
<path d="M24.8082 44.0701C24.8115 44.085 24.3424 44.2022 23.7605 44.3318C23.1784 44.4616 22.7041 44.5546 22.7007 44.5397C22.6974 44.5248 23.1664 44.4076 23.7485 44.2778C24.3304 44.1482 24.8049 44.0551 24.8082 44.0701Z" fill="#263238"/>
<path d="M34.225 41.106C34.2283 41.1209 33.081 41.3893 31.6628 41.7053C30.2441 42.0214 29.0916 42.2656 29.0883 42.2507C29.085 42.2358 30.232 41.9674 31.6508 41.6513C33.069 41.3353 34.2217 41.0911 34.225 41.106Z" fill="#263238"/>
<path d="M32.9989 44.5808C32.9958 44.5797 33.0102 44.5446 33.0241 44.4757C33.0395 44.4069 33.0402 44.3007 33.0082 44.1708C32.975 44.0408 32.9071 43.8904 32.8256 43.7164C32.7477 43.5431 32.6466 43.3376 32.6449 43.0871C32.6486 42.8411 32.757 42.568 32.9795 42.3765C33.1993 42.1813 33.544 42.1124 33.8567 42.213C34.0123 42.2636 34.1625 42.3517 34.2742 42.4871C34.3275 42.5562 34.3703 42.6391 34.3733 42.7342C34.3816 42.8312 34.3073 42.9276 34.2185 42.9573C34.1307 42.991 34.045 43.001 33.9587 43.0217C33.872 43.0395 33.7846 43.0576 33.6966 43.0757C33.5201 43.1106 33.34 43.1429 33.1563 43.1669C32.7897 43.216 32.4214 43.2228 32.0764 43.1731C31.9077 43.1553 31.7295 43.1525 31.6024 43.2503C31.4757 43.3471 31.4114 43.5043 31.3167 43.6362C31.2701 43.7027 31.2106 43.7663 31.1326 43.8007C31.0556 43.8363 30.966 43.8354 30.8905 43.8108C30.7382 43.7595 30.6262 43.6574 30.5053 43.5888C30.4455 43.5538 30.3832 43.5249 30.3196 43.5186C30.2565 43.5125 30.193 43.5279 30.1427 43.5633C30.0407 43.6358 29.9867 43.7559 29.9191 43.8564C29.7855 44.0698 29.5557 44.1709 29.3618 44.1779C29.1629 44.1877 29.0014 44.1032 28.8997 44.0141C28.7958 43.9233 28.7439 43.8267 28.7169 43.7608C28.6903 43.694 28.6869 43.656 28.6869 43.656C28.6898 43.6552 28.6977 43.6921 28.727 43.7563C28.7568 43.8195 28.8106 43.9121 28.9135 43.9976C29.0146 44.0817 29.1709 44.1592 29.3601 44.1469C29.5456 44.1371 29.7619 44.0387 29.8864 43.835C29.9521 43.7369 30.0032 43.6129 30.1184 43.5282C30.1758 43.4872 30.2508 43.4677 30.3241 43.4746C30.3979 43.4816 30.4657 43.5133 30.5282 43.5492C30.6536 43.6202 30.7671 43.7197 30.9048 43.7645C30.9727 43.7859 31.0472 43.7856 31.1124 43.7554C31.1779 43.7262 31.2311 43.6706 31.2753 43.6069C31.3661 43.4815 31.4284 43.3196 31.5708 43.2084C31.6416 43.1536 31.7305 43.1253 31.8182 43.1153C31.9064 43.1054 31.9948 43.1108 32.0819 43.1195C32.4266 43.1681 32.7847 43.1609 33.1493 43.1124C33.3313 43.0885 33.5102 43.0566 33.686 43.022C33.7739 43.004 33.861 42.9861 33.9476 42.9684C34.0332 42.9483 34.1233 42.9364 34.1982 42.9074C34.2739 42.8796 34.3243 42.813 34.32 42.7353C34.3183 42.6585 34.281 42.582 34.2329 42.5199C34.1314 42.3956 33.9883 42.3097 33.8415 42.2617C33.5446 42.165 33.2186 42.2283 33.0095 42.4116C32.7967 42.5919 32.6901 42.8529 32.6842 43.0879C32.6831 43.3257 32.7785 43.5298 32.854 43.7039C32.9325 43.8787 32.9988 44.0324 33.0292 44.1659C33.0587 44.2995 33.0542 44.4088 33.0351 44.4781C33.0173 44.5474 32.9989 44.5808 32.9989 44.5808Z" fill="#263238"/>
<path d="M35.728 42.8909C35.7284 42.8927 35.7047 42.8997 35.6591 42.9113C35.6079 42.9237 35.5417 42.9397 35.4593 42.9595C35.279 43.0014 35.0291 43.0593 34.7231 43.1302C34.1015 43.2743 33.2439 43.4778 32.3004 43.7169C31.3566 43.9565 30.5057 44.1865 29.8906 44.3561C29.5878 44.4395 29.3406 44.5077 29.1621 44.5569C29.0803 44.5786 29.0144 44.5962 28.9634 44.6097C28.9179 44.6211 28.8936 44.6263 28.8931 44.6244C28.8925 44.6226 28.9156 44.6139 28.9603 44.599C29.0104 44.5829 29.0754 44.562 29.156 44.5361C29.3263 44.4824 29.5735 44.408 29.8799 44.3183C30.4925 44.1391 31.3423 43.9029 32.2868 43.6632C33.231 43.4239 34.0904 43.2263 34.7145 43.0919C35.0266 43.0246 35.2795 42.9723 35.4547 42.9383C35.538 42.9226 35.6049 42.91 35.6566 42.9003C35.7032 42.8923 35.7276 42.889 35.728 42.8909Z" fill="#263238"/>
<path d="M24.9027 13.9271L14.6504 16.2115L15.0796 18.1378L25.3319 15.8533L24.9027 13.9271Z" fill="#E0E0E0"/>
<path d="M34.5996 45.1844L37.9118 62.6826L40.9385 57.0901L46.6755 60.4572L40.5857 43.4181L34.5996 45.1844Z" fill="#FF725E"/>
<g opacity="0.3">
<path d="M35.7135 51.0695C36.3257 51.1956 37.0404 50.9791 37.4748 50.5296C37.7765 50.2174 37.9778 49.7933 38.3584 49.5842C38.7 49.3965 39.1212 49.4233 39.4969 49.5271C39.8726 49.6308 40.2263 49.8049 40.6036 49.9027C41.343 50.0947 42.1585 49.9735 42.8105 49.5751L41.8551 46.9219L37.4195 46.3679L35.3046 48.9084L35.7135 51.0695Z" fill="black"/>
</g>
<path d="M40.7227 56.3952C40.7043 56.3999 40.211 54.5827 39.6211 52.3366C39.0309 50.0897 38.5676 48.2649 38.586 48.2601C38.6043 48.2554 39.0975 50.0722 39.6876 52.3191C40.2776 54.5651 40.741 56.3903 40.7227 56.3952Z" fill="#263238"/>
<path d="M35.0846 46.0947L31.7723 63.5927L28.7455 58.0003L23.0085 61.3675L29.0984 44.3284L35.0846 46.0947Z" fill="#FF725E"/>
<g opacity="0.3">
<path d="M27.2769 49.4246C27.2769 49.4246 28.2188 50.2001 29.3428 49.8427C30.4666 49.4854 31.1644 49.4103 31.7724 49.8427C32.3804 50.2752 34.0264 51.6849 34.0264 51.6849L34.4085 49.6661L32.1981 46.6302L29.8895 47.0963L28.2455 47.2605L27.6343 48.4174L27.2769 49.4246Z" fill="black"/>
</g>
<path d="M54.5033 30.2988C54.5033 31.5543 52.8986 32.6358 52.6639 33.8223C52.4221 35.0449 53.4864 36.6565 53.0199 37.7814C52.5453 38.926 50.6485 39.3107 49.9674 40.3281C49.2811 41.3532 49.6472 43.252 48.7779 44.1211C47.9088 44.9902 46.01 44.6241 44.9849 45.3104C43.9676 45.9915 43.5828 47.8882 42.4382 48.3629C41.3133 48.8294 39.7017 47.7651 38.4792 48.0069C37.2926 48.2416 36.2111 49.8463 34.9557 49.8463C33.7002 49.8463 32.6188 48.2416 31.4322 48.0069C30.2096 47.7651 28.598 48.8293 27.4731 48.3629C26.3286 47.8884 25.9438 45.9915 24.9265 45.3104C23.9013 44.6241 22.0025 44.9902 21.1334 44.121C20.2644 43.2519 20.6304 41.353 19.9441 40.3279C19.2631 39.3106 17.3663 38.9258 16.8916 37.7813C16.4251 36.6563 17.4894 35.0448 17.2476 33.8222C17.0129 32.6356 15.4082 31.5542 15.4082 30.2987C15.4082 29.0433 17.0129 27.9618 17.2476 26.7752C17.4894 25.5526 16.4251 23.9411 16.8916 22.8162C17.3662 21.6716 19.263 21.2868 19.9441 20.2695C20.6304 19.2444 20.2644 17.3455 21.1336 16.4765C22.0027 15.6074 23.9015 15.9734 24.9266 15.2871C25.9439 14.606 26.3287 12.7093 27.4733 12.2346C28.5982 11.7681 30.2098 12.8325 31.4323 12.5906C32.6189 12.3559 33.7004 10.7512 34.9558 10.7512C36.2113 10.7512 37.2927 12.3559 38.4793 12.5906C39.7019 12.8325 41.3135 11.7683 42.4384 12.2346C43.5829 12.7092 43.9677 14.606 44.985 15.2871C46.0102 15.9734 47.909 15.6074 48.7781 16.4765C49.6472 17.3455 49.2811 19.2444 49.9674 20.2695C50.6484 21.2868 52.5452 21.6716 53.0199 22.8162C53.4864 23.9411 52.4221 25.5526 52.6639 26.7752C52.8986 27.9619 54.5033 29.0434 54.5033 30.2988Z" fill="#FF725E"/>
<path d="M30.3821 19.3421C30.38 19.3431 30.3679 19.3245 30.3466 19.2881C30.3222 19.2443 30.2925 19.1912 30.2566 19.1272C30.1792 18.987 30.0725 18.7813 29.9452 18.525C29.6902 18.0124 29.3604 17.2926 29.0425 16.4786C28.7251 15.664 28.4801 14.911 28.3208 14.3612C28.241 14.0864 28.1802 13.8628 28.1422 13.7073C28.1252 13.6358 28.1111 13.5767 28.0994 13.528C28.0905 13.4868 28.0868 13.4649 28.089 13.4642C28.0913 13.4636 28.0994 13.4843 28.1128 13.5243C28.1278 13.5721 28.146 13.63 28.168 13.7001C28.2182 13.8632 28.2856 14.0817 28.3673 14.3472C28.5383 14.8925 28.7899 15.6412 29.1065 16.4538C29.4237 17.2658 29.7455 17.987 29.9889 18.5041C30.1085 18.7548 30.207 18.9613 30.2804 19.1152C30.3115 19.1816 30.3375 19.2366 30.3588 19.2819C30.3761 19.3202 30.3842 19.3409 30.3821 19.3421Z" fill="#263238"/>
<path d="M32.1217 18.6804C32.1171 18.6816 32.0994 18.6297 32.0713 18.5348C32.0429 18.44 32.0055 18.3018 31.962 18.1305C31.8749 17.7877 31.7669 17.3109 31.6692 16.7801C31.5718 16.2491 31.5033 15.7649 31.463 15.4135C31.4428 15.2378 31.4287 15.0954 31.4216 14.9968C31.4142 14.8982 31.4123 14.8434 31.4169 14.8429C31.4217 14.8424 31.4325 14.8961 31.4481 14.9936C31.4653 15.1057 31.4862 15.2439 31.5112 15.4071C31.5637 15.7562 31.6396 16.2379 31.7368 16.7676C31.8342 17.2972 31.9344 17.7744 32.0092 18.1193C32.0439 18.2807 32.0734 18.4173 32.0971 18.5282C32.1173 18.6251 32.1263 18.6792 32.1217 18.6804Z" fill="#263238"/>
<path d="M35.1907 18.3756C35.1717 18.376 35.1228 16.8953 35.0815 15.0688C35.0402 13.2417 35.0221 11.7606 35.0411 11.7603C35.0601 11.7599 35.109 13.2402 35.1503 15.0674C35.1915 16.8937 35.2096 18.3752 35.1907 18.3756Z" fill="#263238"/>
<path d="M38.2787 15.3332C38.2967 15.3388 38.0837 16.0792 37.8028 16.9866C37.5218 17.8944 37.2793 18.6255 37.2612 18.62C37.2431 18.6144 37.4562 17.8742 37.7372 16.9663C38.0181 16.0588 38.2604 15.3275 38.2787 15.3332Z" fill="#263238"/>
<path d="M39.5393 19.1594C39.537 19.1586 39.5429 19.1371 39.5559 19.0969C39.5723 19.0496 39.5922 18.9921 39.6161 18.9228C39.6692 18.7718 39.7513 18.5555 39.8538 18.2884C40.0602 17.7549 40.3569 17.0226 40.6946 16.218C41.0322 15.4131 41.346 14.688 41.5774 14.165C41.6914 13.9117 41.7853 13.703 41.8554 13.5474C41.8868 13.4811 41.9129 13.4262 41.9344 13.3811C41.9532 13.3433 41.9641 13.3241 41.9664 13.325C41.9686 13.3259 41.9619 13.3472 41.9471 13.3866C41.9289 13.4332 41.9067 13.4899 41.8799 13.5581C41.815 13.716 41.7278 13.9274 41.6221 14.1843C41.3972 14.7208 41.0936 15.4446 40.758 16.2447C40.4245 17.0451 40.1227 17.7696 39.8991 18.3065C39.7934 18.5633 39.7063 18.7747 39.6412 18.9325C39.6124 18.9999 39.5887 19.0559 39.569 19.102C39.5516 19.1404 39.5414 19.1602 39.5393 19.1594Z" fill="#263238"/>
<path d="M41.1893 20.0198C41.1854 20.0172 41.2124 19.9695 41.2646 19.8854C41.3166 19.8012 41.395 19.6815 41.4941 19.5351C41.6924 19.2422 41.977 18.8448 42.3088 18.4191C42.6411 17.9934 42.9574 17.6206 43.1931 17.357C43.311 17.2251 43.408 17.12 43.477 17.049C43.5458 16.9779 43.5855 16.9401 43.5891 16.9433C43.5927 16.9465 43.5597 16.9903 43.4971 17.0667C43.4248 17.154 43.3355 17.2616 43.2301 17.3887C43.0041 17.6599 42.6945 18.0367 42.3631 18.4613C42.032 18.8859 41.742 19.2779 41.5339 19.5631C41.4363 19.6963 41.3537 19.8092 41.2866 19.9005C41.2278 19.9798 41.1933 20.0225 41.1893 20.0198Z" fill="#263238"/>
<path d="M43.5891 21.9874C43.5762 21.9735 44.6206 20.9808 45.9215 19.7704C47.2229 18.5597 48.2882 17.5898 48.3011 17.6037C48.314 17.6175 47.2698 18.61 45.9684 19.8207C44.6674 21.0312 43.602 22.0012 43.5891 21.9874Z" fill="#263238"/>
<path d="M47.7818 22.3973C47.7861 22.4068 47.6313 22.4842 47.384 22.614C47.1363 22.7434 46.7988 22.93 46.4267 23.139C46.0543 23.3481 45.7114 23.5289 45.4573 23.6474C45.3303 23.7067 45.2266 23.7528 45.1536 23.7815C45.0808 23.8108 45.0397 23.825 45.0377 23.8206C45.0335 23.8112 45.1882 23.7336 45.4355 23.6039C45.6832 23.4745 46.0207 23.2879 46.3931 23.0788C46.7653 22.8698 47.1082 22.689 47.3622 22.5703C47.4892 22.511 47.5929 22.465 47.6659 22.4362C47.7388 22.407 47.7798 22.3929 47.7818 22.3973Z" fill="#263238"/>
<path d="M51.6631 24.0073C51.6695 24.0252 50.4262 24.4792 48.8867 25.0212C47.3466 25.5633 46.0934 25.9882 46.0871 25.9704C46.0807 25.9524 47.3238 25.4986 48.8638 24.9563C50.4035 24.4144 51.6568 23.9893 51.6631 24.0073Z" fill="#263238"/>
<path d="M52.8986 31.0649C52.8967 31.0838 51.5457 30.9706 49.8812 30.8122C48.2161 30.6537 46.8683 30.5099 46.87 30.4911C46.8718 30.4722 48.2226 30.5853 49.8877 30.7439C51.5522 30.9023 52.9003 31.046 52.8986 31.0649Z" fill="#263238"/>
<path d="M51.9049 37.3952C51.8969 37.4123 50.6337 36.8326 49.0838 36.1004C47.5335 35.3679 46.2837 34.7606 46.2919 34.7434C46.3 34.7263 47.5629 35.3059 49.1133 36.0383C50.663 36.7704 51.913 37.378 51.9049 37.3952Z" fill="#263238"/>
<path d="M47.7496 43.4181C47.7351 43.4304 46.824 42.3736 45.7149 41.0581C44.6054 39.7422 43.718 38.6658 43.7325 38.6535C43.747 38.6413 44.6579 39.6978 45.7674 41.0137C46.8766 42.3294 47.7641 43.4059 47.7496 43.4181Z" fill="#263238"/>
<path d="M44.2813 44.2137C44.2774 44.2162 44.2383 44.1633 44.1713 44.0653C44.1039 43.9674 44.0094 43.8239 43.8947 43.6452C43.6653 43.2878 43.3576 42.788 43.0337 42.2267C42.7098 41.6652 42.4311 41.1487 42.2365 40.7711C42.1392 40.5824 42.0623 40.4287 42.0112 40.3214C41.96 40.2142 41.9336 40.154 41.9378 40.1518C41.942 40.1497 41.9764 40.2058 42.0348 40.309C42.099 40.4242 42.1811 40.5717 42.2793 40.7482C42.4847 41.1195 42.7698 41.6315 43.0932 42.1924C43.4167 42.7529 43.7173 43.2559 43.936 43.6196C44.0397 43.793 44.1262 43.9378 44.1938 44.0509C44.2539 44.1534 44.2853 44.2112 44.2813 44.2137Z" fill="#263238"/>
<path d="M42.1266 47.2429C42.1245 47.2439 42.1127 47.2253 42.0922 47.1888C42.0687 47.1448 42.0402 47.0916 42.0059 47.0275C41.9317 46.887 41.8296 46.681 41.7081 46.4242C41.4648 45.9109 41.1523 45.1898 40.8549 44.375C40.5583 43.5597 40.3336 42.8065 40.1896 42.257C40.1174 41.9822 40.063 41.7588 40.0295 41.6036C40.0146 41.5324 40.0022 41.4733 39.9919 41.4246C39.9839 41.3835 39.981 41.3616 39.9833 41.3611C39.9857 41.3606 39.993 41.3813 40.0053 41.4213C40.0191 41.4692 40.0356 41.5271 40.0555 41.5971C40.1012 41.7603 40.1623 41.9789 40.2365 42.244C40.3922 42.7893 40.6235 43.5383 40.9194 44.3514C41.216 45.1641 41.5207 45.8862 41.7522 46.4039C41.8661 46.6547 41.9598 46.8614 42.0299 47.0157C42.0596 47.0821 42.0843 47.1371 42.1047 47.1826C42.121 47.2211 42.1287 47.2418 42.1266 47.2429Z" fill="#263238"/>
<path d="M37.7624 45.1193C37.7522 45.1198 37.736 44.9436 37.7053 44.6597C37.6749 44.3758 37.6269 43.9844 37.5553 43.555C37.4832 43.1255 37.4011 42.7398 37.3376 42.4614C37.2741 42.183 37.2321 42.011 37.2419 42.0082C37.2465 42.0069 37.2626 42.0483 37.288 42.1244C37.3136 42.2004 37.3468 42.3114 37.3847 42.4496C37.4606 42.7259 37.5506 43.1121 37.6231 43.5436C37.695 43.9751 37.7356 44.3696 37.7538 44.6555C37.763 44.7984 37.7678 44.9143 37.7682 44.9944C37.7688 45.0747 37.7671 45.1191 37.7624 45.1193Z" fill="#263238"/>
<path d="M34.9075 48.919C34.9052 48.919 34.9032 48.8957 34.9017 48.8513C34.9009 48.799 34.8999 48.735 34.8987 48.6573C34.897 48.4887 34.898 48.2449 34.9036 47.9437C34.9136 47.3411 34.9412 46.509 34.9895 45.5909C35.0372 44.6725 35.0963 43.8421 35.1449 43.2415C35.1694 42.9412 35.1913 42.6984 35.2085 42.5308C35.2172 42.4535 35.2243 42.3898 35.2302 42.3379C35.2358 42.2938 35.2402 42.2709 35.2426 42.2711C35.2449 42.2713 35.2453 42.2948 35.244 42.3391C35.2416 42.3912 35.2387 42.4553 35.2352 42.533C35.2247 42.7115 35.2105 42.9522 35.1933 43.2451C35.1582 43.8559 35.1107 44.6818 35.0582 45.5948C35.01 46.5123 34.9747 47.3435 34.9522 47.9453C34.9412 48.2384 34.9321 48.4793 34.9255 48.6581C34.9215 48.7357 34.9184 48.7997 34.9157 48.8518C34.9127 48.8958 34.9099 48.919 34.9075 48.919Z" fill="#263238"/>
<path d="M32.5868 42.2709C32.5959 42.2726 32.5817 42.4013 32.5472 42.6078C32.5129 42.8141 32.4573 43.0979 32.3846 43.4086C32.3117 43.7195 32.2354 43.9984 32.1745 44.1985C32.1136 44.3987 32.0691 44.5203 32.0603 44.5178C32.0509 44.5152 32.0789 44.3887 32.1276 44.1858C32.182 43.9592 32.2464 43.6903 32.3177 43.393C32.3859 43.0951 32.4476 42.8257 32.4996 42.5984C32.546 42.3948 32.5772 42.2692 32.5868 42.2709Z" fill="#263238"/>
<path d="M28.3908 40.2548C28.406 40.2663 28.1474 40.6327 27.8133 41.0732C27.4792 41.5138 27.1961 41.8615 27.1811 41.85C27.1659 41.8385 27.4245 41.4722 27.7587 41.0316C28.0925 40.5911 28.3757 40.2433 28.3908 40.2548Z" fill="#263238"/>
<path d="M26.1896 38.7759C26.2039 38.7884 25.3848 39.7503 24.3602 40.9241C23.3354 42.0983 22.4931 43.0397 22.4788 43.0272C22.4646 43.0147 23.2835 42.053 24.3085 40.8789C25.3329 39.705 26.1752 38.7633 26.1896 38.7759Z" fill="#263238"/>
<path d="M25.0881 37.1388C25.1001 37.1535 24.6444 37.549 24.0702 38.0222C23.4959 38.4955 23.0207 38.8673 23.0085 38.8526C22.9965 38.838 23.4521 38.4425 24.0264 37.9691C24.6006 37.4959 25.0759 37.1242 25.0881 37.1388Z" fill="#263238"/>
<path d="M23.7993 34.6686C23.8077 34.6858 22.6667 35.2526 21.2514 35.9346C19.8355 36.6169 18.6814 37.156 18.6733 37.1389C18.6651 37.1217 19.8057 36.555 21.2215 35.8727C22.6368 35.1907 23.7912 34.6516 23.7993 34.6686Z" fill="#263238"/>
<path d="M23.2814 33.4365C23.2824 33.4411 23.2401 33.4534 23.1629 33.4716C23.0858 33.4901 22.9735 33.5132 22.8341 33.5389C22.5554 33.5907 22.1679 33.6494 21.7374 33.6927C21.3067 33.7356 20.9152 33.7547 20.6318 33.7594C20.49 33.7617 20.3755 33.7613 20.2961 33.7584C20.2169 33.7559 20.1731 33.7522 20.173 33.7475C20.1728 33.7374 20.3477 33.7278 20.6298 33.7108C20.912 33.6937 21.3014 33.6671 21.7304 33.6243C22.1593 33.5813 22.5462 33.5302 22.8262 33.491C23.1063 33.4518 23.2796 33.4266 23.2814 33.4365Z" fill="#263238"/>
<path d="M22.8635 30.5925C22.8631 30.5972 22.7809 30.5951 22.6325 30.5875C22.4729 30.5793 22.2612 30.5683 22.0047 30.5553C21.4747 30.5295 20.742 30.5054 19.9326 30.5093C19.1229 30.5139 18.3904 30.546 17.8607 30.5774C17.6045 30.5934 17.3929 30.6065 17.2333 30.6164C17.0852 30.6257 17.003 30.6286 17.0024 30.6239C17.002 30.6191 17.0834 30.6073 17.2309 30.5897C17.3785 30.5718 17.5925 30.5506 17.8573 30.5289C18.3869 30.485 19.1206 30.4452 19.9321 30.4404C20.7432 30.4363 21.4774 30.4684 22.0074 30.5065C22.2724 30.5254 22.4866 30.5443 22.6344 30.5607C22.7825 30.5768 22.8639 30.5877 22.8635 30.5925Z" fill="#263238"/>
<path d="M23.1228 28.0947C23.1176 28.1131 22.2629 27.8905 21.2139 27.5977C20.1645 27.305 19.3182 27.0529 19.3233 27.0345C19.3284 27.0162 20.183 27.2387 21.2324 27.5315C22.2814 27.8243 23.1279 28.0765 23.1228 28.0947Z" fill="#263238"/>
<path d="M23.6752 26.0005C23.6744 26.0027 23.653 25.9978 23.6129 25.9865C23.5652 25.9721 23.5077 25.9545 23.4382 25.9335C23.2868 25.8868 23.0698 25.8129 22.8036 25.716C22.2711 25.5226 21.5452 25.2265 20.7689 24.8448C19.9929 24.462 19.3156 24.0671 18.8376 23.7628C18.5986 23.6109 18.4077 23.4839 18.2784 23.3924C18.2194 23.3502 18.1705 23.3152 18.13 23.2863C18.0965 23.2615 18.0796 23.2473 18.0809 23.2454C18.0822 23.2434 18.1017 23.2535 18.1376 23.2748C18.18 23.3008 18.2312 23.3322 18.293 23.3701C18.4267 23.4547 18.6213 23.5752 18.8631 23.7215C19.3466 24.0145 20.0255 24.4015 20.7992 24.783C21.5731 25.1636 22.2937 25.4659 22.8206 25.6705C23.0841 25.773 23.2982 25.8538 23.4468 25.9082C23.5145 25.9341 23.5706 25.9556 23.6171 25.9733C23.656 25.989 23.676 25.9982 23.6752 26.0005Z" fill="#263238"/>
<path d="M24.9177 23.8953C24.9068 23.9109 24.2386 23.459 23.4254 22.8864C22.6118 22.3136 21.9615 21.8368 21.9724 21.8212C21.9834 21.8056 22.6514 22.2573 23.465 22.8302C24.2782 23.4029 24.9287 23.8799 24.9177 23.8953Z" fill="#263238"/>
<path d="M22.2916 17.479C22.2932 17.4773 22.3104 17.49 22.3417 17.5156C22.3785 17.5471 22.4227 17.585 22.4759 17.6306C22.5991 17.7397 22.7631 17.8852 22.9621 18.0614C23.379 18.4335 23.9404 18.9343 24.561 19.4879C25.1841 20.0389 25.7478 20.5375 26.1665 20.9076C26.365 21.0844 26.5288 21.2301 26.6517 21.3395C26.7032 21.3869 26.746 21.4264 26.7816 21.4592C26.8108 21.4872 26.8254 21.5028 26.8238 21.5045C26.8223 21.5064 26.8047 21.4943 26.7725 21.4698C26.7346 21.4396 26.6889 21.4034 26.6342 21.3598C26.5148 21.2632 26.3442 21.1214 26.1345 20.9444C25.7153 20.5905 25.1412 20.0954 24.5152 19.5394C23.8894 18.9834 23.3299 18.4721 22.9291 18.0975C22.7287 17.9101 22.5675 17.7573 22.4575 17.6504C22.4078 17.6011 22.3665 17.5601 22.332 17.5259C22.304 17.4969 22.29 17.4808 22.2916 17.479Z" fill="#263238"/>
<path d="M26.4093 17.5989C26.413 17.5959 26.4448 17.6286 26.4991 17.6903C26.5535 17.7518 26.6295 17.8431 26.7214 17.9577C26.9051 18.1867 27.1496 18.5109 27.4026 18.8808C27.6557 19.2509 27.8691 19.5964 28.0159 19.8507C28.0894 19.9779 28.1468 20.0819 28.1845 20.1549C28.2222 20.2279 28.2412 20.2693 28.2371 20.2716C28.2284 20.2766 28.1315 20.1231 27.9745 19.8759C27.8174 19.6286 27.5981 19.2885 27.346 18.9196C27.0938 18.5509 26.8564 18.2233 26.6828 17.9873C26.5094 17.7511 26.4015 17.6053 26.4093 17.5989Z" fill="#263238"/>
<g opacity="0.2">
<path d="M21.1337 16.4766L26.8761 21.5046L28.3035 20.3624L24.9712 15.2562C24.9712 15.2562 24.7159 15.4441 24.0523 15.6336C23.4096 15.8174 21.517 15.8665 21.1337 16.4766Z" fill="black"/>
</g>
<g opacity="0.2">
<path d="M27.5256 12.2233L30.33 19.242L32.1216 18.6807L31.5246 12.5932C31.5246 12.5932 31.216 12.6654 30.5314 12.5784C29.8682 12.4941 28.2585 11.8647 27.5256 12.2233Z" fill="black"/>
</g>
<g opacity="0.3">
<path d="M35.0026 10.7536L35.1907 18.3755L36.8704 18.4562L38.5709 12.6063C38.5386 12.6034 38.0997 12.5275 37.5821 12.1967C37.0004 11.8251 35.8161 10.693 35.0026 10.7536Z" fill="black"/>
</g>
<g opacity="0.2">
<path d="M42.3257 12.1936L39.5391 19.2202L41.0563 19.9456L44.891 15.2119C44.8622 15.1967 44.4988 14.8941 44.1628 14.3556C43.7974 13.7699 43.1746 12.4282 42.3257 12.1936Z" fill="black"/>
</g>
<g opacity="0.2">
<path d="M48.8702 16.5784L43.6797 21.9873L44.8365 23.5463L49.908 20.1614C49.908 20.1614 49.6949 19.8237 49.5744 19.1739C49.4523 18.5165 49.4346 17.3188 48.8702 16.5784Z" fill="black"/>
</g>
<g opacity="0.2">
<path d="M52.9673 22.6844L45.9779 25.5611L46.5578 27.3468L52.6388 26.687C52.6388 26.687 52.6007 26.499 52.6806 25.8135C52.7581 25.1494 53.4554 23.6663 52.9673 22.6844Z" fill="black"/>
</g>
<g opacity="0.2">
<path d="M54.5141 30.2988L46.8945 30.5656L46.8312 32.246L52.6438 33.9465C52.6463 33.914 52.6982 33.5858 52.8743 33.2527C53.3022 32.4434 54.5141 31.3024 54.5141 30.2988Z" fill="black"/>
</g>
<g opacity="0.2">
<path d="M53.1106 37.5039L46.0948 34.7694L45.3851 36.294L50.1581 40.0796C50.173 40.0507 50.4518 39.7924 50.9867 39.4508C51.5687 39.0793 52.9491 38.4793 53.1106 37.5039Z" fill="black"/>
</g>
<g opacity="0.2">
<path d="M42.7913 37.3951L41.0548 38.8526C41.1863 38.9901 43.5008 42.9234 44.9266 45.3551C44.9463 45.3408 44.9646 45.324 44.9847 45.3104C45.924 44.6815 47.5949 44.9337 48.537 44.3118L42.7913 37.3951Z" fill="black"/>
<path d="M39.6003 40.1519L37.0076 41.0359L38.2352 48.0746C38.3161 48.0464 38.3974 48.0231 38.4792 48.0069C39.7018 47.7651 41.3134 48.8294 42.4383 48.3629C42.593 48.2988 42.7328 48.207 42.8632 48.0975L39.6003 40.1519Z" fill="black"/>
<path d="M34.866 49.8427L35.2803 40.6475L33.0387 40.0796L31.3707 47.9967C31.3913 48 31.412 48.0028 31.4325 48.0067C32.5905 48.2359 33.6486 49.7693 34.866 49.8427Z" fill="black"/>
<path d="M29.2293 39.0864C29.2293 39.0864 26.2671 43.054 24.7185 45.1908C24.791 45.2268 24.8607 45.2663 24.9265 45.3104C25.9439 45.9915 26.3286 47.8883 27.4732 48.3629C27.5258 48.3846 27.5796 48.4021 27.6341 48.4175L31.7722 40.5848L29.2293 39.0864Z" fill="black"/>
<path d="M26.1896 35.8918L19.8721 40.234C19.8962 40.2653 19.9226 40.2954 19.9444 40.328C20.6307 41.3531 20.2646 43.2519 21.1337 44.121C21.2137 44.201 21.3048 44.2675 21.4008 44.3284C23.6331 41.812 27.6407 37.2958 27.7859 37.1389L26.1896 35.8918Z" fill="black"/>
<path d="M24.742 32.7917L17.2728 33.9981C17.3917 35.1961 16.4474 36.7095 16.8919 37.7812C16.9191 37.8468 16.9521 37.9091 16.9881 37.97C19.602 36.6686 25.0633 33.9614 25.2905 33.9465L24.742 32.7917Z" fill="black"/>
<path d="M24.3342 28.6313L17.2734 26.5936C17.2674 26.655 17.2596 26.7159 17.2477 26.7755C17.013 27.9621 15.4083 29.0435 15.4083 30.299C15.4083 30.3832 15.4161 30.4666 15.4296 30.5494H24.0483L24.3342 28.6313Z" fill="black"/>
<path d="M16.9204 22.7602C19.5588 24.1743 24.7187 27.0346 24.7187 27.0346L25.9885 24.6231L20.0239 20.1323C19.9984 20.1789 19.9736 20.2262 19.9443 20.2697C19.2749 21.2696 17.4338 21.6602 16.9204 22.7602Z" fill="black"/>
</g>
<path d="M54.5033 30.2988C54.5033 30.2988 54.5 30.2707 54.495 30.2153C54.4879 30.1601 54.4904 30.076 54.4601 29.9698C54.4187 29.7543 54.298 29.4448 54.0645 29.0848C53.8379 28.7201 53.4943 28.3132 53.136 27.7966C52.9614 27.537 52.7798 27.2438 52.6828 26.8919C52.586 26.5395 52.6045 26.1427 52.6804 25.7426C52.7532 25.3401 52.8732 24.9256 52.9782 24.486C53.0752 24.0486 53.1797 23.5709 53.0822 23.0848C53.0303 22.8447 52.9163 22.6156 52.7542 22.4167C52.5904 22.2185 52.3846 22.0519 52.1672 21.8957C51.729 21.5849 51.2257 21.3359 50.7435 21.0116C50.5038 20.8487 50.2657 20.6673 50.0699 20.4358C49.8721 20.2049 49.7439 19.917 49.6574 19.6192C49.4877 19.019 49.4503 18.3766 49.3214 17.7349C49.2556 17.4156 49.1668 17.091 48.9963 16.8033C48.8294 16.5132 48.5595 16.2888 48.2444 16.1528C47.93 16.0133 47.5844 15.9409 47.235 15.883C46.8846 15.8254 46.5265 15.7846 46.1664 15.7208C45.8079 15.6563 45.4403 15.5713 45.1083 15.3876C44.7744 15.2052 44.5134 14.9119 44.2947 14.5995C44.0756 14.2847 43.8872 13.9468 43.6866 13.6132C43.4856 13.2807 43.2744 12.9464 43.0004 12.6622C42.7268 12.3806 42.3618 12.178 41.9593 12.1516C41.5586 12.1218 41.1525 12.1985 40.7523 12.2934C40.351 12.3897 39.9494 12.507 39.5332 12.5851C39.1205 12.6656 38.6768 12.694 38.2584 12.5612C37.8463 12.4181 37.4829 12.1682 37.1321 11.9108C36.7807 11.6523 36.4374 11.3768 36.0609 11.1481C35.6864 10.9269 35.2589 10.7425 34.8142 10.7924L34.7317 10.7987C34.7045 10.8034 34.6776 10.8105 34.6505 10.8162C34.5966 10.829 34.5419 10.8389 34.4885 10.8539C34.384 10.8925 34.2767 10.9237 34.1769 10.9759C33.9719 11.067 33.781 11.1904 33.5917 11.3155C33.2158 11.5719 32.8614 11.8662 32.4763 12.1277C32.2858 12.2612 32.0819 12.3783 31.8689 12.479C31.6533 12.5761 31.4191 12.6347 31.1814 12.6527C30.7036 12.676 30.2338 12.5682 29.7734 12.452C29.3118 12.3364 28.85 12.2039 28.3738 12.1582C28.1362 12.1383 27.8955 12.1483 27.6651 12.2059C27.4329 12.2617 27.2269 12.3936 27.0443 12.5469C26.6802 12.8647 26.4257 13.2921 26.1727 13.7124C25.9203 14.135 25.6806 14.5758 25.3453 14.9552C25.1762 15.1414 24.9806 15.3113 24.7514 15.4263C24.5224 15.5387 24.2782 15.614 24.0311 15.6723C23.5349 15.7812 23.028 15.8278 22.5285 15.9182C22.0346 16.008 21.5206 16.1484 21.1543 16.5034C20.9781 16.6844 20.8546 16.9109 20.7641 17.1489C20.6716 17.3873 20.6185 17.6408 20.5716 17.8949C20.4791 18.4042 20.4365 18.9272 20.313 19.4413C20.2543 19.6983 20.166 19.9528 20.0322 20.185C19.898 20.4171 19.7122 20.6184 19.5031 20.7836C19.086 21.1189 18.6116 21.3671 18.1584 21.6445C17.9324 21.7843 17.7092 21.9298 17.5038 22.0978C17.3016 22.2682 17.1179 22.4638 16.9919 22.6948C16.8643 22.9245 16.8059 23.1896 16.8081 23.4556C16.8071 23.7217 16.847 23.9882 16.9007 24.252C17.0124 24.7797 17.1799 25.2993 17.2693 25.8419C17.3159 26.1121 17.3326 26.3916 17.2965 26.6678C17.2609 26.9448 17.1539 27.2082 17.0207 27.4504C16.7457 27.9329 16.3867 28.3558 16.0685 28.805C15.9077 29.0285 15.7593 29.2614 15.6428 29.5093C15.527 29.7564 15.445 30.0228 15.443 30.2958C15.4448 30.5688 15.5249 30.8355 15.6402 31.083C15.756 31.3315 15.9048 31.5643 16.0653 31.7881C16.3833 32.2377 16.7428 32.6603 17.0182 33.1428C17.1518 33.3849 17.2595 33.6478 17.2961 33.925C17.3331 34.2012 17.3166 34.481 17.2701 34.7513C17.1813 35.2941 17.0134 35.8141 16.9018 36.3418C16.848 36.6057 16.8077 36.8722 16.8081 37.1384C16.8051 37.4045 16.8639 37.6696 16.9905 37.8998C17.1157 38.1312 17.2994 38.3272 17.5014 38.4979C17.707 38.6658 17.9298 38.8118 18.1559 38.9516C18.6093 39.2292 19.0837 39.4775 19.5012 39.8123C19.7102 39.9777 19.8966 40.1785 20.0311 40.4104C20.1655 40.6425 20.2536 40.8971 20.3127 41.154C20.4365 41.6681 20.479 42.1914 20.5714 42.7006C20.6181 42.9549 20.6713 43.2084 20.7637 43.447C20.8542 43.685 20.977 43.912 21.1535 44.093C21.5194 44.4486 22.0335 44.5892 22.5275 44.679C23.0271 44.7696 23.5341 44.8162 24.0304 44.925C24.2777 44.9832 24.5217 45.0584 24.7509 45.1707C24.98 45.2859 25.1758 45.4556 25.345 45.6419C25.6804 46.0212 25.9201 46.4621 26.1727 46.8848C26.4258 47.3051 26.6803 47.7326 27.0444 48.0505C27.2271 48.2038 27.433 48.3357 27.6653 48.3917C27.8958 48.4492 28.1366 48.4593 28.3742 48.4393C28.8504 48.3935 29.3123 48.261 29.7739 48.1454C30.2344 48.0292 30.7042 47.9214 31.1822 47.9449C31.4199 47.9629 31.6541 48.0217 31.8696 48.1188C32.0827 48.2197 32.2866 48.3368 32.4771 48.4702C32.8622 48.7318 33.2166 49.0262 33.5926 49.2825C33.7819 49.4077 33.9728 49.5311 34.1779 49.622C34.2777 49.6743 34.3852 49.7055 34.4897 49.744C34.5432 49.7589 34.5978 49.769 34.6517 49.7818C34.6787 49.7874 34.7057 49.7947 34.7329 49.7992L34.8154 49.8055C35.2602 49.8553 35.6876 49.6704 36.0621 49.4493C36.4386 49.2204 36.7819 48.945 37.1333 48.6863C37.4843 48.429 37.8475 48.1789 38.2599 48.0362C38.6783 47.9035 39.122 47.9323 39.5348 48.013C39.951 48.0911 40.3526 48.2085 40.7539 48.3048C41.1543 48.3996 41.5603 48.4762 41.961 48.4462C42.3634 48.4191 42.7284 48.2165 43.0017 47.9346C43.2756 47.6502 43.4868 47.3157 43.6876 46.9832C43.8882 46.6497 44.0766 46.3119 44.2957 45.9969C44.5147 45.6848 44.7758 45.3916 45.11 45.2094C45.4422 45.0259 45.8099 44.9413 46.1683 44.8769C46.5284 44.813 46.8865 44.7722 47.2368 44.7147C47.5862 44.6566 47.9318 44.5843 48.2461 44.4445C48.561 44.3083 48.8309 44.0835 48.9974 43.7932C49.1677 43.5053 49.2564 43.1809 49.322 42.8614C49.4509 42.2198 49.4882 41.5772 49.6582 40.9772C49.7446 40.6794 49.8731 40.3917 50.0713 40.161C50.2672 39.9296 50.5053 39.7483 50.7451 39.5856C51.2274 39.2614 51.7306 39.0123 52.1686 38.7014C52.386 38.5453 52.5915 38.3784 52.7553 38.1803C52.9173 37.9812 53.0311 37.7521 53.0827 37.512C53.1389 37.2717 53.1244 37.0266 53.1029 36.7927C53.0797 36.5574 53.027 36.3314 52.9783 36.1109C52.8732 35.6714 52.7534 35.2569 52.6805 34.8546C52.6047 34.4545 52.5865 34.0577 52.6833 33.7054C52.7804 33.3536 52.9621 33.0604 53.1367 32.8008C53.4949 32.2844 53.8385 31.8776 54.0651 31.5128C54.2986 31.1529 54.4192 30.8435 54.4605 30.628C54.4907 30.5218 54.4882 30.4377 54.4952 30.3827C54.5 30.327 54.5033 30.2988 54.5033 30.2988C54.5033 30.2988 54.5022 30.327 54.4985 30.3825C54.4926 30.4378 54.4963 30.5223 54.4671 30.6292C54.4279 30.846 54.3087 31.1579 54.0765 31.52C53.8512 31.8868 53.5088 32.2959 53.1533 32.812C52.9801 33.0714 52.8005 33.3637 52.7058 33.7112C52.6115 34.0589 52.6301 34.4513 52.7066 34.8495C52.7802 35.2499 52.9008 35.6635 53.0071 36.1038C53.0563 36.3249 53.1096 36.5515 53.1338 36.789C53.156 37.025 53.1714 37.2729 53.1147 37.5184C53.0625 37.7637 52.9462 37.9989 52.7816 38.2017C52.6153 38.4036 52.4077 38.5726 52.1889 38.7302C51.7485 39.0438 51.245 39.294 50.7662 39.6171C50.5282 39.7792 50.293 39.9591 50.1015 40.1862C49.9081 40.412 49.7827 40.6934 49.6976 40.9883C49.5299 41.5822 49.4932 42.2238 49.3647 42.8699C49.2989 43.1915 49.21 43.5205 49.0359 43.8159C48.8657 44.114 48.5857 44.3476 48.2647 44.4865C47.9441 44.6294 47.5952 44.7025 47.2443 44.7613C46.8926 44.8196 46.5346 44.8608 46.1767 44.9247C45.8203 44.989 45.4572 45.0737 45.1339 45.253C44.8095 45.4301 44.5542 45.7163 44.3373 46.0261C44.1204 46.3382 43.9327 46.6753 43.732 47.0099C43.5308 47.3436 43.3185 47.6811 43.0394 47.9717C42.7619 48.2599 42.3798 48.4725 41.9657 48.5C41.5541 48.5312 41.1433 48.4532 40.741 48.3584C40.338 48.2619 39.9367 48.1452 39.5245 48.0681C39.1149 47.9884 38.6819 47.962 38.2776 48.0905C37.8767 48.2295 37.517 48.4762 37.1676 48.733C36.8174 48.9911 36.4734 49.2676 36.0923 49.4997C35.9941 49.5527 35.9004 49.6143 35.7968 49.6585C35.7457 49.6817 35.6955 49.7075 35.6435 49.7288L35.4838 49.7855C35.2686 49.8508 35.0384 49.8948 34.8098 49.8649L34.724 49.8582C34.6958 49.8537 34.668 49.8462 34.6401 49.8404C34.5844 49.8273 34.5277 49.8169 34.4726 49.8014C34.3652 49.7621 34.2545 49.7298 34.1527 49.6767C33.943 49.5836 33.7499 49.4588 33.5586 49.3326C33.1795 49.0744 32.8244 48.7799 32.4427 48.5209C32.2536 48.3885 32.0529 48.2737 31.8444 48.1751C31.6338 48.0804 31.409 48.0245 31.1781 48.0068C30.7135 47.9841 30.2484 48.0899 29.7891 48.2062C29.3286 48.3216 28.8647 48.4556 28.3794 48.5024C28.1371 48.5228 27.8889 48.5131 27.6487 48.4532C27.4061 48.3947 27.1906 48.2572 27.0024 48.0989C26.6271 47.771 26.3713 47.339 26.117 46.9178C25.8642 46.4946 25.6247 46.0562 25.2964 45.6854C25.1307 45.5033 24.9424 45.3404 24.7211 45.2291C24.4989 45.1203 24.2596 45.0464 24.0158 44.989C23.5254 44.8815 23.0192 44.8349 22.5153 44.744C22.2643 44.6954 22.0108 44.6435 21.769 44.5478C21.5277 44.4545 21.2949 44.3252 21.106 44.1397C20.9209 43.95 20.7938 43.7143 20.7009 43.4703C20.6062 43.2256 20.5525 42.9687 20.5052 42.7124C20.412 42.199 20.3693 41.6767 20.2469 41.1697C20.1887 40.9161 20.1021 40.6678 19.9725 40.4442C19.8429 40.2209 19.6637 40.0271 19.4582 39.8645C19.0486 39.5358 18.5759 39.2879 18.1201 39.0093C17.8926 38.8685 17.6672 38.7212 17.4576 38.55C17.2513 38.3758 17.0612 38.1738 16.9302 37.9319C16.7975 37.6911 16.7365 37.4121 16.7395 37.1389C16.739 36.865 16.7803 36.594 16.8346 36.3275C16.9474 35.7952 17.1148 35.2758 17.2022 34.7404C17.2481 34.4736 17.2636 34.2006 17.2279 33.9342C17.1928 33.6676 17.0893 33.414 16.9581 33.176C16.6878 32.702 16.3296 32.2802 16.0092 31.8275C15.8476 31.6023 15.6966 31.3662 15.5779 31.1118C15.4598 30.8584 15.376 30.5817 15.3743 30.2955C15.3764 30.0092 15.4619 29.7331 15.5805 29.4802C15.6998 29.2263 15.8505 28.9902 16.0124 28.7653C16.333 28.3132 16.6907 27.8912 16.9606 27.417C17.0915 27.1789 17.1943 26.9252 17.2285 26.6585C17.2633 26.3923 17.2476 26.1193 17.2015 25.8527C17.1136 25.3176 16.9464 24.7983 16.8338 24.266C16.7797 23.9995 16.7388 23.7285 16.7398 23.4548C16.7374 23.1818 16.7982 22.9026 16.9319 22.6624C17.0636 22.4209 17.2539 22.2192 17.4604 22.0454C17.6699 21.8741 17.8955 21.7272 18.1229 21.5866C18.5784 21.3079 19.0511 21.0602 19.4603 20.7312C19.6659 20.5687 19.8446 20.3745 19.9738 20.1511C20.1029 19.9272 20.1896 19.679 20.2476 19.4255C20.3695 18.9186 20.4124 18.3964 20.5056 17.8832C20.553 17.627 20.6067 17.3701 20.7015 17.1255C20.7945 16.8816 20.9221 16.6462 21.107 16.4565C21.2962 16.2713 21.5292 16.1424 21.7705 16.0492C22.0123 15.9537 22.2656 15.9017 22.5167 15.8533C23.0204 15.7623 23.5263 15.7159 24.0167 15.6083C24.2605 15.5509 24.4997 15.477 24.7217 15.3681C24.9431 15.2569 25.131 15.0938 25.2968 14.9117C25.625 14.5411 25.8644 14.1027 26.1171 13.6795C26.3713 13.2583 26.6273 12.8264 27.0024 12.4986C27.1906 12.3405 27.4061 12.203 27.6487 12.1445C27.8888 12.0846 28.137 12.0749 28.3793 12.0952C28.8644 12.1421 29.3284 12.2761 29.7887 12.3915C30.248 12.5077 30.7129 12.6136 31.1776 12.591C31.4083 12.5733 31.6331 12.5175 31.8438 12.4229C32.0521 12.3244 32.2528 12.2096 32.442 12.0772C32.8237 11.8182 33.1787 11.5238 33.5578 11.2656C33.7489 11.1393 33.942 11.0146 34.1518 10.9215C34.2536 10.8684 34.3642 10.836 34.4715 10.7966C34.5265 10.7811 34.5832 10.7708 34.6389 10.7576C34.6669 10.7516 34.6947 10.7444 34.7228 10.7396L34.8086 10.7329C35.0373 10.7029 35.2675 10.7469 35.4826 10.8119L35.6423 10.8686C35.6945 10.8898 35.7445 10.9156 35.7957 10.9388C35.8993 10.983 35.9932 11.0444 36.0913 11.0975C36.4725 11.3294 36.8163 11.6059 37.1665 11.864C37.5158 12.121 37.8755 12.3676 38.2763 12.5068C38.6804 12.6354 39.1134 12.6094 39.523 12.5297C39.9352 12.4526 40.3365 12.336 40.7395 12.2394C41.1417 12.1446 41.5525 12.0665 41.9641 12.0974C42.3782 12.1242 42.7603 12.3368 43.0382 12.6246C43.3175 12.915 43.5299 13.2525 43.731 13.5862C43.9318 13.9208 44.1195 14.2579 44.3363 14.57C44.5529 14.8799 44.8082 15.1662 45.1323 15.3436C45.4555 15.523 45.8186 15.6082 46.1749 15.6724C46.5327 15.7363 46.8909 15.7775 47.2425 15.8357C47.5934 15.8945 47.9422 15.9675 48.263 16.1102C48.584 16.2488 48.8644 16.4821 49.0348 16.7799C49.2092 17.0752 49.2983 17.4042 49.364 17.7257C49.4928 18.3717 49.5294 19.0132 49.6968 19.6074C49.782 19.9023 49.9072 20.1838 50.1003 20.4098C50.2918 20.637 50.5269 20.817 50.7648 20.9792C51.2434 21.3025 51.747 21.5525 52.1875 21.8661C52.4062 22.0238 52.614 22.1925 52.7803 22.3945C52.945 22.5972 53.0616 22.8323 53.1139 23.0775C53.1709 23.323 53.1554 23.5711 53.1334 23.8071C53.1094 24.0445 53.0562 24.2713 53.0068 24.4923C52.9005 24.9328 52.7799 25.3463 52.7064 25.7467C52.6298 26.1449 52.6109 26.5374 52.7053 26.8852C52.8 27.2327 52.9795 27.5251 53.1527 27.7846C53.5081 28.3009 53.8507 28.71 54.076 29.0769C54.3082 29.439 54.4275 29.751 54.4667 29.9678C54.4959 30.0747 54.4922 30.1592 54.4981 30.2145C54.5024 30.2707 54.5033 30.2988 54.5033 30.2988Z" fill="#263238"/>
<path d="M31.2895 48.4384C31.3078 48.443 30.8206 50.4185 30.2013 52.8501C29.5818 55.2824 29.0647 57.2499 29.0464 57.2451C29.0281 57.2404 29.5151 55.2654 30.1346 52.833C30.754 50.4016 31.2711 48.4337 31.2895 48.4384Z" fill="#263238"/>
<path d="M34.9558 42.2813C41.5735 42.2813 46.9383 36.9166 46.9383 30.2988C46.9383 23.6811 41.5735 18.3164 34.9558 18.3164C28.3381 18.3164 22.9734 23.6811 22.9734 30.2988C22.9734 36.9166 28.3381 42.2813 34.9558 42.2813Z" fill="white"/>
<path d="M27.5777 26.1469C27.4124 26.3122 26.5037 27.9643 26.4211 29.3273C26.3385 30.6904 26.5343 38.3453 26.5343 38.3453L26.5697 38.8526C28.727 41.3752 36.5673 45.1291 43.6297 38.8399L44.0254 34.1317L42.8601 24.1644L38.8123 23.1731L37.8631 21.6346L31.537 23.1157L30.9728 24.4495L27.5777 26.1469Z" fill="#019EE2"/>
<path d="M37.4243 17.6267C37.7029 16.5912 37.9769 15.5483 38.0733 14.4803C38.1695 13.4123 38.0804 12.3087 37.6556 11.3241C37.5912 11.1749 37.0565 10.1789 36.8957 10.2031C36.7807 10.2205 37.1268 11.1574 37.0736 11.2608C36.5657 12.2464 36.4736 13.4051 36.6194 14.5042C36.7653 15.6035 37.046 16.5846 37.4243 17.6267Z" fill="#263238"/>
<path d="M37.3194 13.5355C37.2684 10.8467 35.661 8.6353 32.9747 8.76083L32.727 8.78684C30.2355 9.04952 28.3624 11.1807 28.424 13.6854C28.4811 16.0156 28.5743 18.5896 28.7203 19.8276C29.0224 22.3904 31.6313 22.5189 31.6313 22.5189C31.6371 22.5187 31.7509 24.2044 31.7509 24.2044L32.8534 25.4021L37.9632 22.2371L37.3194 13.5355Z" fill="#FFBF9D"/>
<path d="M31.6313 22.5387C31.6313 22.5387 33.2589 22.463 34.8685 21.1986C34.8685 21.1986 34.3294 23.5231 31.7443 23.5619L31.6313 22.5387Z" fill="#FF9A6C"/>
<path d="M29.9001 15.7757C29.9136 15.9699 30.0894 16.1186 30.2924 16.1082C30.4952 16.0978 30.649 15.9323 30.6354 15.738C30.6218 15.5438 30.4462 15.3948 30.2435 15.4052C30.0403 15.4156 29.8865 15.5815 29.9001 15.7757Z" fill="#263238"/>
<path d="M29.0848 14.6927C29.1352 14.7357 29.3911 14.5009 29.7857 14.4604C30.179 14.4142 30.4899 14.5866 30.5276 14.5338C30.5464 14.5103 30.4909 14.4288 30.3554 14.3503C30.2217 14.272 30.0007 14.2055 29.7552 14.2324C29.5098 14.2597 29.3126 14.3718 29.2036 14.477C29.092 14.5829 29.0601 14.6737 29.0848 14.6927Z" fill="#263238"/>
<path d="M33.384 15.4798C33.3976 15.674 33.5733 15.8227 33.7764 15.8123C33.9792 15.8019 34.133 15.6363 34.1194 15.442C34.1058 15.2479 33.9301 15.099 33.7273 15.1093C33.5242 15.1198 33.3705 15.2856 33.384 15.4798Z" fill="#263238"/>
<path d="M32.9644 14.445C33.0149 14.4879 33.2713 14.2532 33.6655 14.2127C34.0589 14.1666 34.3698 14.3389 34.4075 14.2861C34.4261 14.2625 34.3713 14.1811 34.2351 14.1027C34.1015 14.0243 33.8804 13.9578 33.6349 13.9847C33.3894 14.0121 33.1923 14.1243 33.0833 14.2293C32.9721 14.3352 32.9399 14.426 32.9644 14.445Z" fill="#263238"/>
<path d="M31.8692 17.6244C31.8686 17.6019 31.619 17.5852 31.2164 17.5764C31.1146 17.5767 31.0172 17.5666 30.9929 17.4997C30.9615 17.4295 30.9923 17.3165 31.0287 17.1941C31.0977 16.9405 31.17 16.6746 31.2456 16.3959C31.5442 15.2606 31.7489 14.3313 31.7031 14.3197C31.6572 14.3081 31.3781 15.2189 31.0797 16.3542C31.0085 16.6339 30.9404 16.9006 30.8757 17.1557C30.8497 17.2741 30.7978 17.4109 30.8652 17.5565C30.9001 17.6289 30.9799 17.6757 31.0463 17.6864C31.1129 17.6992 31.1697 17.6944 31.2198 17.692C31.6219 17.6713 31.8701 17.647 31.8692 17.6244Z" fill="#263238"/>
<path d="M33.0586 17.7749C32.9941 17.7779 33.0383 18.2061 32.7039 18.5485C32.3704 18.8919 31.909 18.8919 31.9119 18.9521C31.9089 18.9795 32.0223 19.0245 32.2155 19.0095C32.4051 18.996 32.6746 18.9061 32.8792 18.6968C33.083 18.4868 33.153 18.2282 33.149 18.051C33.1465 17.8703 33.0875 17.7693 33.0586 17.7749Z" fill="#263238"/>
<path d="M32.8174 12.8424C32.8676 12.9457 33.2561 12.8533 33.7245 12.8603C34.1933 12.8579 34.5807 12.954 34.6319 12.8514C34.6543 12.8026 34.5787 12.7085 34.4169 12.6205C34.2565 12.5326 34.0075 12.4592 33.7264 12.4577C33.4455 12.4566 33.1957 12.5275 33.0344 12.6138C32.872 12.7 32.7954 12.7933 32.8174 12.8424Z" fill="#263238"/>
<path d="M29.1094 13.3645C29.1882 13.4468 29.4501 13.3252 29.7763 13.2864C30.101 13.2362 30.3859 13.283 30.4397 13.1825C30.4628 13.1342 30.4098 13.0491 30.28 12.977C30.152 12.9051 29.9454 12.857 29.7216 12.8875C29.4979 12.9183 29.312 13.0199 29.208 13.1238C29.1024 13.2278 29.0743 13.324 29.1094 13.3645Z" fill="#263238"/>
<path d="M37.3102 15.4579C37.3519 15.4344 39.0185 14.7505 39.1474 16.5108C39.2762 18.2712 37.4823 18.0374 37.4756 17.9872C37.4688 17.937 37.3102 15.4579 37.3102 15.4579Z" fill="#FFBF9D"/>
<path d="M37.9645 17.281C37.9718 17.2748 37.9968 17.3001 38.0503 17.3201C38.1026 17.3396 38.1906 17.3491 38.2798 17.3081C38.4608 17.2262 38.5959 16.9196 38.5811 16.6016C38.5738 16.4411 38.5291 16.291 38.4631 16.1689C38.3998 16.044 38.3099 15.9602 38.2152 15.9503C38.1204 15.9356 38.0582 15.9965 38.0404 16.0476C38.0205 16.0985 38.0342 16.1329 38.025 16.1366C38.0203 16.1413 37.9851 16.1099 37.9938 16.0361C37.9986 16.0006 38.0161 15.9576 38.055 15.9207C38.0948 15.8834 38.1556 15.8612 38.2214 15.8636C38.3579 15.863 38.4892 15.9789 38.5617 16.1131C38.6418 16.2473 38.6958 16.4156 38.704 16.596C38.7186 16.9515 38.5613 17.2968 38.3122 17.389C38.1907 17.4304 38.0847 17.4006 38.0284 17.363C37.9707 17.3232 37.9586 17.2846 37.9645 17.281Z" fill="#FF9A6C"/>
<path d="M29.3756 10.694C29.0805 10.5551 29.8766 9.57684 30.5566 9.21384C31.5845 8.66525 33.1822 8.26542 34.1763 8.47953C35.3731 8.73706 36.3872 9.25912 37.0462 10.2908C37.7051 11.3225 38.0071 12.5548 38.0515 13.7781C38.0649 14.1514 38.0513 14.5424 37.8726 14.8703C37.6516 15.2755 37.1953 15.5513 37.2506 16.0871C37.2708 16.283 37.2275 16.4847 37.1023 16.6366C36.8021 17.0003 36.3871 16.7034 36.185 16.3921C35.7533 15.7271 35.6572 14.9062 35.5724 14.118C35.5119 13.5578 35.4523 12.9855 35.5759 12.4357C35.6431 12.1366 35.7638 11.8503 35.8143 11.5479C35.8649 11.2455 35.8341 10.9079 35.633 10.6765C35.6002 10.6389 35.5472 10.5922 35.4805 10.541C34.9536 10.1359 34.2468 10.0499 33.6358 10.3114C32.6665 10.7262 31.0064 11.3594 30.5422 11.0511C29.8746 10.6079 29.7021 10.3019 29.7021 10.3019L29.3756 10.694Z" fill="#263238"/>
<path d="M27.5778 26.147C27.4757 26.2882 26.0328 26.7671 25.4856 27.679C24.9383 28.5908 24.3967 32.6856 24.3967 32.6856L24.0483 35.3812C24.7347 36.467 25.6553 37.9045 26.6322 38.9184L27.5778 26.147Z" fill="#019EE2"/>
<g opacity="0.3">
<path d="M38.4182 30.1003C38.4789 30.6497 38.541 31.2052 38.73 31.7246C38.919 32.244 39.2503 32.7319 39.734 32.9993C39.9366 33.1114 40.1651 33.1853 40.3346 33.3429C40.5167 33.5123 40.6085 33.7579 40.7734 33.9442C40.9652 34.1608 41.2413 34.2814 41.514 34.3779C42.3211 34.6637 43.1161 34.8002 43.9718 34.7694C43.9977 34.487 43.9996 33.4492 44.0254 33.1667L38.4182 30.1003Z" fill="black"/>
</g>
<path d="M42.8604 24.1644C42.8604 24.1644 44.6797 24.7025 45.2125 25.4774C45.7454 26.2525 46.69 29.2561 46.8837 29.8131C47.0775 30.3701 46.908 31.6619 46.5446 32.5905C46.1814 33.519 45.5508 34.3184 44.4613 34.4394C43.3716 34.5605 41.6507 33.9307 41.2637 33.519C40.8768 33.1072 40.7147 32.183 40.7147 32.183C41.1985 32.098 41.6762 31.9782 42.1428 31.8248" fill="#019EE2"/>
<path d="M42.143 31.8247C42.1432 31.8255 42.1356 31.8288 42.1203 31.8346C42.1022 31.8411 42.0799 31.8492 42.0516 31.8593C41.9906 31.8802 41.8997 31.9104 41.7797 31.9466C41.5397 32.0185 41.1832 32.1159 40.718 32.2007L40.7327 32.1798C40.7735 32.3856 40.8322 32.6115 40.9184 32.8473C40.9617 32.9651 41.0116 33.0861 41.0759 33.2043C41.1403 33.3216 41.2155 33.4409 41.3197 33.5361C41.424 33.6309 41.5528 33.708 41.6877 33.7787C41.8219 33.8516 41.9666 33.9143 42.1158 33.9754C42.4151 34.0961 42.7389 34.1999 43.0823 34.2814C43.4256 34.3608 43.7903 34.4197 44.1678 34.4209C44.2623 34.4251 44.3566 34.4125 44.452 34.4077C44.5461 34.3921 44.6425 34.3836 44.7357 34.357C44.9245 34.3143 45.1098 34.2438 45.2823 34.145C45.6305 33.9516 45.9255 33.6516 46.1494 33.2985C46.3763 32.9462 46.5422 32.5464 46.6647 32.1286C46.7597 31.8077 46.8295 31.4832 46.8749 31.1606C46.921 30.8383 46.9435 30.5162 46.9223 30.2034C46.9101 30.0458 46.881 29.8981 46.8278 29.7515C46.7787 29.6037 46.7301 29.4573 46.6819 29.3124C46.5851 29.023 46.4905 28.7398 46.3981 28.4634C46.2108 27.9116 46.026 27.3895 45.8408 26.906C45.6522 26.4249 45.4762 25.9722 45.2558 25.5945C45.1482 25.4045 45.0009 25.2555 44.845 25.1348C44.692 25.0108 44.5332 24.9119 44.3823 24.8246C44.0789 24.6521 43.803 24.5297 43.5761 24.4347C43.3486 24.3405 43.169 24.2747 43.0466 24.2314C42.988 24.2108 42.9419 24.1946 42.9074 24.1825C42.8761 24.1714 42.86 24.1654 42.8604 24.1642C42.8606 24.1632 42.8774 24.1668 42.9095 24.1757C42.9446 24.1863 42.9914 24.2004 43.051 24.2182C43.1749 24.2573 43.3564 24.3191 43.586 24.4099C43.8151 24.5014 44.0937 24.6206 44.4012 24.7911C44.5542 24.8774 44.7154 24.9756 44.8722 25.1005C45.0307 25.2206 45.186 25.3755 45.2974 25.5691C45.5244 25.9522 45.7023 26.4034 45.894 26.8853C46.082 27.3691 46.269 27.8911 46.458 28.4428C46.5512 28.719 46.6467 29.0023 46.7442 29.2915C46.7925 29.4362 46.8414 29.5823 46.8907 29.7299C46.9446 29.8763 46.9776 30.0389 46.9893 30.198C47.0115 30.5186 46.9888 30.8442 46.9425 31.1701C46.8968 31.4963 46.8266 31.8237 46.7306 32.1481C46.6068 32.5705 46.4385 32.9762 46.2067 33.3355C45.9781 33.6954 45.6745 34.0042 45.3148 34.203C45.1366 34.3045 44.945 34.3768 44.7507 34.4204C44.6545 34.4473 44.5556 34.4561 44.4589 34.4717C44.3611 34.4765 44.2641 34.489 44.1678 34.4845C43.7828 34.4822 43.4146 34.421 43.0684 34.3396C42.7222 34.256 42.3965 34.1498 42.0949 34.0265C41.9446 33.9639 41.7988 33.8998 41.6629 33.8251C41.5263 33.7521 41.396 33.6737 41.2857 33.5724C41.1761 33.4705 41.0999 33.3468 41.0348 33.2263C40.97 33.1049 40.9206 32.9818 40.8777 32.8623C40.7926 32.6225 40.736 32.3954 40.697 32.1863L40.6937 32.1685L40.7117 32.1654C41.1762 32.0861 41.5331 31.9945 41.7743 31.9285C41.8918 31.895 41.983 31.8689 42.0486 31.8503C42.0774 31.842 42.1002 31.8356 42.1187 31.8303C42.1346 31.8258 42.1427 31.8239 42.143 31.8247Z" fill="#263238"/>
<path d="M45.4804 30.8521C45.4669 30.8553 45.4256 30.6281 45.2728 30.2931C45.1236 29.9584 44.8554 29.5162 44.4519 29.1276C44.251 28.9324 44.0276 28.784 43.8139 28.6734C43.759 28.6489 43.7054 28.6249 43.6531 28.6015C43.6011 28.5775 43.5462 28.5674 43.4954 28.5503C43.394 28.5132 43.2942 28.5043 43.2041 28.4901C43.1816 28.4866 43.1596 28.4832 43.1379 28.4799C43.1164 28.48 43.0953 28.48 43.0746 28.48C43.0341 28.48 42.9952 28.48 42.9583 28.4802C42.885 28.4757 42.8235 28.489 42.7727 28.4963C42.6711 28.5111 42.6136 28.5173 42.6124 28.5127C42.6113 28.508 42.6663 28.4931 42.7682 28.4699C42.8192 28.4584 42.8815 28.441 42.9562 28.4418C42.9941 28.4401 43.0338 28.4382 43.0754 28.4364C43.0966 28.4356 43.1184 28.4346 43.1406 28.4337C43.1629 28.4364 43.1856 28.4389 43.2088 28.4416C43.302 28.453 43.4055 28.4597 43.5108 28.4954C43.5635 28.5117 43.6208 28.5214 43.6746 28.545C43.7289 28.5682 43.7846 28.592 43.8416 28.6164C44.0634 28.7269 44.2941 28.8783 44.4993 29.0777C44.9116 29.4749 45.1775 29.9293 45.3174 30.2735C45.3533 30.3596 45.3843 30.438 45.4041 30.5095C45.4258 30.5804 45.4465 30.6406 45.4548 30.6924C45.4758 30.7947 45.485 30.8512 45.4804 30.8521Z" fill="#263238"/>
<path d="M46.473 29.22C46.4581 29.2258 46.4086 28.9862 46.1987 28.666C45.9932 28.3511 45.6001 27.9559 45.0394 27.7884C44.4809 27.6184 43.9387 27.6709 43.5602 27.7072C43.38 27.7288 43.2285 27.747 43.1078 27.7614C43.0009 27.7744 42.9414 27.7798 42.9406 27.7751C42.9398 27.7705 42.9978 27.7562 43.1036 27.735C43.2093 27.714 43.363 27.6857 43.5542 27.6591C43.9331 27.6106 44.483 27.5479 45.0597 27.7228C45.3456 27.8098 45.5968 27.9562 45.7932 28.1236C45.992 28.2894 46.1367 28.4751 46.2396 28.6399C46.3423 28.8057 46.4011 28.9532 46.4337 29.0565C46.4669 29.1596 46.4764 29.2192 46.473 29.22Z" fill="#263238"/>
<path d="M45.1013 27.267C45.0966 27.2894 44.6223 27.1367 44.02 27.1635C43.4172 27.1839 42.9566 27.3735 42.95 27.3514C42.947 27.344 43.0572 27.2873 43.2479 27.2266C43.4382 27.1656 43.7111 27.1072 44.0172 27.0947C44.3233 27.0831 44.5999 27.1199 44.7945 27.1657C44.9894 27.2114 45.1039 27.2594 45.1013 27.267Z" fill="#263238"/>
<path d="M42.1579 24.6184C42.1687 24.6201 42.1424 24.804 42.1212 25.1021C42.0999 25.4 42.09 25.8135 42.1309 26.2671C42.1683 26.7034 42.2472 27.0943 42.3169 27.3788L42.2693 27.3941C42.2153 27.2415 42.1728 27.1177 42.1449 27.0315C42.1171 26.9453 42.1039 26.8967 42.1085 26.895C42.1131 26.8933 42.1352 26.9385 42.1709 27.0217C42.2067 27.105 42.2563 27.2262 42.3161 27.3766L42.2685 27.3919C42.1869 27.1083 42.1 26.7142 42.0624 26.2733C42.0211 25.8149 42.0389 25.3968 42.0727 25.0978C42.0894 24.9483 42.1089 24.8279 42.1251 24.7454C42.1418 24.6628 42.1532 24.6176 42.1579 24.6184Z" fill="#263238"/>
<path d="M39.5858 21.2317C39.5858 21.2317 38.6415 21.2317 38.5231 22.3665C38.4321 23.2376 38.5231 24.0833 38.5231 24.4648C38.5231 24.8462 38.355 26.2028 38.355 26.2028C38.355 26.2028 37.7107 26.7744 37.7217 27.4609C37.7327 28.1507 38.2233 28.3617 38.2233 28.3617C38.2233 28.3617 37.9235 29.0157 38.4957 29.6151C38.4957 29.6151 38.2213 30.248 38.4469 30.674C38.6215 31.0039 39.0134 31.114 39.0134 31.114C39.0134 31.114 38.7343 31.7376 39.4043 31.9997C39.8003 32.1547 40.3857 32.1202 40.3857 32.1202L41.0903 32.1066L41.7114 32.4493C41.7114 32.4493 42.7741 31.986 42.8015 31.3593C42.8286 30.7325 42.8286 30.7325 42.8286 30.7325C42.8286 30.7325 42.5289 29.697 42.5017 29.37C42.4745 29.0431 42.7469 28.2528 42.5834 27.8985C42.4198 27.5442 41.8476 27.336 41.9021 26.8406C41.9567 26.3452 41.8476 26.0727 41.6024 25.8002C41.3571 25.5278 40.2731 24.9827 40.2731 24.9827C40.2731 24.9827 39.9945 24.1925 39.9945 23.6474C39.9946 23.1023 40.5396 21.44 39.5858 21.2317Z" fill="#FFBF9D"/>
<path d="M40.222 25.1891C40.2268 25.1973 40.1264 25.2616 39.9606 25.3588C39.7947 25.4559 39.5632 25.5859 39.3054 25.726C39.0475 25.866 38.8121 25.9895 38.6402 26.0757C38.4684 26.1618 38.3596 26.2111 38.3551 26.2028C38.3506 26.1945 38.451 26.1302 38.6169 26.033C38.7828 25.9359 39.0142 25.8058 39.272 25.6659C39.5297 25.526 39.7648 25.4027 39.9367 25.3164C40.1085 25.2302 40.2172 25.1808 40.222 25.1891Z" fill="#FF9A6C"/>
<path d="M40.8419 27.3229C40.8446 27.3267 40.8152 27.3527 40.7595 27.3967C40.704 27.441 40.6202 27.5004 40.5137 27.5695C40.3009 27.7078 39.9912 27.8769 39.6288 28.0161C39.2659 28.1546 38.9223 28.2355 38.6716 28.2747C38.5462 28.2945 38.4442 28.3063 38.3733 28.3102C38.3026 28.3149 38.2632 28.3151 38.2627 28.3104C38.2615 28.2994 38.4165 28.2783 38.6628 28.2269C38.9091 28.176 39.246 28.0887 39.6042 27.952C39.9621 27.8146 40.2711 27.6546 40.4885 27.528C40.7059 27.4017 40.8354 27.314 40.8419 27.3229Z" fill="#FF9A6C"/>
<path d="M41.6525 26.6442C41.6697 26.6501 41.6343 26.7713 41.5223 26.8724C41.4112 26.9744 41.2873 26.9983 41.2829 26.9808C41.2763 26.962 41.3773 26.9129 41.476 26.8216C41.5761 26.732 41.6344 26.6359 41.6525 26.6442Z" fill="#FF9A6C"/>
<path d="M41.2638 29.1919C41.2665 29.2 41.1174 29.2606 40.8687 29.3365C40.6201 29.4125 40.2709 29.5 39.8788 29.5634C39.4865 29.6262 39.1273 29.6526 38.8676 29.6584C38.6077 29.6644 38.447 29.6537 38.447 29.6451C38.447 29.6347 38.6073 29.6282 38.8652 29.6099C39.1231 29.5918 39.4786 29.5578 39.8679 29.4955C40.2569 29.4327 40.6051 29.3534 40.8556 29.2896C41.1063 29.2261 41.2605 29.182 41.2638 29.1919Z" fill="#FF9A6C"/>
<path d="M42.1262 29.0349C42.1168 29.0292 42.1583 28.9571 42.1986 28.8328C42.2394 28.7092 42.2736 28.5289 42.2503 28.3325C42.2268 28.136 42.151 27.9687 42.0822 27.8584C42.0136 27.747 41.9564 27.6868 41.9642 27.679C41.9695 27.6729 42.04 27.7215 42.1225 27.831C42.2049 27.9391 42.2934 28.1143 42.3185 28.3245C42.3436 28.5345 42.2987 28.7256 42.2442 28.8499C42.1898 28.9757 42.1328 29.0395 42.1262 29.0349Z" fill="#FF9A6C"/>
<path d="M41.3126 31.1026C41.3143 31.1111 41.1873 31.1468 40.9771 31.1818C40.7671 31.2169 40.473 31.2473 40.1473 31.2466C39.8215 31.2454 39.5277 31.2135 39.3178 31.1772C39.1078 31.141 38.981 31.1045 38.9827 31.0961C38.9847 31.086 39.1146 31.1055 39.3246 31.129C39.5346 31.1528 39.8254 31.1767 40.1475 31.1778C40.4694 31.1785 40.7603 31.1562 40.9705 31.1336C41.1806 31.1112 41.3106 31.0923 41.3126 31.1026Z" fill="#FF9A6C"/>
<path d="M39.6367 23.6628C39.6406 23.6701 39.594 23.7056 39.5058 23.7371C39.4181 23.7688 39.2871 23.791 39.1441 23.7742C39.0011 23.7569 38.8789 23.7047 38.8012 23.6533C38.7228 23.602 38.6858 23.5566 38.6913 23.5504C38.7032 23.5332 38.8829 23.6767 39.1523 23.706C39.4208 23.7408 39.6292 23.6434 39.6367 23.6628Z" fill="#FF9A6C"/>
<path d="M42.3223 29.1147C42.3264 29.1144 42.3342 29.1503 42.3375 29.2167C42.3394 29.283 42.3309 29.3795 42.3047 29.495C42.2793 29.6105 42.2357 29.7439 42.1941 29.8912C42.1545 30.0378 42.116 30.2039 42.1448 30.3718C42.1675 30.5388 42.2925 30.6743 42.3121 30.844C42.3344 31.0108 42.2686 31.152 42.2084 31.2522C42.1455 31.354 42.0824 31.4261 42.038 31.4744C41.9929 31.5224 41.9655 31.5463 41.9621 31.5434C41.9515 31.5354 42.0527 31.4277 42.1661 31.2282C42.2191 31.1288 42.2727 30.9969 42.2494 30.8531C42.2335 30.7097 42.107 30.5745 42.0769 30.3837C42.0452 30.1966 42.0898 30.0219 42.1331 29.8735C42.1789 29.7245 42.2267 29.5944 42.2575 29.483C42.3235 29.2606 42.3105 29.1155 42.3223 29.1147Z" fill="#FF9A6C"/>
<path d="M42.6772 29.944C42.6817 29.9429 42.6978 29.9869 42.7214 30.0679C42.7451 30.1491 42.7768 30.2673 42.8066 30.4159C42.8355 30.5645 42.8648 30.7436 42.8697 30.9457C42.8738 31.1462 42.854 31.3765 42.7504 31.5924C42.6441 31.8052 42.4911 31.9719 42.3446 32.1092C42.1961 32.2455 42.0504 32.3529 41.9254 32.4383C41.8001 32.5233 41.6953 32.5865 41.6215 32.6278C41.5478 32.6693 41.5055 32.6893 41.5031 32.6854C41.4973 32.676 41.6555 32.5766 41.8972 32.3987C42.0175 32.309 42.1583 32.1989 42.3013 32.063C42.4424 31.9264 42.5885 31.7628 42.6886 31.5623C42.7853 31.361 42.8071 31.1419 42.8065 30.9464C42.8053 30.7497 42.7815 30.5724 42.7589 30.4243C42.7102 30.1284 42.6663 29.9466 42.6772 29.944Z" fill="#263238"/>
<path d="M32.717 25.5503C32.7139 25.5539 32.6597 25.5131 32.5641 25.436C32.4597 25.3496 32.3253 25.2384 32.1641 25.105C32.0794 25.0334 31.9878 24.9562 31.8901 24.8738C31.8411 24.8324 31.7914 24.79 31.7345 24.762C31.6781 24.734 31.6144 24.7268 31.5577 24.756C31.4438 24.8155 31.3678 24.9617 31.2705 25.0831C31.1765 25.2098 31.0792 25.3407 30.9797 25.475C30.8201 25.6885 30.6666 25.8937 30.5251 26.083L30.4397 26.1971L30.4668 26.0575C30.5596 25.5799 30.6888 25.1814 30.7953 24.9059C30.8485 24.768 30.8954 24.6603 30.9294 24.5874C30.9637 24.5147 30.9845 24.4762 30.9879 24.4777C30.9915 24.4793 30.9773 24.5205 30.9495 24.5957C30.9218 24.6709 30.8811 24.7805 30.8335 24.9196C30.7383 25.1975 30.6183 25.5953 30.5309 26.0695L30.4727 26.044C30.6133 25.8541 30.7659 25.6483 30.9245 25.4339C31.0245 25.3001 31.122 25.1692 31.2165 25.0428C31.2639 24.9797 31.3105 24.9177 31.3562 24.8569C31.4033 24.7963 31.4561 24.7346 31.5307 24.6988C31.6055 24.6605 31.697 24.6732 31.7614 24.7079C31.8277 24.7418 31.8793 24.7884 31.9276 24.8308C32.0233 24.9154 32.1131 24.9947 32.1961 25.0683C32.3515 25.2083 32.4811 25.325 32.5818 25.4158C32.6717 25.499 32.72 25.5468 32.717 25.5503Z" fill="#263238"/>
<path d="M38.2908 24.434C38.2921 24.4359 38.2744 24.4517 38.2392 24.4801C38.1974 24.5126 38.146 24.5527 38.0833 24.6017C37.9382 24.7108 37.7415 24.8588 37.5017 25.0392C36.9989 25.4094 36.3167 25.9114 35.5596 26.4687L35.5301 26.4903L35.5103 26.4593C35.4951 26.4354 35.4786 26.4097 35.4623 26.3839C35.1046 25.8192 34.7703 25.2918 34.4876 24.8453L34.5232 24.8568C34.0571 25.0421 33.6908 25.2453 33.4414 25.3963C33.3165 25.4719 33.2204 25.5345 33.1547 25.5769C33.0892 25.6196 33.0537 25.6417 33.0518 25.6392C33.0501 25.6368 33.0821 25.6097 33.1444 25.5622C33.2071 25.515 33.3004 25.4478 33.4233 25.3674C33.6687 25.2071 34.0334 24.9949 34.5013 24.8023L34.5238 24.7931L34.537 24.8138C34.8222 25.2585 35.1593 25.7842 35.5202 26.3468C35.5367 26.3727 35.5531 26.3984 35.5683 26.4223L35.519 26.4131C36.2809 25.8623 36.9673 25.3661 37.4733 25.0003C37.7183 24.8271 37.9193 24.685 38.0676 24.5801C38.1333 24.5354 38.1872 24.4986 38.2308 24.4689C38.269 24.4443 38.2895 24.4322 38.2908 24.434Z" fill="#263238"/>
<path d="M26.4441 29.6835C26.4465 29.6835 26.4489 29.7155 26.4514 29.7767C26.4533 29.8446 26.4556 29.9333 26.4587 30.0438C26.4632 30.2838 26.4694 30.6174 26.477 31.0263C26.4927 31.8558 26.5259 33.0013 26.5689 34.2666C26.6118 35.5324 26.6374 36.6792 26.6407 37.5092C26.642 37.9242 26.6412 38.26 26.6373 38.4921C26.6349 38.6026 26.633 38.6913 26.6316 38.7593C26.6295 38.8204 26.6274 38.8525 26.625 38.8525C26.6226 38.8525 26.6202 38.8204 26.6177 38.7593C26.6159 38.6913 26.6135 38.6026 26.6105 38.4921C26.606 38.2521 26.5998 37.9186 26.5921 37.5098C26.5764 36.6803 26.5433 35.5346 26.5002 34.2689C26.4573 33.0035 26.4319 31.857 26.4286 31.0268C26.4272 30.6118 26.428 30.2759 26.432 30.0438C26.4344 29.9333 26.4362 29.8445 26.4377 29.7765C26.4397 29.7155 26.4418 29.6835 26.4441 29.6835Z" fill="#263238"/>
<path d="M32.7605 41.6069C32.7593 41.6071 32.757 41.5941 32.7537 41.5689C32.7504 41.5399 32.7462 41.5029 32.7411 41.4569C32.7309 41.3532 32.7168 41.2088 32.6988 41.0252C32.6621 40.6503 32.6199 40.1068 32.5779 39.4345C32.5346 38.7622 32.4995 37.9608 32.4767 37.0704C32.4574 36.1799 32.4525 35.2005 32.4735 34.1727C32.4971 33.1447 32.5446 32.1662 32.6026 31.2771C32.6641 30.3884 32.7339 29.5891 32.8064 28.9195C32.8777 28.2497 32.9434 27.7085 32.9964 27.3356C33.0224 27.1529 33.0427 27.0093 33.0573 26.9062C33.0646 26.8604 33.0704 26.8237 33.0749 26.7948C33.0792 26.7697 33.082 26.7571 33.0832 26.7572C33.0844 26.7573 33.0839 26.7704 33.0819 26.7957C33.0791 26.8249 33.0756 26.8619 33.0711 26.9081C33.0594 27.0114 33.0433 27.1557 33.0229 27.3389C32.9781 27.7128 32.9198 28.2545 32.8547 28.9244C32.7886 29.5943 32.7238 30.3931 32.6657 31.2812C32.6113 32.1696 32.5658 33.1472 32.5421 34.1742C32.5212 35.2008 32.5242 36.1792 32.5399 37.0689C32.5593 37.9586 32.5893 38.7596 32.6262 39.4316C32.662 40.1037 32.6968 40.6474 32.7254 41.023C32.7379 41.207 32.7477 41.3518 32.7548 41.4557C32.7572 41.502 32.7591 41.5391 32.7607 41.5684C32.7618 41.5937 32.7617 41.6068 32.7605 41.6069Z" fill="#263238"/>
<path d="M28.8274 20.0001C28.8274 20.0001 28.7808 20.0327 28.688 20.0936C28.594 20.1547 28.4559 20.2445 28.2753 20.3618C28.0941 20.4798 27.8845 20.6469 27.6285 20.8324C27.5025 20.9277 27.3759 21.042 27.2355 21.1578C27.1658 21.2164 27.0939 21.2769 27.0198 21.3392C26.9468 21.4028 26.8767 21.4741 26.8018 21.5443C26.2019 22.1028 25.5204 22.8525 24.8926 23.8362C24.8156 23.96 24.7374 24.0858 24.6578 24.2139C24.575 24.34 24.5108 24.4798 24.4347 24.6155C24.3627 24.7535 24.2826 24.8901 24.2141 25.0352C24.1474 25.1811 24.0799 25.3294 24.0112 25.4796C23.9778 25.5551 23.9403 25.6296 23.9096 25.7074C23.8797 25.7857 23.8498 25.8646 23.8196 25.944C23.76 26.103 23.6961 26.263 23.6378 26.4274C23.5401 26.7622 23.4168 27.0995 23.3432 27.4592C23.1602 28.1698 23.0594 28.9355 23.0186 29.7341C22.9725 30.5333 23.0202 31.3698 23.1574 32.2206C23.4353 33.9192 24.1055 35.6879 25.2446 37.2602C26.369 38.8372 27.9581 40.2089 29.8666 41.1105C31.7708 42.0176 33.9993 42.4097 36.2246 42.179C38.4533 41.9482 40.5409 41.0709 42.2131 39.7885C42.6347 39.4713 43.0217 39.1186 43.3937 38.7588C43.4832 38.6653 43.5724 38.5721 43.6615 38.4791C43.7517 38.3871 43.8387 38.2926 43.921 38.1944C44.005 38.0976 44.0887 38.001 44.1722 37.9046C44.2512 37.8044 44.3298 37.7045 44.4083 37.605C45.0358 36.8069 45.5308 35.9365 45.9219 35.0508C46.3124 34.1632 46.5708 33.2469 46.73 32.3432C46.8118 31.8912 46.8569 31.4403 46.8868 30.9959C46.9009 30.7736 46.9007 30.5524 46.9082 30.3334C46.904 30.1144 46.8921 29.8971 46.8846 29.6817C46.8804 29.574 46.8761 29.4668 46.8719 29.36C46.8654 29.2535 46.848 29.1481 46.8368 29.0429C46.8113 28.8327 46.7862 28.6242 46.7613 28.4178C46.7286 28.2125 46.6812 28.0116 46.6425 27.8112C46.6013 27.6114 46.5668 27.4118 46.5048 27.2212C46.4495 27.0289 46.3947 26.8385 46.3405 26.65C46.3162 26.5549 46.2828 26.4634 46.2473 26.373C46.2132 26.2822 46.1793 26.1919 46.1455 26.102C46.0752 25.9235 46.0177 25.7419 45.9389 25.5716C45.8595 25.4016 45.7808 25.2336 45.7032 25.0675C45.0659 23.7447 44.2475 22.6757 43.4258 21.8505C42.6012 21.0235 41.7716 20.4437 41.0726 20.0168C40.8947 19.9146 40.7266 19.818 40.5688 19.7273C40.4912 19.6795 40.411 19.6427 40.3342 19.6065C40.2574 19.57 40.1833 19.5347 40.1119 19.5007C39.9692 19.4327 39.8376 19.3698 39.7171 19.3124C39.5979 19.252 39.4812 19.2177 39.3816 19.1759C39.1808 19.0981 39.0273 19.0387 38.9227 18.9981C38.8195 18.9577 38.7671 18.9353 38.7671 18.9353C38.7671 18.9353 38.821 18.9533 38.9251 18.9915C39.0303 19.0306 39.1848 19.088 39.3867 19.1631C39.4869 19.2038 39.6042 19.2372 39.724 19.2967C39.8451 19.3533 39.9774 19.4153 40.1208 19.4823C40.1924 19.5158 40.2669 19.5508 40.3441 19.5869C40.4215 19.6226 40.5018 19.6591 40.58 19.7064C40.7387 19.7965 40.9076 19.8923 41.0865 19.9938C41.7891 20.4182 42.6232 20.9963 43.4531 21.8235C44.2801 22.6486 45.1043 23.7194 45.747 25.0462C45.8254 25.2128 45.9046 25.3814 45.9847 25.5519C46.0641 25.7229 46.1223 25.905 46.1932 26.0842C46.2272 26.1743 46.2614 26.265 46.2959 26.3561C46.3316 26.4468 46.3653 26.5388 46.39 26.6342C46.4447 26.8234 46.5002 27.0145 46.5562 27.2076C46.6187 27.399 46.6537 27.5994 46.6954 27.8002C46.7346 28.0013 46.7825 28.2032 46.8157 28.4092C46.841 28.6166 46.8668 28.8259 46.8926 29.0371C46.9041 29.1429 46.9218 29.2486 46.9284 29.3556C46.9328 29.463 46.9372 29.5707 46.9417 29.6788C46.9496 29.8951 46.9618 30.1135 46.9663 30.3335C46.959 30.5535 46.9595 30.7758 46.9457 30.9992C46.9163 31.4457 46.8715 31.899 46.7898 32.3534C46.6309 33.2619 46.3719 34.1833 45.9802 35.076C45.5878 35.9669 45.0907 36.8423 44.4604 37.6452C44.3816 37.7454 44.3025 37.846 44.2232 37.9467C44.1392 38.0436 44.0552 38.1408 43.9708 38.2382C43.888 38.3371 43.8007 38.4321 43.71 38.5246C43.6205 38.6182 43.5307 38.7121 43.4408 38.8061C43.0671 39.1681 42.678 39.5229 42.2541 39.8421C40.5733 41.1324 38.4735 42.0154 36.232 42.2476C33.9941 42.4796 31.7528 42.0847 29.8381 41.1716C27.9192 40.2641 26.3223 38.8837 25.1934 37.2973C24.0496 35.7157 23.3781 33.937 23.1013 32.2298C22.9646 31.3747 22.918 30.5344 22.9656 29.7317C23.0079 28.9297 23.1108 28.1609 23.2959 27.4479C23.3708 27.0868 23.4952 26.7484 23.5941 26.4126C23.653 26.2477 23.7175 26.0872 23.7777 25.9277C23.8082 25.8481 23.8386 25.7691 23.8687 25.6905C23.8997 25.6124 23.9376 25.5378 23.9712 25.462C24.0405 25.3114 24.1088 25.1628 24.176 25.0165C24.245 24.8711 24.3258 24.7342 24.3984 24.596C24.4752 24.46 24.54 24.32 24.6233 24.1937C24.7036 24.0655 24.7825 23.9394 24.8601 23.8155C25.4931 22.8308 26.1795 22.0817 26.7835 21.5249C26.8589 21.4549 26.9295 21.3839 27.0029 21.3205C27.0774 21.2585 27.1499 21.1983 27.22 21.14C27.3614 21.0249 27.4889 20.9111 27.6157 20.8164C27.8734 20.6323 28.0846 20.4668 28.2673 20.3505C28.4497 20.2355 28.589 20.1476 28.6839 20.0877C28.7783 20.0288 28.8274 20.0001 28.8274 20.0001Z" fill="#263238"/>
</svg>
