<svg width="65" height="46" viewBox="0 0 65 46" fill="none" xmlns="http://www.w3.org/2000/svg">
<g clip-path="url(#clip0_13_2282)">
<mask id="mask0_13_2282" style="mask-type:luminance" maskUnits="userSpaceOnUse" x="0" y="0" width="66" height="46">
<path d="M65.0003 0H0.000244141V46H65.0003V0Z" fill="white"/>
</mask>
<g mask="url(#mask0_13_2282)">
<path d="M19.9956 12.2386C19.8611 13.4991 22.2138 16.163 20.6005 18.3513C18.8078 18.1609 17.3516 16.5674 17.3516 16.5674L17.5085 13.2375L19.9956 12.2386Z" fill="#2D2833"/>
<path d="M20.8806 7.90373C19.8867 6.04395 17.0761 6.23136 16.4104 6.53183C16.2219 6.61684 15.9572 6.87637 15.6711 7.21787V16.3773H13.5665C15.0327 18.8423 18.1003 18.8974 19.5921 17.0908C19.1887 16.7578 18.6958 16.7576 18.0236 16.2819C17.617 15.9943 17.5784 15.387 17.9437 13.7291C20.259 13.4337 20.5417 11.871 20.5948 10.6955C20.6269 9.98817 21.2249 9.50039 20.8806 7.90373Z" fill="#FEACDC"/>
<path d="M16.1976 12.548C16.1865 12.5716 15.9959 12.9284 15.9959 12.9284C16.2165 13.6626 16.6653 14.8678 17.7754 14.5905C17.8163 14.3398 17.872 14.0556 17.9437 13.7293C17.4769 13.7109 16.7755 13.5069 16.1976 12.548Z" fill="black"/>
<path d="M17.7386 10.5132C17.5253 10.3262 17.7921 9.80664 18.0131 9.97233C18.2343 10.1377 17.9137 10.6669 17.7386 10.5132Z" fill="black"/>
<path d="M19.7448 10.863C19.5317 10.6752 19.7985 10.1561 20.0197 10.3218C20.2406 10.4871 19.9199 11.0168 19.7448 10.863Z" fill="black"/>
<path d="M18.9155 11.8421C18.892 11.8421 18.8714 11.824 18.8679 11.7986C18.8638 11.7706 18.8819 11.7445 18.9083 11.7403C19.0761 11.713 19.2365 11.6366 19.3985 11.5064C19.5661 11.3438 19.5405 11.1648 19.4438 10.9294C19.2104 10.3051 19.4171 9.68121 19.9827 9.29987C20.1346 9.19757 20.3891 9.14522 20.5816 9.24347C20.6857 9.29665 20.8159 9.41726 20.8444 9.69096C20.8473 9.71911 20.8281 9.74441 20.8018 9.74754C20.7744 9.75085 20.7514 9.73034 20.7484 9.70219C20.7294 9.52003 20.6593 9.39675 20.5399 9.33584C20.3808 9.25488 20.1608 9.30134 20.0346 9.38635C19.5105 9.73972 19.3183 10.3159 19.533 10.8901C19.6281 11.1214 19.6856 11.3671 19.4602 11.5852C19.2818 11.7289 19.1071 11.8118 18.9229 11.8416C18.9203 11.8418 18.9179 11.8421 18.9155 11.8421Z" fill="black"/>
<path d="M18.2756 12.5831C18.2755 12.5831 18.2757 12.5831 18.2756 12.5831C17.8597 12.5831 17.6671 12.0839 17.5787 11.665C17.5741 11.6434 17.5833 11.621 17.6012 11.6097C17.6192 11.5984 17.6421 11.6007 17.6577 11.6153C18.0428 11.9748 18.4045 12.1462 18.8672 12.1886C18.8867 12.1904 18.9032 12.2044 18.9091 12.2242C18.9149 12.2439 18.909 12.2656 18.894 12.2789C18.6669 12.4807 18.4587 12.5831 18.2756 12.5831ZM17.7098 11.7954C17.7934 12.1014 17.9607 12.4807 18.2755 12.4807C18.4118 12.4807 18.5679 12.4121 18.7406 12.2768C18.3565 12.2218 18.0368 12.0727 17.7098 11.7954Z" fill="black"/>
<path d="M18.6623 9.36457C18.6422 9.36457 18.6235 9.35113 18.6166 9.32988C18.5598 9.15333 18.4623 9.03585 18.3268 8.98037C18.0038 8.84799 17.536 9.08811 17.3497 9.1974C17.3263 9.2112 17.2971 9.20209 17.2841 9.17735C17.2713 9.15251 17.2797 9.12141 17.3031 9.1077C17.5492 8.96335 18.0138 8.74246 18.3616 8.88479C18.5249 8.95167 18.6414 9.09031 18.7081 9.29685C18.7167 9.32363 18.7032 9.3527 18.6779 9.3619C18.6728 9.36365 18.6675 9.36457 18.6623 9.36457Z" fill="black"/>
<path d="M18.3811 9.94141C18.3883 9.96864 18.3733 9.99697 18.3477 10.0047L18.02 10.1028C18.0156 10.1041 18.0111 10.1047 18.0068 10.1047C17.9858 10.1047 17.9664 10.0899 17.9605 10.0674C17.9532 10.0401 17.9682 10.0118 17.9938 10.0042" fill="black"/>
<path d="M20.3792 10.2666C20.3889 10.293 20.3766 10.3226 20.3518 10.3329L20.0495 10.4578C20.0437 10.4602 20.0379 10.4613 20.032 10.4613C20.0126 10.4613 19.9944 10.4489 19.987 10.4286C19.9774 10.4022 19.9897 10.3726 20.0145 10.3623" fill="black"/>
<path d="M9.48671 17.8519C8.41161 18.946 7.44797 20.2301 7.04462 20.8964C6.64136 21.5623 6.05887 22.3472 7.06715 24.3212C8.07543 26.2954 10.4954 29.4824 10.809 29.8631C11.1226 30.2435 11.6581 27.7361 11.6581 27.7361C11.6581 27.7361 10.2196 23.8658 9.72661 22.748C10.7587 21.3881 11.9965 19.7545 11.9965 19.7545L9.48671 17.8519Z" fill="#FEACDC"/>
<path d="M9.96452 23.2729C9.94727 23.2729 9.93055 23.2631 9.92188 23.2458L9.59029 22.5853C9.57773 22.5601 9.58665 22.5292 9.61014 22.5159C9.6338 22.5025 9.66283 22.5118 9.67549 22.537L10.0071 23.1975C10.0196 23.2224 10.0107 23.2535 9.98723 23.2669C9.97986 23.2709 9.97215 23.2729 9.96452 23.2729Z" fill="black"/>
<path d="M19.6496 17.0515C19.2421 16.8497 18.6344 16.5164 18.3179 16.1631C18.2609 16.0993 18.1255 16.0228 18.0324 16.065C17.4737 16.3185 17.0194 16.5233 16.4272 16.4217C15.7048 16.2978 15.0058 16.0087 14.4602 15.5397C13.8066 15.832 13.1378 16.0602 13.0274 15.8301C12.4446 15.4496 10.9661 15.5447 8.255 19.3028C8.70307 19.6596 9.95792 20.706 10.6747 21.7287C11.0334 21.4909 11.5933 20.9678 11.5933 20.9678C11.5263 22.4185 11.2123 25.5342 10.742 27.3658C10.2714 29.1971 8.27736 33.9542 9.24084 36.9987C11.2573 35.8807 18.8304 32.8362 18.8304 32.8362C18.8304 32.8362 17.7774 29.0067 17.6429 28.3171C17.5087 27.6274 17.6429 26.6759 17.9341 25.6056C18.2254 24.5353 18.2929 23.9644 18.6065 23.6077C18.9201 23.2509 19.3457 22.7278 19.3457 22.7278L19.794 23.489C20.1664 22.5199 22.0064 21.2443 22.5357 21.1936C22.1017 19.9955 21.0396 17.5699 19.6496 17.0515Z" fill="#685AEF"/>
<path d="M19.674 17.0073C19.2621 16.8017 18.8504 16.5769 18.4965 16.2699C18.3636 16.1547 18.2836 16.0314 18.1051 16.0034C18.0731 15.9984 18.0374 16.0073 18.008 16.0207C17.8524 16.0912 17.6967 16.1605 17.5383 16.2236C16.5218 16.6289 15.3171 16.1936 14.4942 15.5034C14.4817 15.4929 14.4639 15.4828 14.4474 15.4902C14.1805 15.6082 13.9114 15.7185 13.6333 15.8028C13.5137 15.839 13.3913 15.8646 13.2671 15.8726C13.1661 15.8791 13.1316 15.837 13.0517 15.7858C12.9528 15.7225 12.8447 15.6801 12.732 15.6554C12.4063 15.584 12.0657 15.67 11.7625 15.7969C11.22 16.0239 10.7427 16.4119 10.3067 16.8152C9.52105 17.542 8.84643 18.4021 8.21316 19.2768C8.19583 19.3007 8.2116 19.3318 8.23049 19.3469C9.10487 20.0449 9.97119 20.8236 10.6328 21.7543C10.6482 21.776 10.6748 21.7892 10.6989 21.7728C11.0287 21.5485 11.3333 21.2778 11.6274 21.0038C11.5999 20.9917 11.5724 20.9796 11.545 20.9676C11.4912 22.1009 11.3736 23.2325 11.2286 24.3564C11.0853 25.4663 10.9199 26.5894 10.6097 27.6627C10.0105 29.7351 9.25299 31.7454 9.00365 33.9141C8.88543 34.9432 8.88708 36.0183 9.19414 37.012C9.20411 37.0445 9.23652 37.0585 9.26503 37.0426C10.6293 36.2895 12.0859 35.7044 13.5105 35.0953C15.0086 34.4548 16.5134 33.8323 18.0214 33.2184C18.2951 33.1069 18.5689 32.9958 18.8431 32.8856C18.8673 32.8758 18.8846 32.8513 18.8768 32.8226C18.5074 31.4789 18.1355 30.1349 17.8001 28.7813C17.7107 28.4207 17.6403 28.0739 17.6389 27.697C17.6357 26.9254 17.8358 26.1662 18.0311 25.4298C18.1722 24.898 18.2508 24.2924 18.5207 23.8113C18.6475 23.5853 18.854 23.3972 19.0179 23.2018C19.1394 23.0566 19.26 22.9107 19.3796 22.7638C19.3543 22.7603 19.3291 22.7569 19.3038 22.7535C19.4533 23.0071 19.6026 23.2609 19.752 23.5146C19.7692 23.5438 19.8203 23.5519 19.8354 23.5146C20.0797 22.9101 20.6211 22.4441 21.1053 22.0603C21.3526 21.8643 21.6129 21.6857 21.8824 21.5261C22.0803 21.4089 22.3063 21.2732 22.5354 21.2447C22.5634 21.2412 22.5945 21.214 22.582 21.1798C22.2787 20.3465 21.9129 19.5351 21.4571 18.7832C21.0182 18.059 20.4469 17.3082 19.6623 17.0021C19.6037 16.9792 19.5786 17.0782 19.6366 17.1009C20.439 17.414 21.0034 18.2129 21.4442 18.9523C21.8661 19.6599 22.2047 20.4269 22.4888 21.207C22.5043 21.1854 22.5198 21.1638 22.5353 21.1422C22.0235 21.2059 21.5089 21.6244 21.1063 21.9331C20.5903 22.3284 20.0096 22.8256 19.752 23.4631C19.7797 23.4631 19.8076 23.4631 19.8353 23.4631C19.6859 23.2092 19.5366 22.9555 19.3871 22.7018C19.3716 22.6753 19.3323 22.6656 19.3113 22.6914C19.0409 23.0237 18.7342 23.3351 18.4847 23.6846C18.2142 24.0634 18.1386 24.6092 18.0268 25.0558C17.7433 26.189 17.3692 27.3651 17.6425 28.5423C17.9744 29.972 18.3815 31.3847 18.7694 32.7984C18.7742 32.8155 18.7789 32.8327 18.7835 32.8499C18.7948 32.8288 18.806 32.8078 18.8173 32.7868C16.2308 33.8268 13.6482 34.8884 11.1037 36.0395C10.4681 36.327 9.82941 36.6157 9.21615 36.9543C9.23981 36.9645 9.26339 36.9747 9.28705 36.9849C8.94029 35.8627 8.99047 34.6498 9.15367 33.4968C9.32145 32.3121 9.63215 31.153 9.97579 30.0141C10.2376 29.1467 10.5465 28.2929 10.7788 27.4157C11.0812 26.2737 11.2389 25.0834 11.3807 23.909C11.4988 22.9329 11.5946 21.9508 11.6413 20.9677C11.6435 20.9201 11.5885 20.904 11.5589 20.9315C11.2709 21.1999 10.9731 21.4649 10.6501 21.6844C10.6721 21.6906 10.6941 21.6967 10.7161 21.7029C10.0436 20.7568 9.16788 19.9681 8.2792 19.2586C8.28483 19.282 8.29073 19.3054 8.29645 19.3288C9.03918 18.303 9.84492 17.2853 10.822 16.5005C11.2777 16.1344 11.8253 15.7742 12.4113 15.7354C12.5744 15.7247 12.7379 15.748 12.8898 15.8126C12.9644 15.8444 13.0059 15.9016 13.0733 15.9421C13.2337 16.0385 13.4987 15.9461 13.6589 15.9018C13.8201 15.8571 13.9775 15.7956 14.1335 15.7339C14.2875 15.6729 14.4142 15.5694 14.5594 15.6854C14.8163 15.8906 15.1055 16.0457 15.4016 16.1758C15.9833 16.4313 16.634 16.5842 17.2551 16.4261C17.4701 16.3713 17.6768 16.2789 17.8804 16.1889C18.0341 16.1209 18.1402 16.0694 18.2837 16.1996C18.3698 16.2778 18.4486 16.362 18.5387 16.436C18.8685 16.7066 19.2495 16.9086 19.6251 17.096C19.6812 17.1237 19.7302 17.0354 19.674 17.0073Z" fill="#685AEF"/>
<path d="M15.9272 16.7832C16.3579 16.9608 16.7961 16.9889 17.2523 16.9439C17.6339 16.9062 18.0863 16.7704 18.4065 16.5402C18.4577 16.5034 18.4094 16.4145 18.3577 16.4517C18.0506 16.6725 17.6161 16.7969 17.2523 16.8414C16.8095 16.8955 16.3702 16.8565 15.9528 16.6844C15.8947 16.6605 15.8697 16.7596 15.9272 16.7832Z" fill="black"/>
<path d="M12.344 15.8064C11.6829 16.9005 11.5139 18.4933 12.8481 19.0647C14.2709 19.6739 16.1406 18.8933 16.5886 15.5396C17.0367 12.186 16.3232 10.1052 17.4525 7.26777C17.9901 7.10116 19.5517 7.47495 21.0039 9.14659C21.2973 8.80776 21.27 6.42257 18.3345 5.63771C15.3994 4.85286 14.0354 7.86209 13.3633 10.4784C12.6911 13.0949 11.0332 14.867 11.1004 16.1514C11.5599 15.878 12.0079 15.7587 12.344 15.8064Z" fill="#2D2833"/>
<path d="M11.0012 26.1545C10.9491 26.4392 10.8945 26.7121 10.8372 26.9675C12.2359 28.3188 16.3437 28.4563 17.6147 28.1165C17.5858 27.8675 17.5866 27.5895 17.6124 27.2886C14.2726 27.6125 11.6808 26.5515 11.0012 26.1545Z" fill="#2D2833"/>
<path d="M15.923 28.3249C14.1919 28.3249 11.8127 27.9793 10.8046 27.0054C10.7916 26.9928 10.7859 26.9737 10.7901 26.9556C10.8451 26.7102 10.9003 26.4374 10.9537 26.1447C10.9566 26.1287 10.9666 26.1151 10.9807 26.1081C10.9946 26.1013 11.0109 26.1019 11.0245 26.1098C11.7281 26.5208 13.7483 27.298 16.357 27.298C16.774 27.298 17.1949 27.2777 17.6081 27.2377C17.622 27.2366 17.6364 27.2417 17.6466 27.2524C17.6567 27.2631 17.6618 27.2782 17.6605 27.2933C17.6343 27.5979 17.635 27.8726 17.6626 28.1103C17.6655 28.1359 17.65 28.1599 17.6265 28.1662C17.249 28.267 16.6281 28.3249 15.923 28.3249ZM10.8907 26.9497C11.8905 27.8886 14.2213 28.2226 15.923 28.2226C16.5954 28.2226 17.1885 28.1697 17.5618 28.0775C17.5401 27.8596 17.5391 27.6137 17.5595 27.3451C17.1618 27.3818 16.7575 27.4004 16.357 27.4004C13.7969 27.4004 11.7954 26.6552 11.0361 26.2326C10.9883 26.4892 10.9396 26.7299 10.8907 26.9497Z" fill="#2D2833"/>
<path d="M15.2881 28.5064C15.2704 28.5064 15.2526 28.5057 15.2344 28.504L14.5827 28.4409C14.4259 28.4257 14.2839 28.3465 14.1833 28.218C14.0824 28.0895 14.0346 27.9273 14.0489 27.7606L14.0684 27.5347C14.0976 27.1915 14.3832 26.9384 14.7092 26.9682L15.3612 27.0314C15.5177 27.0466 15.6596 27.1256 15.7606 27.2541C15.8612 27.3825 15.9091 27.545 15.8947 27.7117L15.8753 27.9373C15.8472 28.2616 15.595 28.5064 15.2881 28.5064ZM14.6552 27.2511C14.4884 27.2511 14.3513 27.384 14.3362 27.5606L14.3167 27.7865C14.3088 27.8771 14.3349 27.9654 14.3895 28.0353C14.4446 28.1051 14.5217 28.1484 14.6072 28.1565L15.259 28.2197C15.4391 28.2394 15.5915 28.0984 15.6075 27.9113L15.627 27.6857C15.6349 27.595 15.6089 27.5066 15.5539 27.4368C15.499 27.3667 15.422 27.3238 15.3365 27.3158L14.6846 27.2525C14.6748 27.2515 14.6649 27.2511 14.6552 27.2511Z" fill="#FE6868"/>
<path d="M19.6561 20.9498C19.7032 21.6157 19.6922 22.2375 19.3266 22.8147C19.2918 22.8696 19.3755 22.9209 19.41 22.8663C19.7842 22.2753 19.8009 21.6342 19.7527 20.9497C19.748 20.8843 19.6514 20.8839 19.6561 20.9498Z" fill="black"/>
<path d="M10.7587 21.7977C10.7449 21.7977 10.7312 21.7914 10.7215 21.7793C10.7046 21.7576 10.7072 21.7253 10.7277 21.7072L12.3409 20.2799C12.3615 20.2618 12.3919 20.2648 12.4089 20.2865C12.4259 20.3082 12.4232 20.3406 12.4028 20.3587L10.7896 21.7858C10.7806 21.7938 10.7696 21.7977 10.7587 21.7977Z" fill="black"/>
<path d="M11.963 16.8446C11.9605 16.8446 11.958 16.8444 11.9555 16.844C11.9292 16.8397 11.911 16.8136 11.9152 16.7855C11.9886 16.283 12.34 15.672 12.6226 15.1811C12.819 14.8398 12.9887 14.5449 13.0017 14.3982C13.0041 14.3701 13.0271 14.3487 13.0543 14.352C13.0809 14.3547 13.1003 14.3796 13.0978 14.4078C13.0827 14.5782 12.916 14.8679 12.7051 15.2345C12.4271 15.7177 12.0812 16.319 12.0106 16.8012C12.0069 16.8266 11.9864 16.8446 11.963 16.8446Z" fill="black"/>
<path d="M27.0306 25.0318C27.5865 25.4381 29.304 26.1463 29.9216 26.5925C30.5393 27.0388 31.0955 25.0316 30.8482 24.8611C30.6012 24.6906 28.6737 23.2217 28.6737 23.2217C28.6737 23.2217 27.1912 24.1529 27.0306 25.0318Z" fill="#FEACDC"/>
<path d="M30.3372 14.2222C29.4137 14.5332 28.9631 14.1506 28.918 12.7636C27.7244 14.1269 26.4402 12.644 26.5304 11.2574C26.6204 9.87032 27.1606 9.15327 27.5213 7.16856C27.8818 5.18384 29.5247 3.35736 30.9679 3.12773C32.7699 2.84078 33.4455 3.98821 33.4455 3.98821C34.5944 4.03623 35.6701 4.91851 35.946 7.04905C36.3514 10.1815 38.3333 11.7834 37.32 13.3616C35.6756 14.8918 32.3194 15.8244 30.3372 14.2222Z" fill="#2D2833"/>
<path d="M31.2435 10.5253C31.491 11.076 32.2818 12.8075 32.2818 12.8075C31.7132 12.9912 30.6261 13.3321 30.6261 13.3321C31.2192 15.1946 35.5434 16.5719 37.3478 12.7942C36.0748 12.5846 35.4943 12.3881 35.42 12.3353C35.3459 12.2829 34.1599 9.47607 34.1599 9.47607L31.2435 10.5253Z" fill="#FEACDC"/>
<path d="M31.6408 11.4652C31.7575 11.7227 31.9065 12.0499 32.0445 12.3529C33.3414 12.769 33.8058 11.4405 34.0426 10.5188C33.3989 11.4925 32.3284 11.6162 31.6408 11.4652Z" fill="black"/>
<path d="M28.9857 8.55545C29.7965 10.6356 30.4046 11.2336 31.711 11.5201C33.0175 11.807 34.6168 10.8268 34.887 8.96163C35.1574 7.09679 33.851 4.34709 31.8464 4.65759C29.8415 4.96865 28.2874 6.28397 28.9857 8.55545Z" fill="#FEACDC"/>
<path d="M30.527 23.5496C30.4504 24.5699 30.3608 25.8125 30.3293 26.0024C30.2552 26.4482 29.934 30.9081 29.6376 32.036C32.3558 32.6393 39.4974 32.7177 39.4974 32.7177C39.5461 31.9235 37.9787 25.1298 37.6442 23.5623C35.1577 24.5238 31.334 23.8893 30.527 23.5496Z" fill="#2D2833"/>
<path d="M38.6967 23.5624C38.4058 23.894 36.6983 25.977 36.6983 25.977C36.6983 25.977 37.0835 26.4807 37.2766 26.747C37.4701 27.0129 38.0331 27.2911 38.0331 27.2911L40.7331 24.6513L38.6967 23.5624Z" fill="#FEACDC"/>
<path d="M42.3392 19.9953C41.5732 18.2901 40.4614 15.7194 39.7695 14.7225C39.0775 13.7256 38.336 12.7813 37.1994 12.7551C35.7662 14.7487 32.0097 15.1161 30.8238 13.2011C29.8107 13.542 28.4517 14.1978 27.4631 16.3227C26.4746 18.4477 25.3626 20.415 25.066 21.5431C24.7693 22.6709 25.3998 24.1136 27.2283 25.2418C27.9449 23.4577 28.8224 23.2481 28.8224 23.2481C28.4268 22.8548 27.6113 22.094 27.6113 22.094C27.7595 21.4645 29.5882 19.1035 29.5882 19.1035C29.8353 19.7064 30.2678 19.7462 30.3171 20.5593C30.3386 20.9101 30.0451 23.3397 30.5271 23.799C31.1941 24.3657 32.2573 24.4411 33.0725 24.507C34.1502 24.5949 36.6935 24.5585 37.5699 23.9168C38.4357 23.2337 37.6071 21.7004 37.6936 18.159C38.5832 19.2084 39.5719 21.0448 39.6954 21.5167C39.8188 21.9888 38.5093 23.6155 38.5093 23.6155C38.6328 24.1664 40.2266 25.163 40.6222 25.3203C42.0551 23.5364 43.1055 21.7004 42.3392 19.9953Z" fill="#FE6868"/>
<path d="M42.381 19.9694C41.8571 18.8023 41.3448 17.6287 40.7875 16.4788C40.3044 15.4818 39.7768 14.5232 39.049 13.7015C38.677 13.2817 38.2322 12.9353 37.7048 12.7784C37.5655 12.7369 37.2352 12.6232 37.132 12.7642C36.986 12.9634 36.8141 13.1398 36.632 13.3015C35.8594 13.9876 34.8252 14.3307 33.8317 14.3988C32.7563 14.4725 31.5036 14.1797 30.8653 13.1751C30.8534 13.1565 30.8323 13.1443 30.8108 13.1515C29.9974 13.4273 29.2563 13.8479 28.6364 14.4783C27.6647 15.4664 27.164 16.8578 26.5481 18.0989C26.0127 19.1775 25.3929 20.2646 25.0458 21.4334C24.7848 22.3119 25.0983 23.1908 25.6127 23.889C26.039 24.4676 26.6119 24.9159 27.2036 25.286C27.2243 25.2988 27.2593 25.2931 27.2698 25.2676C27.5185 24.6597 27.8358 24.0659 28.3121 23.6262C28.4565 23.4929 28.6432 23.3451 28.8348 23.2974C28.8697 23.2887 28.8822 23.2376 28.8562 23.2116C28.4699 22.829 28.0733 22.458 27.6769 22.0872C27.667 22.078 27.6571 22.0687 27.6471 22.0595C27.6815 22.0915 27.6702 22.06 27.6869 22.0136C27.7199 21.9223 27.7664 21.8358 27.8115 21.7508C27.9211 21.5444 28.0468 21.3475 28.1733 21.1526C28.6243 20.458 29.1177 19.7914 29.6221 19.1396C29.5968 19.1362 29.5716 19.1327 29.5463 19.1292C29.6351 19.3336 29.7572 19.5027 29.8964 19.6705C30.0973 19.9123 30.2227 20.1502 30.262 20.475C30.2997 20.7872 30.2432 21.1233 30.2265 21.4353C30.2012 21.9063 30.186 22.3797 30.216 22.8508C30.236 23.1653 30.2668 23.5351 30.4549 23.7928C30.5889 23.9763 30.8558 24.0889 31.0503 24.1763C31.3262 24.3003 31.6209 24.3713 31.9149 24.4264C32.4119 24.5196 32.9229 24.5567 33.4266 24.5799C34.4167 24.6258 35.4289 24.5869 36.405 24.398C36.8566 24.3104 37.4286 24.189 37.7516 23.8092C37.9852 23.5342 38.0185 23.1428 38.016 22.7895C38.0116 22.1949 37.9159 21.599 37.8572 21.0086C37.7631 20.0615 37.7206 19.1112 37.7419 18.1588C37.7144 18.1709 37.6867 18.183 37.6594 18.1951C38.3588 19.0286 38.9439 20 39.4257 20.9908C39.565 21.2772 39.7106 21.5222 39.597 21.8411C39.4644 22.213 39.2225 22.5519 39.0027 22.8697C38.8396 23.1059 38.6681 23.336 38.4902 23.5601C38.3792 23.7002 38.6666 23.9852 38.7496 24.0748C39.0354 24.3831 39.386 24.6306 39.7282 24.8616C40.0073 25.0499 40.2998 25.2419 40.6092 25.3696C40.6238 25.3756 40.6461 25.3689 40.6562 25.3562C41.8008 23.9256 43.2316 21.9306 42.381 19.9694C42.355 19.9094 42.2718 19.9616 42.2977 20.0212C42.9096 21.432 42.2528 22.8895 41.486 24.0652C41.263 24.4072 41.0193 24.7338 40.7699 25.0544C40.7599 25.0671 40.6155 25.2628 40.6134 25.2619C40.5814 25.2488 40.5503 25.2328 40.5191 25.2174C40.4348 25.1757 40.3524 25.1289 40.2707 25.082C39.8558 24.8439 39.4543 24.5685 39.0862 24.2555C38.9295 24.1223 38.7766 23.9767 38.6552 23.8062C38.5692 23.6856 38.524 23.6767 38.6011 23.5787C38.8122 23.3096 39.014 23.0321 39.2051 22.7468C39.4124 22.4375 39.6398 22.0983 39.7338 21.7267C39.8017 21.4582 39.6185 21.1674 39.5092 20.9391C39.0302 19.9391 38.4313 18.9611 37.7277 18.1227C37.6985 18.088 37.6463 18.1166 37.6453 18.1589C37.6174 19.4156 37.7237 20.6544 37.8546 21.9012C37.9155 22.4814 38.0723 23.3089 37.6453 23.78C37.3769 24.0764 36.9149 24.178 36.5523 24.2625C36.0253 24.3851 35.4833 24.4356 34.9456 24.4666C33.9264 24.5258 32.874 24.5027 31.8672 24.3139C31.5114 24.2471 31.1623 24.1379 30.842 23.9586C30.5879 23.8164 30.455 23.6664 30.3839 23.3753C30.2535 22.8426 30.2884 22.2519 30.3103 21.7077C30.3255 21.3285 30.3826 20.939 30.3655 20.5593C30.3522 20.2673 30.2655 19.9997 30.0992 19.7672C29.9342 19.5361 29.7465 19.3457 29.6299 19.0775C29.6176 19.0491 29.5729 19.043 29.5542 19.0671C29.2322 19.4831 28.9195 19.9074 28.6136 20.3366C28.3765 20.6696 28.1446 21.0071 27.9282 21.3557C27.7901 21.5784 27.6318 21.8197 27.5648 22.0802C27.5603 22.0969 27.5644 22.1182 27.5772 22.1301C27.9846 22.5102 28.3917 22.8913 28.7883 23.2842C28.7954 23.2556 28.8025 23.2272 28.8096 23.1986C28.612 23.2478 28.4295 23.3932 28.2757 23.5258C27.7724 23.9587 27.4403 24.5961 27.1868 25.2159C27.2088 25.2098 27.2308 25.2036 27.2529 25.1975C26.2766 24.5873 25.2752 23.6867 25.0702 22.4376C24.9935 21.9697 25.1033 21.5299 25.2603 21.0955C25.4701 20.5151 25.7425 19.959 26.0106 19.4071C26.3375 18.7339 26.6757 18.0669 27.0047 17.3947C27.3369 16.7159 27.6298 16.012 28.0412 15.3812C28.6317 14.4756 29.4557 13.8004 30.4205 13.4041C30.5043 13.3696 30.5891 13.3379 30.674 13.3071C30.7886 13.2654 30.7942 13.25 30.8677 13.3549C30.9878 13.5262 31.1333 13.6745 31.2909 13.8065C31.6079 14.0715 31.9858 14.2435 32.3726 14.3569C33.2617 14.6177 34.2361 14.5364 35.1114 14.2567C35.5581 14.114 35.9862 13.9022 36.3757 13.6301C36.5501 13.5083 36.7133 13.3689 36.867 13.2192C36.9477 13.1407 37.023 13.056 37.096 12.9696C37.1322 12.9266 37.1665 12.8817 37.2005 12.8369C37.2592 12.7596 37.4743 12.8317 37.5439 12.8447C38.1645 12.9601 38.6673 13.4094 39.0803 13.8877C39.4458 14.3113 39.7714 14.7816 40.0522 15.2723C40.9172 16.7831 41.5824 18.4277 42.2979 20.0213C42.3244 20.0809 42.4076 20.0287 42.381 19.9694Z" fill="#FE6868"/>
<path d="M40.6868 24.802C40.68 24.802 40.6733 24.8005 40.6667 24.7972C39.4119 24.1861 38.958 23.5336 38.8798 23.4089C38.865 23.3855 38.871 23.3536 38.8933 23.338C38.9151 23.3224 38.9452 23.3284 38.9601 23.3522C39.0358 23.4728 39.4757 24.1045 40.7069 24.7041C40.7311 24.716 40.7417 24.7464 40.7305 24.7722C40.7225 24.791 40.7051 24.802 40.6868 24.802Z" fill="black"/>
<path d="M30.4128 25.1136C30.0915 25.035 29.4645 25.189 29.6377 25.8579C29.1557 25.9237 29.1931 26.2384 29.477 26.5925C29.2176 26.8941 29.3043 27.1434 29.6993 27.5237C30.0946 27.9041 30.7 28.1403 30.589 27.6024C30.8609 27.5629 30.7247 27.0254 30.6384 26.9204C31.0708 27.0647 31.1356 26.6777 30.3944 25.7726C30.4434 25.484 30.4128 25.1136 30.4128 25.1136Z" fill="#FEACDC"/>
<path d="M28.2195 9.24881C28.3547 9.99014 29.4001 9.98674 30.0779 8.077C30.213 9.05745 32.1953 7.63752 32.5331 5.76955C32.736 7.63467 33.7834 8.74667 34.0762 8.81816C33.5581 10.9226 33.7078 13.428 36.1947 12.5121C35.8794 9.09287 35.1571 5.75768 34.5718 5.18379C33.9861 4.60989 32.77 3.58188 31.238 4.25128C29.7062 4.92094 27.8367 5.56632 28.2195 9.24881Z" fill="#2D2833"/>
<path d="M34.8488 12.6874C35.5905 13.0345 36.2045 12.4388 36.5824 11.8269C36.553 11.8229 36.5235 11.8187 36.4941 11.8147C36.5311 12.0776 36.7278 12.2908 36.9664 12.3596C37.0265 12.377 37.052 12.2782 36.992 12.2608C36.7823 12.2002 36.6193 12.0168 36.5873 11.7874C36.5806 11.7399 36.5194 11.7422 36.499 11.7751C36.1545 12.3329 35.5862 12.9212 34.8974 12.5989C34.8411 12.5725 34.7917 12.6608 34.8488 12.6874Z" fill="black"/>
<path d="M31.8888 10.1562C31.8118 10.1562 31.7338 10.1468 31.6596 10.1362C31.469 10.0985 31.3503 9.98941 31.2721 9.78186C31.224 9.67183 31.2188 9.56152 31.2135 9.4548C31.2111 9.40273 31.2086 9.3536 31.2014 9.3042C31.1782 9.10539 31.1431 8.98422 31.0153 8.86941C30.9209 8.78182 30.8281 8.72276 30.7416 8.67197C30.7182 8.65827 30.7099 8.62708 30.7228 8.60233C30.7358 8.57749 30.7652 8.56847 30.7884 8.58227C30.8795 8.63582 30.9776 8.69838 31.0783 8.79167C31.2441 8.94071 31.2756 9.10557 31.2971 9.29012C31.3049 9.34321 31.3075 9.39721 31.3099 9.44956C31.3149 9.55094 31.3195 9.64681 31.3607 9.74129C31.4272 9.91738 31.5208 10.0045 31.6749 10.035C31.8447 10.0593 32.039 10.0769 32.1657 9.97322C32.1866 9.95602 32.2171 9.95997 32.2334 9.98242C32.2497 10.0049 32.2459 10.0371 32.2248 10.0544C32.1293 10.1328 32.0104 10.1562 31.8888 10.1562Z" fill="black"/>
<path d="M31.7464 10.636C31.5874 10.636 31.4217 10.607 31.2882 10.5518C31.2634 10.5416 31.2511 10.5118 31.2608 10.4854C31.2705 10.4591 31.2985 10.4459 31.3233 10.4563C31.5239 10.5391 31.8036 10.558 32.0031 10.5021C32.1286 10.4578 32.2616 10.4109 32.3683 10.3205C32.422 10.2628 32.4763 10.205 32.5181 10.1494C32.5271 10.1367 32.5368 10.1197 32.5467 10.1022C32.5746 10.0533 32.6036 10.0027 32.6473 9.9799C32.6709 9.96748 32.7 9.9776 32.7119 10.0031C32.7238 10.0285 32.7139 10.0592 32.6901 10.0717C32.6715 10.0814 32.6471 10.1241 32.6292 10.1553C32.6174 10.1759 32.6059 10.1958 32.5945 10.212C32.5486 10.2733 32.4923 10.333 32.438 10.391C32.4367 10.3924 32.4299 10.3992 32.4286 10.4005C32.3083 10.5023 32.167 10.5521 32.0305 10.6002C31.9451 10.6243 31.8471 10.636 31.7464 10.636Z" fill="black"/>
<path d="M32.7312 8.97168C32.6337 8.96146 32.3514 8.73441 32.5169 8.6517C32.6046 8.61039 32.7408 8.71362 32.7895 8.77562C32.8481 8.83754 32.9066 8.95125 32.7895 8.97168C32.7019 8.98198 32.6046 8.94095 32.5462 8.87894C32.5071 8.83754 32.4096 8.6517 32.5362 8.662C32.5853 8.6724 32.6531 8.74462 32.6822 8.77553C32.7019 8.79623 32.7895 8.87885 32.7797 8.90985C32.7602 9.00259 32.5653 8.81675 32.5463 8.78602C32.517 8.74462 32.4777 8.662 32.5654 8.69292C32.6144 8.71362 32.6823 8.76523 32.7117 8.81684C32.7508 8.85815 32.7603 8.93055 32.6922 8.88924C32.6531 8.86854 32.6338 8.81684 32.6144 8.77562" fill="black"/>
<path d="M32.7636 9.02419C32.7539 9.02419 32.7441 9.02373 32.7346 9.02281C32.7317 9.023 32.7291 9.02281 32.7264 9.02272C32.7206 9.02217 32.7142 9.02088 32.7075 9.01923C32.6343 9.00626 32.5626 8.9689 32.512 8.91518C32.5013 8.90395 32.481 8.87598 32.4628 8.84102C32.4405 8.8102 32.4247 8.77782 32.4194 8.7458C32.4098 8.68582 32.4379 8.63458 32.4964 8.60532C32.6115 8.55141 32.7681 8.66815 32.8266 8.74295C32.874 8.79272 32.9209 8.87387 32.9004 8.94158C32.8913 8.97176 32.8661 9.0103 32.7974 9.02236C32.7862 9.02355 32.775 9.02419 32.7636 9.02419Z" fill="black"/>
<path d="M30.4046 9.36826C30.3372 9.36826 30.2809 9.3207 30.2358 9.27258C30.1906 9.2368 30.0895 9.08132 30.1681 9.05749C30.2583 9.02142 30.3709 9.17681 30.4159 9.2368C30.4497 9.30856 30.4722 9.40396 30.3708 9.39209C30.2809 9.38013 30.1794 9.28454 30.1456 9.20101C30.123 9.16504 30.1005 9.10514 30.1343 9.08132C30.1681 9.06926 30.2357 9.10514 30.2582 9.11729C30.3144 9.15289 30.4158 9.22465 30.4046 9.29632C30.4046 9.35621 30.3372 9.38013 30.3033 9.34425" fill="black"/>
<path d="M30.3867 9.44434C30.3801 9.44434 30.3731 9.44398 30.3656 9.44306C30.255 9.42834 30.1398 9.31647 30.1013 9.22125C30.0918 9.20754 30.0608 9.15068 30.0708 9.09741C30.0755 9.07267 30.0882 9.05233 30.1076 9.03863C30.1092 9.03761 30.1107 9.0366 30.1123 9.03577C30.1231 9.02298 30.1376 9.01351 30.1549 9.00826C30.271 8.96153 30.3913 9.12188 30.449 9.19889C30.4512 9.20165 30.4576 9.21066 30.459 9.21398C30.4976 9.29604 30.5031 9.35915 30.4753 9.40147C30.462 9.42181 30.436 9.44434 30.3867 9.44434ZM30.2026 9.14599C30.2189 9.17828 30.2447 9.21572 30.2647 9.23164C30.2992 9.26798 30.328 9.29153 30.3543 9.3045C30.3563 9.30147 30.3563 9.29825 30.3563 9.2965C30.3596 9.27166 30.3365 9.22667 30.2335 9.16154C30.2219 9.1551 30.2117 9.15004 30.2026 9.14599Z" fill="black"/>
<path d="M32.7136 7.85358C32.7064 7.85358 32.6988 7.85193 32.692 7.84816C32.3609 7.67216 32.0208 7.5394 31.7759 7.75754C31.7555 7.77575 31.725 7.77299 31.708 7.75128C31.6908 7.72966 31.6935 7.69728 31.7139 7.67915C32.0407 7.38761 32.51 7.63683 32.7351 7.75662C32.7591 7.76931 32.7687 7.80013 32.7568 7.82543C32.7483 7.84328 32.7312 7.85358 32.7136 7.85358Z" fill="black"/>
<path d="M28.6972 9.75912C28.5718 9.75912 28.4484 9.7214 28.3412 9.63097C28.1748 9.49076 28.1822 9.33086 28.19 9.1614C28.1917 9.12432 28.1934 9.08578 28.1934 9.04585C28.1934 9.01751 28.215 8.9946 28.2418 8.9946C28.2685 8.9946 28.2901 9.01751 28.2901 9.04585C28.2901 9.08752 28.2882 9.12764 28.2865 9.16637C28.279 9.32709 28.2738 9.4432 28.4013 9.55074C28.6424 9.75388 28.9878 9.63649 29.2067 9.44154C29.4151 9.2557 29.5859 9.013 29.7444 8.67766C29.8552 8.44343 29.9522 8.19706 30.046 7.95887L30.0636 7.91397C30.0739 7.88775 30.1023 7.87542 30.1268 7.88646C30.1513 7.89741 30.163 7.9274 30.1527 7.95353C30.1073 8.06918 30.1147 8.16826 30.1738 8.24039C30.2511 8.33432 30.4053 8.37167 30.5489 8.33119C31.1156 8.17222 31.6207 7.69078 32.0933 6.85928C32.1953 6.67988 32.2871 6.49128 32.3663 6.299C32.4188 6.18649 32.4293 6.07324 32.4293 5.93698C32.4293 5.85014 32.4293 5.75151 32.453 5.64976C32.4592 5.62234 32.4846 5.60542 32.5114 5.61222C32.5373 5.61903 32.553 5.64672 32.5466 5.67423C32.5258 5.76393 32.5258 5.85584 32.5258 5.93689C32.5258 6.0875 32.5136 6.214 32.4539 6.34224C32.374 6.53636 32.2802 6.72883 32.1761 6.91209C31.6898 7.76751 31.1657 8.26403 30.5736 8.43009C30.3956 8.48005 30.2013 8.42972 30.101 8.30755C30.0783 8.27995 30.0607 8.2495 30.0484 8.21684C29.9804 8.38667 29.9092 8.5577 29.8306 8.72357C29.6661 9.07179 29.4874 9.32479 29.2688 9.51992C29.1146 9.65737 28.9031 9.75912 28.6972 9.75912Z" fill="black"/>
<path d="M34.2213 8.85963C34.0183 8.85963 33.8089 8.7358 33.6777 8.59504C33.0311 7.89998 32.5801 6.83342 32.4403 5.66861C32.4369 5.64046 32.4556 5.61488 32.482 5.61129C32.5077 5.60817 32.5327 5.62749 32.5361 5.65564C32.6732 6.79855 33.1145 7.84367 33.7463 8.523C33.8952 8.6829 34.1485 8.80756 34.3436 8.73644C34.5308 8.66818 34.6295 8.39687 34.6593 8.16586C34.6628 8.1378 34.6878 8.1182 34.7136 8.12197C34.7401 8.12584 34.7585 8.15178 34.755 8.17975C34.7386 8.30653 34.6628 8.72835 34.375 8.83341C34.3252 8.85144 34.2734 8.85963 34.2213 8.85963Z" fill="black"/>
<path d="M30.6999 26.998C30.6902 26.998 30.6804 26.9948 30.6719 26.9884C30.5375 26.8864 30.4153 26.7744 30.2972 26.6662C30.261 26.6329 30.2244 26.5993 30.1872 26.5659C30.0282 26.4336 29.8284 26.2676 29.6962 26.057C29.5864 25.8885 29.5683 25.6934 29.6412 25.4614C29.7069 25.2794 29.7894 25.1989 29.9691 25.1401L30.3067 25.0604C30.333 25.0543 30.3585 25.0717 30.3643 25.0994C30.37 25.127 30.3536 25.1545 30.3276 25.1604L29.9937 25.2391C29.8459 25.2877 29.7863 25.3455 29.732 25.496C29.6691 25.6959 29.6829 25.8565 29.776 25.9993C29.9 26.1971 30.093 26.3577 30.2482 26.4864C30.287 26.5215 30.3237 26.5552 30.3602 26.5886C30.482 26.7003 30.597 26.8057 30.7279 26.905C30.7496 26.9214 30.7546 26.9534 30.7391 26.9765C30.7298 26.9906 30.715 26.998 30.6999 26.998Z" fill="black"/>
<path d="M29.5843 25.7332C29.2168 25.8927 29.2052 26.2962 29.4489 26.6026C29.6449 26.8488 29.9015 27.0439 30.133 27.2508C30.269 27.3723 30.4177 27.5951 30.6073 27.6044C30.6695 27.6074 30.6692 27.505 30.6073 27.5019C30.489 27.4961 30.3534 27.3196 30.2707 27.2415C30.1349 27.1133 29.9919 26.9934 29.8539 26.8677C29.6059 26.6418 29.0495 26.0754 29.61 25.832C29.6669 25.8073 29.6421 25.708 29.5843 25.7332Z" fill="black"/>
<path d="M29.4186 17.6223C29.3695 17.9753 29.3207 18.3214 29.3592 18.6785C29.3925 18.9869 29.5492 19.2481 29.7199 19.4914C29.7566 19.5438 29.8405 19.4928 29.8033 19.4397C29.6197 19.1781 29.4817 18.9193 29.4462 18.5899C29.4125 18.278 29.4688 17.9573 29.5116 17.6494C29.5207 17.5849 29.4277 17.5571 29.4186 17.6223Z" fill="black"/>
<path d="M27.1728 21.8035C27.4646 21.9837 27.7102 22.2317 27.9883 22.4331C28.0399 22.4704 28.0881 22.3815 28.0371 22.3447C27.7589 22.1432 27.5136 21.8954 27.2216 21.715C27.1676 21.6817 27.1191 21.7702 27.1728 21.8035Z" fill="black"/>
<path d="M37.1782 17.5909C37.5047 18.0711 37.937 18.4661 38.2345 18.9681C38.2677 19.0238 38.3512 18.9724 38.3179 18.9163C38.0198 18.4138 37.5881 18.0195 37.2614 17.5391C37.2256 17.4861 37.1418 17.5371 37.1782 17.5909Z" fill="black"/>
<path d="M30.4731 13.6005C30.7264 14.1495 31.2666 14.4174 31.7665 14.6596C32.3656 14.9498 33.0385 15.0538 33.6923 15.0782C35.0594 15.1294 36.4439 14.5727 37.4993 13.6701C37.5477 13.6286 37.479 13.5566 37.431 13.5976C36.4085 14.4721 35.0991 14.9827 33.781 14.9776C33.1656 14.9752 32.5259 14.8723 31.9518 14.6329C31.4286 14.4147 30.8147 14.1086 30.5565 13.5488C30.5292 13.4894 30.446 13.5414 30.4731 13.6005Z" fill="black"/>
<path d="M30.7861 24.95C32.5805 25.4639 34.4871 25.71 36.3225 25.2912C36.3834 25.2773 36.3575 25.1784 36.2969 25.1923C34.4784 25.6074 32.5891 25.3603 30.8117 24.8511C30.7514 24.8339 30.7259 24.9328 30.7861 24.95Z" fill="black"/>
<path d="M32.7275 25.3465C32.7275 26.3969 32.7275 27.4473 32.7275 28.4977C32.7275 29.0399 32.7275 29.5821 32.7275 30.1242C32.7275 30.6628 32.7746 31.2046 32.6553 31.7338C32.6409 31.7981 32.7339 31.8253 32.7485 31.761C32.8555 31.286 32.8315 30.804 32.8247 30.3196C32.8169 29.7803 32.8241 29.2404 32.8241 28.7011C32.8241 27.5829 32.8241 26.4646 32.8241 25.3465C32.8241 25.2805 32.7275 25.2805 32.7275 25.3465Z" fill="black"/>
<path d="M33.0664 26.4304C33.104 26.5543 33.2081 26.6563 33.3314 26.6741C33.4746 26.6948 33.551 26.5722 33.5529 26.433C33.5565 26.1312 33.1205 26.0729 33.0665 26.3769C33.0551 26.4415 33.1481 26.4691 33.1597 26.4041C33.1939 26.2117 33.446 26.2468 33.4563 26.433C33.4698 26.6755 33.2038 26.5486 33.1597 26.403C33.1406 26.3405 33.0473 26.3673 33.0664 26.4304Z" fill="black"/>
<path d="M32.9488 24.9142C32.9864 25.0381 33.0905 25.1402 33.2138 25.1579C33.357 25.1786 33.4336 25.0561 33.4354 24.917C33.4391 24.6151 33.0031 24.5565 32.9489 24.8606C32.9374 24.9252 33.0304 24.9526 33.042 24.8878C33.0763 24.6952 33.3286 24.7311 33.3389 24.917C33.3524 25.1593 33.0862 25.0325 33.042 24.887C33.0229 24.8243 32.9297 24.8511 32.9488 24.9142Z" fill="black"/>
<path d="M33.1235 28.7927C33.0623 28.9607 33.1589 29.1268 33.2955 29.2105C33.4416 29.3002 33.585 29.2167 33.6203 29.0487C33.6508 28.9037 33.5635 28.7686 33.4452 28.705C33.3367 28.6469 33.1893 28.6547 33.1284 28.7804C33.0999 28.8391 33.1834 28.8909 33.2118 28.832C33.2486 28.7562 33.3317 28.7626 33.3965 28.7934C33.4749 28.8307 33.5299 28.9075 33.5293 29C33.5284 29.1337 33.4267 29.1727 33.3295 29.113C33.2324 29.0533 33.1748 28.9347 33.2166 28.8198C33.2391 28.7581 33.1458 28.7317 33.1235 28.7927Z" fill="black"/>
<path d="M36.3625 25.4825C36.5931 25.9179 36.8482 26.3513 37.1554 26.7314C37.2821 26.8878 37.4403 27.0352 37.5976 27.156C37.8054 27.3156 38.0334 27.3547 38.2762 27.4235C38.3365 27.4405 38.362 27.3416 38.3019 27.3246C38.0921 27.2652 37.892 27.2343 37.7026 27.1109C37.5274 26.9964 37.3619 26.8192 37.2237 26.6589C36.9143 26.3002 36.6694 25.8527 36.4457 25.4307C36.4153 25.3732 36.3319 25.4248 36.3625 25.4825Z" fill="black"/>
<path d="M30.8117 26.2354C31.1962 26.1365 31.271 25.69 31.5001 25.4087C31.5407 25.3591 31.4726 25.2863 31.4318 25.3362C31.2197 25.5964 31.138 26.046 30.7861 26.1365C30.7255 26.1521 30.7511 26.2509 30.8117 26.2354Z" fill="black"/>
<path d="M47.325 30.0624C47.3025 30.657 47.0113 32.9167 47.056 33.4634C49.0278 34.2011 56.6235 37.6497 56.6235 37.6497C56.6235 37.6497 56.0855 31.2757 55.9736 30.4668C55.8617 29.6577 47.325 30.0624 47.325 30.0624Z" fill="#FE6868"/>
<path d="M47.2767 30.0623C47.2526 30.6258 47.176 31.1886 47.1201 31.7491C47.0644 32.3086 46.9685 32.8993 47.0077 33.4634C47.0092 33.4878 47.0214 33.5047 47.0431 33.5128C48.4218 34.0301 49.7704 34.6478 51.1205 35.2422C52.6347 35.9092 54.1451 36.5856 55.654 37.2665C55.9691 37.4087 56.2841 37.551 56.5991 37.6938C56.629 37.7075 56.6754 37.6927 56.6717 37.6497C56.5699 36.4449 56.4661 35.2403 56.3602 34.0363C56.2868 33.2042 56.213 32.3722 56.1339 31.5407C56.1077 31.264 56.0809 30.987 56.0509 30.7106C56.0382 30.5949 56.0469 30.4441 55.9683 30.3528C55.7522 30.1017 55.2368 30.0894 54.9478 30.0519C54.2753 29.9645 53.5948 29.9415 52.9181 29.9245C51.4323 29.8877 49.9446 29.918 48.4594 29.9671C48.0813 29.9797 47.703 29.9933 47.325 30.0113C47.2628 30.014 47.2627 30.1166 47.325 30.1137C48.2248 30.0712 49.1256 30.0459 50.0263 30.0284C51.5366 29.9995 53.0593 29.9759 54.566 30.1128C54.9661 30.1492 55.4987 30.1546 55.8537 30.386C55.9614 30.4563 55.9441 30.6168 55.957 30.7352C55.9877 31.0172 56.0145 31.2997 56.0413 31.582C56.199 33.2409 56.3405 34.9015 56.4826 36.5621C56.5135 36.9246 56.5446 37.2872 56.5752 37.6497C56.5993 37.6349 56.6237 37.6201 56.6477 37.6053C54.144 36.4688 51.6355 35.3411 49.1112 34.2567C48.6955 34.0781 48.2791 33.9014 47.8612 33.7291C47.7013 33.663 47.5411 33.5981 47.3804 33.5345C47.3088 33.5061 47.237 33.478 47.1649 33.4505C47.0742 33.4157 47.1001 33.4336 47.0996 33.3138C47.0963 32.2255 47.3269 31.1478 47.3732 30.0624C47.376 29.9963 47.2794 29.9965 47.2767 30.0623Z" fill="#FE6868"/>
<path d="M50.3239 30.9399C50.3255 31.8233 50.3672 32.7064 50.3474 33.5901C50.3408 33.8882 50.2454 34.2636 50.4311 34.5185C50.4993 34.6121 50.6479 34.6456 50.7457 34.6788C50.8719 34.7215 50.9861 34.7861 51.1176 34.8125C51.6263 34.914 51.3415 33.9838 51.3183 33.7493C51.2254 32.8095 51.2054 31.8628 51.2045 30.9184C51.2044 30.8524 51.1079 30.8524 51.108 30.9184C51.1087 31.627 51.1223 32.3353 51.1656 33.0424C51.1843 33.3473 51.1968 33.6599 51.2482 33.9611C51.283 34.166 51.4708 34.7789 51.0872 34.7023C50.9994 34.6848 50.9149 34.6392 50.8329 34.6032C50.6016 34.502 50.4208 34.4739 50.421 34.1361C50.4215 33.7908 50.449 33.4445 50.45 33.0982C50.4523 32.3788 50.4217 31.6594 50.4204 30.9399C50.4203 30.8738 50.3237 30.8738 50.3239 30.9399Z" fill="black"/>
<path d="M47.4689 31.3248C47.9493 31.5366 48.4834 31.6179 48.9949 31.6957C49.5637 31.7827 50.1374 31.84 50.7113 31.8719C51.4484 31.913 52.1903 31.8895 52.9279 31.8741C53.3564 31.8652 53.7846 31.8503 54.2114 31.8058C54.6867 31.7561 55.159 31.6878 55.6375 31.6832C55.6997 31.6827 55.6998 31.5803 55.6375 31.5808C54.7628 31.5892 53.8956 31.7488 53.0197 31.7697C52.2835 31.7871 51.5436 31.8067 50.8075 31.7744C50.2318 31.7489 49.6564 31.6887 49.0857 31.6067C48.5534 31.5301 47.9939 31.4462 47.4945 31.2259C47.437 31.2007 47.4122 31.2998 47.4689 31.3248Z" fill="black"/>
<path d="M53.4832 31.9887C53.5672 32.7004 53.4411 33.4662 53.7511 34.1304C54.0284 34.7244 54.9665 35.188 55.5497 34.8872C55.6056 34.8584 55.5567 34.7701 55.501 34.7989C55.1316 34.9892 54.7051 34.8052 54.3684 34.6192C54.0662 34.4522 53.8645 34.2074 53.7503 33.8674C53.5508 33.2716 53.6527 32.606 53.5798 31.9887C53.5722 31.9241 53.4754 31.9232 53.4832 31.9887Z" fill="black"/>
<path d="M48.2177 31.6322C48.2081 31.8856 48.1749 32.1283 48.0943 32.3677C48.0083 32.6238 47.7446 33.0517 47.4688 33.1049C47.4076 33.1167 47.4336 33.2155 47.4943 33.2038C47.7477 33.1548 47.9219 32.8621 48.0545 32.6561C48.2506 32.3513 48.3007 31.9933 48.3141 31.6322C48.3166 31.5659 48.2202 31.5663 48.2177 31.6322Z" fill="black"/>
<path d="M49.0276 15.9816C49.6662 15.6963 49.6996 15.3395 49.4308 14.3762C47.8848 14.5545 47.1453 13.2702 46.7084 12.1284C46.2717 10.9868 45.2296 9.30998 45.8685 8.02556C46.5072 6.74134 49.7896 4.12495 51.9404 9.22672C52.6462 8.85798 53.4752 10.6063 51.9962 11.3555C51.7949 11.3555 52.0524 11.8788 52.1869 12.4498C52.3214 13.0207 52.7583 15.0897 53.3966 15.4465C53.0605 17.2305 50.3046 17.7299 49.0276 15.9816Z" fill="#FEACDC"/>
<path d="M49.1789 10.3803C48.9315 10.4732 49.263 11.0404 49.4982 10.9333C49.7333 10.8264 49.4645 10.2735 49.1789 10.3803Z" fill="black"/>
<path d="M47.2631 10.9155C47.0157 11.008 47.3471 11.5756 47.5823 11.4685C47.8178 11.3616 47.549 10.8085 47.2631 10.9155Z" fill="black"/>
<path d="M48.3835 12.4255C48.2879 12.4255 48.2106 12.4026 48.1501 12.357C47.9717 12.2224 47.9787 11.9286 47.9854 11.6444C47.9868 11.5911 47.9881 11.538 47.9881 11.4865C47.9881 11.0976 47.6876 10.5939 47.0953 9.98929C47.0761 9.9697 47.0756 9.93731 47.0939 9.9168C47.1126 9.89646 47.1431 9.89582 47.1621 9.91542C47.7743 10.5401 48.0845 11.0686 48.0845 11.4865C48.0845 11.5388 48.0831 11.5928 48.0819 11.6469C48.0759 11.9043 48.0694 12.1704 48.206 12.2734C48.3122 12.3534 48.5095 12.3365 48.792 12.2233C48.8173 12.2133 48.8449 12.2266 48.8543 12.2531C48.8637 12.2796 48.851 12.3093 48.8262 12.3192C48.6492 12.39 48.5025 12.4255 48.3835 12.4255Z" fill="black"/>
<path d="M48.9772 12.8758C48.9532 12.8758 48.9324 12.8565 48.9295 12.8305C48.9263 12.8023 48.9453 12.7769 48.9717 12.7735C49.2021 12.7447 49.544 12.6194 49.8634 12.1862C49.8798 12.1638 49.9101 12.16 49.9312 12.1775C49.9521 12.1949 49.9557 12.2272 49.9395 12.2494C49.5996 12.7104 49.2317 12.8442 48.9831 12.8754C48.9811 12.8757 48.9792 12.8758 48.9772 12.8758Z" fill="black"/>
<path d="M48.1428 9.83347C47.9091 9.46133 48.3612 8.88798 49.0166 9.04861C49.6718 9.20906 49.571 9.41119 49.4199 9.42913C49.2686 9.44679 48.8597 9.47678 48.5011 9.78572C48.2322 10.0176 48.1764 9.88692 48.1428 9.83347Z" fill="#2B2630"/>
<path d="M48.2557 9.97004C48.1678 9.97004 48.1273 9.90269 48.1078 9.8704C48.012 9.7175 48.0084 9.53856 48.093 9.37075C48.247 9.06522 48.6388 8.90339 49.0276 8.9987C49.4934 9.11278 49.5851 9.2483 49.58 9.34195C49.5762 9.41298 49.5125 9.46983 49.4253 9.48005L49.398 9.48317C49.2369 9.50111 48.8595 9.54307 48.5316 9.8256C48.4188 9.92266 48.3287 9.97004 48.2557 9.97004ZM48.7933 9.07221C48.5259 9.07221 48.2844 9.20837 48.1781 9.41914C48.1109 9.55236 48.1127 9.69312 48.1829 9.80508L48.1891 9.81502C48.2088 9.84759 48.2232 9.86746 48.2557 9.86746C48.2896 9.86746 48.3542 9.84639 48.4706 9.74593C48.8209 9.44417 49.2182 9.4001 49.3877 9.38115L49.4146 9.37811C49.4547 9.37342 49.4826 9.35244 49.4836 9.33588C49.4854 9.30285 49.4031 9.19577 49.0058 9.09852C48.9344 9.08095 48.8627 9.07221 48.7933 9.07221Z" fill="#2B2630"/>
<path d="M46.2605 10.5826C46.2941 10.3569 46.8317 10.0358 47.3247 10.1902C47.4705 10.2022 47.0784 9.82149 46.7759 9.72654C46.4736 9.63151 45.9694 9.88092 46.2605 10.5826Z" fill="#2B2630"/>
<path d="M46.2605 10.6338C46.2416 10.6338 46.2241 10.6219 46.2162 10.6032C46.0673 10.2442 46.1276 10.0199 46.2043 9.89496C46.2949 9.74739 46.4638 9.65576 46.6447 9.65576C46.6955 9.65576 46.7441 9.66303 46.7896 9.67729C47.0267 9.75172 47.4209 10.0561 47.4037 10.1824C47.3999 10.2097 47.3787 10.2417 47.331 10.2417C47.3297 10.2417 47.3222 10.2413 47.3209 10.2412C47.3176 10.241 47.3142 10.2403 47.311 10.2393C47.2296 10.2138 47.1431 10.2009 47.0538 10.2009C46.6742 10.2009 46.331 10.4367 46.3082 10.5905C46.3047 10.6129 46.2879 10.6304 46.2667 10.6333C46.2646 10.6337 46.2626 10.6338 46.2605 10.6338ZM46.6448 9.75834C46.5282 9.75834 46.3725 9.80894 46.2853 9.95099C46.2076 10.0775 46.2008 10.2493 46.2646 10.4523C46.3879 10.2715 46.7062 10.0985 47.0539 10.0985C47.1286 10.0985 47.2017 10.1067 47.2721 10.123C47.1861 10.0244 46.9628 9.83866 46.7623 9.77573C46.7258 9.76414 46.6863 9.75834 46.6448 9.75834Z" fill="#2B2630"/>
<path d="M44.2703 8.04498C44.6833 8.73094 45.4251 8.77142 45.846 8.57279C46.0476 8.47748 46.2828 8.20414 46.7423 8.25162C47.2014 8.29936 47.5265 8.15658 48.0305 7.7286C48.5347 7.30034 49.1732 7.20521 49.543 7.62142C49.9128 8.03762 49.6997 8.71566 50.0135 8.94134C50.3273 9.16738 50.7194 8.96535 50.7976 9.4052C50.8761 9.84515 50.8314 10.7013 51.1338 10.7847C51.4364 10.8679 51.5483 10.2139 51.5372 9.72638C51.5259 9.23868 51.9851 9.21495 52.2653 9.17925C52.5454 9.14346 52.3998 7.44294 51.9962 6.74134C51.5931 6.03966 50.8874 5.83735 50.5288 5.71858C50.1703 5.59972 49.7519 5.07246 49.3189 4.63629C49.0551 4.3706 48.4339 4.31521 48.0084 4.67199C47.5822 5.02895 47.4478 4.9099 46.9551 4.67199C46.4623 4.43417 45.5453 4.72848 45.1866 5.33485C44.8283 5.94122 45.2648 6.44878 45.5211 6.56296C44.6586 6.444 43.8331 7.31947 44.2703 8.04498Z" fill="#2D2833"/>
<path d="M49.3636 14.4153C49.3373 14.4153 49.3158 14.3929 49.3154 14.3648C49.315 14.3366 49.3363 14.3132 49.3629 14.3129C49.7175 14.3072 50.2542 14.1267 50.6969 13.637C51.0443 13.2531 51.4518 12.5354 51.4215 11.2973C51.4209 11.2689 51.4419 11.2455 51.4686 11.2448C51.4955 11.2455 51.5176 11.2664 51.5181 11.2947C51.5491 12.5683 51.1266 13.3101 50.7665 13.7081C50.3031 14.2205 49.7383 14.4095 49.3643 14.4153C49.3642 14.4153 49.3639 14.4153 49.3636 14.4153Z" fill="black"/>
<path d="M49.3966 14.3739C49.3957 14.3757 49.3951 14.3773 49.3945 14.3789C49.4069 14.3777 49.4185 14.3777 49.4309 14.3763C49.5353 14.7501 49.5932 15.0319 49.5887 15.2543C50.9998 16.1347 51.649 13.8291 51.4252 12.3428C50.928 13.9428 49.9262 14.3 49.3966 14.3739Z" fill="black"/>
<path d="M49.319 15.744C49.6104 16.1959 50.1258 16.5524 51.1786 16.4811C52.2316 16.4098 53.1056 15.5535 53.2177 15.3156C53.3298 15.0779 53.6433 15.4587 54.5172 15.5776C55.3908 15.6965 56.9595 15.649 57.8332 17.2663C58.7071 18.8834 58.7522 21.7617 58.3488 24.0688C57.9454 26.3757 57.6989 27.6361 56.5114 27.6361C56.5114 29.8006 56.4888 30.6807 55.6824 30.6096C54.8757 30.5379 52.4556 30.8948 50.5737 30.7997C48.6916 30.7043 47.1457 30.5853 46.9889 29.848C46.8322 29.111 46.8547 27.6837 46.7649 26.7086C45.2189 27.4936 44.1657 26.5894 43.7176 24.6154C43.2696 22.6415 44.6139 20.9052 44.8158 19.5971C45.0173 18.2888 45.9585 16.9331 47.0114 16.624C48.0643 16.3147 49.319 15.744 49.319 15.744Z" fill="#685AEF"/>
<path d="M49.2773 15.7699C49.8382 16.6164 50.9778 16.6885 51.838 16.3904C52.2875 16.2347 52.7078 15.9523 53.05 15.6081C53.141 15.5165 53.201 15.414 53.2771 15.3123C53.3467 15.2192 53.6773 15.4055 53.7515 15.434C54.6339 15.7717 55.5988 15.6396 56.4732 16.0316C57.589 16.532 58.0916 17.7149 58.3352 18.9006C58.7125 20.7362 58.5506 22.6633 58.2253 24.4912C58.0924 25.2371 57.9723 26.0198 57.6721 26.7152C57.4458 27.2397 57.0683 27.5774 56.5114 27.5848C56.485 27.5854 56.463 27.608 56.463 27.6361C56.4629 28.2564 56.4714 28.8805 56.418 29.499C56.3903 29.8184 56.3505 30.2692 56.0806 30.4736C55.8519 30.6467 55.4506 30.5452 55.1879 30.553C54.6597 30.5692 54.1321 30.618 53.6051 30.6569C52.2732 30.7547 50.9571 30.785 49.624 30.6933C49.0242 30.652 48.4143 30.6024 47.8315 30.4374C47.4189 30.3206 47.0841 30.1411 47.0051 29.6707C46.8415 28.6986 46.8999 27.6899 46.8129 26.7088C46.8094 26.6684 46.7751 26.6474 46.7404 26.6645C46.2799 26.8927 45.7752 27.0218 45.2751 26.87C44.8148 26.7306 44.4756 26.3363 44.2365 25.9145C43.9243 25.3639 43.7323 24.6851 43.6832 24.0468C43.6316 23.3767 43.7865 22.7102 43.995 22.083C44.1829 21.518 44.4308 20.9786 44.6364 20.421C44.8333 19.8871 44.8862 19.3175 45.0832 18.7845C45.3281 18.1229 45.7456 17.5134 46.2765 17.0793C46.7725 16.6739 47.4148 16.5605 47.994 16.3443C48.4489 16.1745 48.8998 15.9895 49.3431 15.7883C49.4002 15.7623 49.351 15.6741 49.2944 15.6999C48.9508 15.8557 48.6019 15.9989 48.2518 16.1367C47.9608 16.2513 47.6673 16.3583 47.3714 16.4576C47.0982 16.5493 46.8252 16.6192 46.569 16.759C45.5371 17.3217 44.9654 18.5391 44.7495 19.6936C44.6462 20.2454 44.3991 20.7668 44.1925 21.2805C43.9664 21.8428 43.7598 22.414 43.6493 23.0161C43.4499 24.1025 43.6968 25.397 44.3509 26.2774C44.619 26.6379 44.9629 26.9075 45.39 27.0065C45.8665 27.117 46.3585 26.9664 46.7889 26.753C46.7648 26.7383 46.7405 26.7235 46.7162 26.7088C46.7733 27.352 46.7837 27.9987 46.8162 28.6434C46.8307 28.9305 46.8506 29.2173 46.8844 29.5025C46.9059 29.6837 46.9234 29.8772 47.0099 30.0382C47.1737 30.3433 47.5636 30.4677 47.8599 30.5516C48.4048 30.7059 48.9814 30.7478 49.5417 30.7898C50.8767 30.89 52.1967 30.8612 53.531 30.7647C54.0661 30.7262 54.6012 30.6789 55.1373 30.6574C55.4183 30.6462 55.755 30.723 56.024 30.6193C56.3282 30.5019 56.4238 30.1216 56.4749 29.8197C56.5954 29.1071 56.5593 28.3565 56.5594 27.6362C56.5434 27.6535 56.5273 27.6705 56.5111 27.6876C57.2681 27.6771 57.6581 27.1031 57.8946 26.4012C58.0809 25.8478 58.183 25.2611 58.2881 24.6857C58.4085 24.026 58.515 23.3664 58.5762 22.6973C58.6962 21.3801 58.6753 20.0219 58.3974 18.7277C58.1646 17.6434 57.6864 16.6012 56.7335 16.0515C56.1705 15.7266 55.5253 15.6346 54.897 15.5693C54.5135 15.5294 54.1423 15.4705 53.7767 15.3354C53.6319 15.2819 53.3877 15.1185 53.233 15.218C53.1792 15.2526 53.1501 15.3379 53.1118 15.3885C53.0321 15.4936 52.9351 15.5844 52.8388 15.6717C52.5017 15.9769 52.0979 16.2035 51.6743 16.3374C50.8961 16.5836 49.8582 16.4697 49.3603 15.7185C49.3252 15.6645 49.2413 15.7156 49.2773 15.7699Z" fill="#685AEF"/>
<path d="M46.5269 18.27C46.7959 17.7884 46.8263 17.0878 46.5406 16.0887C46.2549 15.0898 46.1204 14.5726 46.8601 14.2157C46.8769 13.8768 47.3978 13.5557 47.8011 13.5378C48.1875 13.0918 49.4645 13.6625 48.7922 14.3762C48.8428 14.6973 48.6412 14.7864 48.6412 14.7864C49.0166 15.4108 49.2127 15.7496 48.8091 16.6773C48.406 17.6049 48.2043 18.6217 48.2043 18.6217C48.2043 18.6217 47.2494 18.8588 46.5269 18.27Z" fill="#FEACDC"/>
<path d="M48.0342 15.2346C47.9405 15.2346 47.867 15.2043 47.815 15.1439C47.7301 15.0454 47.7273 14.8903 47.7389 14.7822C47.5693 14.8721 47.3755 14.8563 47.3655 14.8555C47.339 14.8532 47.3193 14.8284 47.3214 14.8003C47.3236 14.7721 47.3476 14.7517 47.3736 14.7534C47.3759 14.7536 47.6247 14.7731 47.7749 14.635C47.791 14.6202 47.8142 14.6183 47.8324 14.6304C47.8502 14.6424 47.8587 14.6656 47.853 14.6874C47.8334 14.7619 47.8014 14.9766 47.8864 15.0748C47.9324 15.1284 48.012 15.1446 48.1226 15.1227C48.2519 15.0971 48.3322 15.0212 48.3615 14.8972C48.4178 14.658 48.2679 14.308 48.1013 14.1666C47.84 13.9446 47.2399 14.0394 46.8436 14.2668C46.8201 14.2801 46.7908 14.271 46.7783 14.2461C46.7654 14.2212 46.7742 14.1901 46.7977 14.1766C47.2196 13.9345 47.8611 13.8313 48.1616 14.0866C48.355 14.2507 48.5229 14.6342 48.4552 14.9221C48.4282 15.0365 48.3517 15.1816 48.1403 15.2235C48.1024 15.2309 48.0672 15.2346 48.0342 15.2346Z" fill="black"/>
<path d="M48.445 14.915C48.421 14.915 48.4002 14.8961 48.3972 14.8701C48.3939 14.8421 48.4127 14.8165 48.4391 14.8129C48.4402 14.8127 48.5748 14.7923 48.6474 14.6682C48.7122 14.5572 48.7117 14.3964 48.6456 14.1904C48.4457 13.5659 47.8148 13.5263 47.44 13.652C47.4148 13.6605 47.3876 13.6455 47.3794 13.6185C47.3715 13.5915 47.3855 13.5628 47.411 13.5543C47.8223 13.4164 48.5148 13.4635 48.7372 14.1575C48.8131 14.3949 48.8103 14.5853 48.7285 14.7238C48.631 14.8891 48.4583 14.9137 48.4508 14.9147C48.4491 14.9148 48.4471 14.915 48.445 14.915Z" fill="black"/>
<path d="M48.7922 14.4275C48.7774 14.4275 48.7627 14.4201 48.7532 14.4063C48.7376 14.3835 48.7422 14.3515 48.7638 14.3348C48.7773 14.3243 49.0924 14.0733 48.8759 13.7395C48.7335 13.5199 48.4423 13.4205 48.2169 13.4194C48.0393 13.4187 47.9024 13.4738 47.8406 13.5673C47.8251 13.5904 47.795 13.5961 47.7735 13.5798C47.7515 13.5635 47.7463 13.5317 47.7616 13.5085C47.8422 13.3867 48.0064 13.317 48.2127 13.317C48.2143 13.317 48.2157 13.317 48.2173 13.317C48.468 13.3182 48.7934 13.4315 48.9554 13.6814C49.1717 14.0148 48.9619 14.3088 48.8207 14.4177C48.812 14.4243 48.8021 14.4275 48.7922 14.4275Z" fill="black"/>
<path d="M48.21 15.6643C48.1962 15.6643 48.1825 15.6582 48.1732 15.6461C47.9485 15.3643 47.576 15.1888 47.3239 15.247C47.2977 15.253 47.272 15.2354 47.2665 15.2078C47.2609 15.1801 47.2773 15.1528 47.3034 15.1467C47.5911 15.0807 47.9971 15.2665 48.2469 15.58C48.2641 15.6016 48.2616 15.634 48.2412 15.6522C48.232 15.6604 48.221 15.6643 48.21 15.6643Z" fill="black"/>
<path d="M47.7381 19.4091C47.0266 19.4091 46.6215 19.2468 46.2466 19.0046C46.2237 18.9899 46.2166 18.9584 46.2304 18.9343C46.2443 18.9101 46.2742 18.9025 46.2967 18.9171C46.6929 19.173 47.1251 19.3362 47.9502 19.3022C47.9805 19.2997 47.9994 19.3231 48.0004 19.3514C48.0014 19.3796 47.9806 19.4035 47.954 19.4046C47.8791 19.4076 47.8072 19.4091 47.7381 19.4091Z" fill="black"/>
<path d="M50.3385 25.0081C50.1199 25.0258 48.221 24.8831 47.8179 24.8831C47.549 26.0783 46.7671 27.1869 45.5322 26.988C45.2297 27.2913 45.5493 27.5411 45.7677 27.666C45.9862 27.7906 45.8853 28.0404 46.1204 28.2547C46.356 28.4687 46.6415 28.2723 46.8262 28.3259C47.0111 28.3795 47.2294 28.6114 47.6834 28.0226C48.1369 27.434 48.6073 27.0415 49.2127 27.1843C49.8173 27.3269 50.1366 27.4517 50.1366 27.4517C50.1366 27.4517 49.4478 26.6313 50.3385 25.0081Z" fill="#FEACDC"/>
<path d="M53.9177 27.9185C52.2292 27.9185 50.4538 27.749 50.109 27.494C50.1036 27.4898 50.0989 27.4847 50.0955 27.4786C49.569 26.5656 50.0296 25.3177 50.3015 24.9751C50.311 24.9634 50.3245 24.9565 50.3393 24.9569C50.3577 24.9573 52.1708 24.9897 52.8274 24.7632C53.2339 24.623 54.2618 24.2969 55.0269 24.2969C55.0536 24.2969 55.0751 24.3197 55.0751 24.3482C55.0751 24.3765 55.0536 24.3995 55.0269 24.3995C54.2756 24.3995 53.2595 24.722 52.8572 24.8607C52.2189 25.0812 50.5867 25.0637 50.3612 25.06C50.1095 25.4013 49.6965 26.5762 50.1725 27.416C50.7258 27.7935 55.2826 28.0438 56.7767 27.546C56.8023 27.5369 56.8293 27.5524 56.8371 27.5793C56.8452 27.6063 56.8311 27.6352 56.8056 27.6436C56.227 27.8363 55.0933 27.9185 53.9177 27.9185Z" fill="black"/>
<path d="M54.3379 24.4348C54.331 24.4348 54.3242 24.4334 54.3176 24.4301C54.2935 24.4181 54.283 24.3876 54.2941 24.362C54.5063 23.877 54.7751 21.9388 54.8275 21.4169C54.8303 21.3886 54.8557 21.3689 54.8806 21.3714C54.9072 21.3745 54.9263 21.3997 54.9234 21.4278C54.8834 21.8263 54.6147 23.8727 54.3815 24.4051C54.3735 24.4238 54.3561 24.4348 54.3379 24.4348Z" fill="black"/>
<path d="M50.8928 27.6815C50.8774 27.6815 50.8622 27.6738 50.8529 27.659C50.4106 26.9639 50.843 25.3395 51.0014 25.0199C51.0139 24.9946 51.0432 24.9852 51.0665 24.9984C51.0902 25.0117 51.0993 25.0426 51.0868 25.0676C50.9003 25.4437 50.5398 26.9839 50.9329 27.6017C50.9479 27.6251 50.942 27.657 50.9199 27.6729C50.9116 27.6787 50.9021 27.6815 50.8928 27.6815Z" fill="black"/>
<path d="M45.7944 27.0687C45.6908 27.0687 45.5973 27.0582 45.5206 27.038C45.4947 27.031 45.4789 27.0032 45.4854 26.9758C45.4918 26.9483 45.5176 26.9316 45.544 26.9385C45.8689 27.0248 46.5578 26.913 46.8982 26.5422C48.0182 25.321 48.1778 22.101 48.1058 20.5688C48.0791 20.0054 48.1479 19.5109 48.1983 19.1498C48.225 18.9582 48.2552 18.7421 48.2345 18.693C47.2875 18.9091 46.8548 18.5757 46.6219 18.3963C46.555 18.3449 46.5022 18.3043 46.4657 18.2978C46.4044 18.3189 46.2691 18.7226 46.1498 19.0785C45.9507 19.673 45.6779 20.4874 45.2871 21.1292C44.5563 22.3298 44.4732 23.3574 44.4882 24.2043C44.4887 24.2325 44.4675 24.256 44.4409 24.2564C44.4405 24.2564 44.4403 24.2564 44.4399 24.2564C44.4137 24.2564 44.3922 24.2342 44.3916 24.2062C44.3763 23.3438 44.4612 22.2973 45.2059 21.0735C45.5906 20.4417 45.8613 19.6339 46.0588 19.0441C46.2663 18.4247 46.3566 18.1751 46.4813 18.1966C46.5404 18.2071 46.5983 18.2516 46.6783 18.3132C46.9157 18.496 47.3135 18.8021 48.2273 18.5896C48.2566 18.583 48.2853 18.5967 48.3045 18.6205C48.3579 18.6861 48.341 18.8261 48.2937 19.1648C48.2441 19.5217 48.1759 20.0104 48.2019 20.5637C48.2107 20.7464 48.396 25.0559 46.9673 26.6136C46.6777 26.9294 46.171 27.0687 45.7944 27.0687Z" fill="black"/>
<path d="M51.0536 17.2719C51.0191 17.2719 50.9857 17.2712 50.9528 17.2698C50.0452 17.2326 49.3997 16.7291 49.2061 16.4205C49.1911 16.3969 49.1972 16.3651 49.2194 16.3494C49.2413 16.3338 49.2714 16.34 49.2863 16.3636C49.483 16.6771 50.1312 17.1336 50.9565 17.1674C51.6167 17.1947 52.6065 16.956 53.5604 15.6648C53.5767 15.6425 53.6072 15.6386 53.6283 15.6561C53.6491 15.6736 53.6528 15.7058 53.6365 15.7282C52.7044 16.9895 51.7346 17.2719 51.0536 17.2719Z" fill="black"/>
<path d="M55.3652 32.1553C55.3739 32.5488 55.4318 32.9481 55.4716 33.3398C55.513 33.7456 55.5172 34.1508 55.5443 34.5575C55.6019 35.4232 55.6341 36.2822 55.6341 37.1502C55.6341 37.2163 55.7306 37.2163 55.7306 37.1502C55.7306 36.3152 55.6984 35.4903 55.6475 34.6576C55.6224 34.248 55.6181 33.8385 55.5773 33.4302C55.5353 33.0085 55.471 32.5791 55.4617 32.1552C55.4604 32.0893 55.3638 32.0891 55.3652 32.1553Z" fill="black"/>
<path d="M60.8672 42.9413C60.8672 50.2212 48.167 56.1229 32.4999 56.1229C16.8332 56.1229 4.13281 50.2212 4.13281 42.9413C4.13281 35.661 16.8331 29.7592 32.4999 29.7592C48.167 29.7592 60.8672 35.661 60.8672 42.9413Z" fill="white"/>
<path d="M31.6616 36.1449C31.9127 36.013 32.0857 35.7392 32.0857 35.4218C32.0857 34.976 31.7453 34.6149 31.3255 34.6149C30.9053 34.6149 30.5652 34.976 30.5652 35.4218C30.5652 35.7392 30.7383 36.0131 30.9894 36.1449C30.5695 36.2941 30.267 36.7139 30.267 37.2096V37.9676H30.2705C30.3048 38.1914 30.7631 38.3691 31.3256 38.3691C31.8878 38.3691 32.3464 38.1913 32.3805 37.9676H32.3844V37.2096C32.3844 36.7139 32.0813 36.2941 31.6616 36.1449Z" fill="#FE6868"/>
<path d="M34.9672 32.7082C35.2182 32.5764 35.3913 32.3028 35.3913 31.9853C35.3913 31.5396 35.0509 31.1781 34.631 31.1781C34.2111 31.1781 33.8709 31.5397 33.8709 31.9853C33.8709 32.3028 34.044 32.5765 34.2951 32.7082C33.8754 32.8574 33.5726 33.2775 33.5726 33.7733V34.5312H33.5762C33.6104 34.7552 34.069 34.9325 34.6311 34.9325C35.1936 34.9325 35.652 34.7551 35.6862 34.5312H35.6896V33.7733C35.6895 33.2775 35.3868 32.8575 34.9672 32.7082Z" fill="#685AEF"/>
<path d="M9.80143 39.5223C11.0905 39.6979 12.3796 39.8737 13.6687 40.0494C13.6531 40.0279 13.6376 40.0063 13.6221 39.9846C13.2437 41.19 12.8653 42.395 12.4868 43.6005C12.474 43.6415 12.5128 43.6687 12.5462 43.6635C14.1547 43.4124 15.7632 43.1612 17.3717 42.9102C17.3518 42.8981 17.3321 42.8862 17.3123 42.8743C17.4896 43.3765 17.667 43.8787 17.8444 44.381C17.8661 44.4421 17.9594 44.4156 17.9375 44.3535C17.7601 43.8514 17.5827 43.3492 17.4053 42.847C17.3952 42.8182 17.3739 42.8069 17.3458 42.8112C15.7374 43.0623 14.129 43.3135 12.5205 43.5646C12.5403 43.5855 12.5601 43.6065 12.5798 43.6276C12.9582 42.4223 13.3366 41.2171 13.715 40.0117C13.726 39.9769 13.6977 39.9509 13.6686 39.9469C12.3795 39.7712 11.0904 39.5954 9.80134 39.4197C9.73981 39.4113 9.74059 39.5139 9.80143 39.5223Z" fill="black"/>
<path d="M10.156 39.4897C10.156 39.854 9.71119 40.1488 9.16259 40.1488C8.6139 40.1488 8.16913 39.854 8.16913 39.4897C8.16913 39.1257 8.6139 38.8306 9.16259 38.8306C9.71119 38.8306 10.156 39.1257 10.156 39.4897Z" fill="#FEACDC"/>
<path d="M14.5203 39.9228C14.5203 40.1699 14.2185 40.3702 13.8461 40.3702C13.4737 40.3702 13.1721 40.1698 13.1721 39.9228C13.1721 39.676 13.4737 39.4756 13.8461 39.4756C14.2185 39.4756 14.5203 39.6761 14.5203 39.9228Z" fill="#2D2833"/>
<path d="M13.2784 43.3879C13.2784 43.7522 12.8335 44.0472 12.2849 44.0472C11.7363 44.0472 11.2916 43.7522 11.2916 43.3879C11.2916 43.024 11.7363 42.7291 12.2849 42.7291C12.8335 42.7291 13.2784 43.024 13.2784 43.3879Z" fill="#685AEF"/>
<path d="M17.962 42.8606C17.962 43.0818 17.6921 43.261 17.3588 43.261C17.0256 43.261 16.7556 43.0818 16.7556 42.8606C16.7556 42.6396 17.0256 42.4603 17.3588 42.4603C17.6921 42.4603 17.962 42.6396 17.962 42.8606Z" fill="#FEACDC"/>
<path d="M18.4943 44.3672C18.4943 44.5884 18.2242 44.7674 17.891 44.7674C17.5577 44.7674 17.2876 44.5884 17.2876 44.3672C17.2876 44.1464 17.5577 43.9673 17.891 43.9673C18.2242 43.9673 18.4943 44.1465 18.4943 44.3672Z" fill="#FE6868"/>
<path d="M16.5955 37.7348C18.7219 37.0999 20.8482 36.4651 22.9747 35.8303C23.0278 35.8144 22.9285 35.7808 22.9494 35.8121C22.9727 35.8465 22.9958 35.881 23.0189 35.9154C23.1321 36.0835 23.2451 36.2516 23.3582 36.4196C23.7331 36.9767 24.1078 37.5335 24.4827 38.0905C25.0524 38.9372 25.6221 39.784 26.1919 40.6304C26.2101 40.6054 26.2283 40.5803 26.2465 40.5552C23.9677 39.9626 21.6889 39.37 19.4101 38.7774C18.3553 38.503 17.3006 38.2288 16.2458 37.9543C16.1854 37.9387 16.1596 38.0375 16.2201 38.0534C18.4988 38.646 20.7776 39.2385 23.0565 39.8311C24.1113 40.1055 25.166 40.3797 26.2207 40.6542C26.2587 40.6639 26.3013 40.6176 26.2753 40.5789C25.1918 38.9687 24.1085 37.3586 23.025 35.7486C23.0123 35.7298 22.9928 35.7185 22.9705 35.725C20.8442 36.3599 18.7178 36.9948 16.5914 37.6295C16.5844 37.6316 16.5772 37.6338 16.5701 37.6358C16.5101 37.6538 16.5356 37.7527 16.5955 37.7348Z" fill="black"/>
<path d="M23.2002 33.7762C23.4805 33.629 23.6739 33.3232 23.6739 32.9691C23.6739 32.4714 23.294 32.0684 22.8254 32.0684C22.3566 32.0684 21.9768 32.4714 21.9768 32.9691C21.9768 33.3233 22.17 33.629 22.4504 33.7762C21.9818 33.9427 21.6437 34.411 21.6437 34.9646V35.8104H21.6479C21.686 36.0601 22.1976 36.2582 22.8254 36.2582C23.4528 36.2582 23.9646 36.0601 24.0028 35.8104H24.0066V34.9646C24.0066 34.411 23.6689 33.9426 23.2002 33.7762Z" fill="#2D2833"/>
<path d="M26.8772 39.3167C27.1575 39.1695 27.3506 38.864 27.3506 38.5096C27.3506 38.0122 26.9708 37.609 26.5023 37.609C26.034 37.609 25.6539 38.0122 25.6539 38.5096C25.6539 38.8641 25.8471 39.1696 26.1274 39.3167C25.6591 39.4832 25.321 39.9517 25.321 40.505V41.351H25.3245C25.3631 41.6006 25.8749 41.799 26.5023 41.799C27.1297 41.799 27.6416 41.6006 27.68 41.351H27.6837V40.505C27.6837 39.9518 27.3457 39.4832 26.8772 39.3167Z" fill="#685AEF"/>
<path d="M16.6268 36.2381C16.907 36.091 17.1002 35.7855 17.1002 35.4311C17.1002 34.9335 16.7203 34.5305 16.2518 34.5305C15.7832 34.5305 15.4033 34.9335 15.4033 35.4311C15.4033 35.7855 15.5964 36.091 15.8767 36.2381C15.4084 36.4047 15.0703 36.8734 15.0703 37.4266V38.2726H15.0742C15.1124 38.5225 15.6244 38.7205 16.2518 38.7205C16.8792 38.7205 17.3908 38.5225 17.4291 38.2726H17.4328V37.4266C17.4328 36.8734 17.0951 36.4047 16.6268 36.2381Z" fill="#FE6868"/>
<path d="M36.2032 35.5652C36.4544 35.4334 36.6274 35.1595 36.6274 34.842C36.6274 34.3964 36.2873 34.035 35.8673 34.035C35.4473 34.035 35.1071 34.3965 35.1071 34.842C35.1071 35.1595 35.28 35.4335 35.5314 35.5652C35.1115 35.7143 34.8089 36.1343 34.8089 36.6297V37.388H34.8123C34.8466 37.6116 35.305 37.7894 35.8673 37.7894C36.4295 37.7894 36.8879 37.6115 36.9222 37.388H36.9256V36.6297C36.9256 36.1343 36.6231 35.7142 36.2032 35.5652Z" fill="#2D2833"/>
<path d="M43.974 37.3979C44.1239 37.3116 44.3536 37.3079 44.4867 37.3897L47.706 39.366C47.8395 39.4478 47.8259 39.5844 47.676 39.6706L45.1427 41.1299C44.9928 41.2162 44.7629 41.2198 44.6297 41.138L41.4105 39.1617C41.2773 39.08 41.2909 38.9436 41.4405 38.8572L43.974 37.3979Z" fill="#FE6868"/>
<path d="M44.8445 41.2362C44.8428 41.2362 44.8411 41.2361 44.8394 41.2359C44.8128 41.233 44.7935 41.2077 44.7965 41.1797L44.9931 39.1813C44.9952 39.1591 44.9875 39.1373 44.9697 39.1168C44.9219 39.0611 44.8168 39.0257 44.7003 39.0284L41.3229 39.0823C41.3226 39.0823 41.3223 39.0823 41.322 39.0823C41.2957 39.0823 41.2742 39.0599 41.2738 39.0318C41.2735 39.0035 41.2947 38.9801 41.3213 38.9798L44.6988 38.9259C44.8438 38.9202 44.9734 38.969 45.041 39.0476C45.0777 39.0903 45.0942 39.1401 45.0891 39.192L44.8923 41.1903C44.8899 41.2166 44.8688 41.2362 44.8445 41.2362Z" fill="black"/>
<path d="M44.0926 39.0374C44.0908 39.0374 44.0892 39.0373 44.0874 39.0372C44.0609 39.0342 44.0416 39.009 44.0444 38.9809L44.2073 37.3273C44.2101 37.2992 44.2338 37.2781 44.2604 37.2818C44.2868 37.2846 44.306 37.3099 44.3033 37.3379L44.1403 38.9915C44.1379 39.0178 44.1168 39.0374 44.0926 39.0374Z" fill="black"/>
<path d="M45.0214 39.5985C44.995 39.5985 44.9735 39.5761 44.973 39.548C44.9727 39.5197 44.9939 39.4963 45.0205 39.4961L47.7452 39.4526C47.7455 39.4526 47.7458 39.4526 47.746 39.4526C47.7723 39.4526 47.7939 39.475 47.7943 39.5031C47.7947 39.5314 47.7734 39.5547 47.7467 39.555L45.0221 39.5985C45.0218 39.5985 45.0216 39.5985 45.0214 39.5985Z" fill="black"/>
<path d="M45.3028 33.8395C45.4101 33.7777 45.5744 33.7751 45.6697 33.8336L47.9721 35.2471C48.0675 35.3057 48.0578 35.403 47.9506 35.4649L46.139 36.5087C46.0319 36.5703 45.8674 36.5731 45.7722 36.5145L43.4694 35.1012C43.3744 35.043 43.384 34.9453 43.4911 34.8835L45.3028 33.8395Z" fill="#685AEF"/>
<path d="M45.9257 36.5996C45.9242 36.5996 45.9224 36.5995 45.9206 36.5993C45.8941 36.5964 45.8748 36.571 45.8776 36.543L46.0181 35.1135C46.0185 35.1091 46.0198 35.096 46.005 35.0788C45.9809 35.0508 45.9174 35.0195 45.8225 35.0204L43.4072 35.0587C43.4069 35.0587 43.4067 35.0587 43.4065 35.0587C43.3801 35.0587 43.3585 35.0363 43.3582 35.0082C43.3578 34.9799 43.379 34.9565 43.4057 34.9562L45.821 34.918C45.9323 34.917 46.0252 34.9504 46.0762 35.0096C46.1051 35.0432 46.1182 35.0829 46.1142 35.1242L45.9737 36.5536C45.9711 36.58 45.9501 36.5996 45.9257 36.5996Z" fill="black"/>
<path d="M45.3878 35.0267C45.386 35.0267 45.3843 35.0266 45.3826 35.0264C45.356 35.0236 45.3368 34.9982 45.3396 34.9702L45.4563 33.7877C45.4589 33.7594 45.4828 33.7388 45.5091 33.742C45.5357 33.745 45.555 33.7702 45.5521 33.7982L45.4356 34.9807C45.433 35.0071 45.4121 35.0267 45.3878 35.0267Z" fill="black"/>
<path d="M46.052 35.428C46.0257 35.428 46.0041 35.4057 46.0037 35.3777C46.0033 35.3492 46.0246 35.326 46.0513 35.3257L47.9998 35.2946C48.0001 35.2946 48.0005 35.2946 48.0007 35.2946C48.027 35.2946 48.0485 35.3169 48.0489 35.345C48.0493 35.3733 48.028 35.3966 48.0014 35.397L46.0529 35.428C46.0525 35.428 46.0522 35.428 46.052 35.428Z" fill="black"/>
<path d="M52.2393 38.4255C52.3728 38.3488 52.577 38.3456 52.6956 38.4185L55.5587 40.1758C55.6772 40.2489 55.6652 40.3703 55.532 40.4469L53.2789 41.7451C53.1456 41.8215 52.9414 41.8249 52.8228 41.7521L49.9595 39.9945C49.8411 39.9217 49.8531 39.8005 49.9862 39.7235L52.2393 38.4255Z" fill="#FEACDC"/>
<path d="M53.0135 41.8453C53.0119 41.8453 53.0102 41.8452 53.0084 41.845C52.982 41.8422 52.9626 41.8169 52.9655 41.7888L53.1405 40.0112C53.1423 39.9928 53.1361 39.9756 53.121 39.9582C53.0805 39.9113 52.9919 39.8817 52.8936 39.8817C52.8907 39.8817 52.888 39.8817 52.8852 39.8818L49.8817 39.9293C49.8813 39.9293 49.881 39.9293 49.8809 39.9293C49.8546 39.9293 49.833 39.9069 49.8326 39.8789C49.8322 39.8506 49.8535 39.8273 49.8801 39.8269L52.8837 39.7793C53.0131 39.7746 53.131 39.8181 53.1923 39.8891C53.226 39.9282 53.2412 39.9741 53.2364 40.0219L53.0613 41.7994C53.059 41.8258 53.0379 41.8453 53.0135 41.8453Z" fill="black"/>
<path d="M52.3449 39.8894C52.3431 39.8894 52.3414 39.8893 52.3397 39.8891C52.3131 39.8862 52.2939 39.861 52.2968 39.8328L52.4418 38.3623C52.4445 38.334 52.4685 38.3132 52.4947 38.3166C52.5214 38.3196 52.5406 38.3448 52.5377 38.3729L52.3927 39.8434C52.3903 39.8698 52.3692 39.8894 52.3449 39.8894Z" fill="black"/>
<path d="M53.1708 40.3881C53.1445 40.3881 53.1229 40.3657 53.1224 40.3378C53.1221 40.3092 53.1434 40.2861 53.17 40.2857L55.5933 40.2473C55.5935 40.2473 55.5939 40.2473 55.5941 40.2473C55.6204 40.2473 55.6419 40.2698 55.6423 40.2978C55.6428 40.3262 55.6214 40.3495 55.5948 40.3498L53.1715 40.3881C53.1712 40.3881 53.171 40.3881 53.1708 40.3881Z" fill="black"/>
<path d="M41.2126 39.6255C40.0621 39.9798 38.8691 40.1147 37.6747 40.1438C36.8097 40.1647 35.9476 40.1061 35.0833 40.0933C35.0833 40.1274 35.0833 40.1616 35.0833 40.1958C35.1065 40.1958 35.1293 40.1958 35.1525 40.1958C35.2147 40.1958 35.2147 40.0933 35.1525 40.0933C35.1293 40.0933 35.1065 40.0933 35.0833 40.0933C35.021 40.0933 35.0211 40.1948 35.0833 40.1958C35.974 40.2089 36.862 40.2658 37.7534 40.2442C38.9286 40.2157 40.107 40.0726 41.2383 39.7243C41.298 39.7059 41.2726 39.607 41.2126 39.6255Z" fill="black"/>
<path d="M41.8639 40.409C40.9973 40.9771 40.1567 41.5877 39.3074 42.184C38.8942 42.4739 38.4807 42.7594 38.0473 43.0141C37.6636 43.2397 37.2825 43.4654 36.9429 43.763C36.8948 43.8051 36.9636 43.8772 37.0112 43.8354C37.3652 43.5252 37.7674 43.2958 38.1673 43.0608C38.5767 42.8202 38.9658 42.5458 39.3561 42.2725C40.2061 41.6771 41.046 41.0657 41.9126 40.4975C41.9655 40.463 41.917 40.3744 41.8639 40.409Z" fill="black"/>
<path d="M43.3554 41.0153C42.7101 41.9571 42.5935 43.7905 43.614 44.5002C43.6663 44.5366 43.7145 44.4478 43.6626 44.4118C42.6867 43.7329 42.8269 41.9602 43.4388 41.067C43.4755 41.0135 43.3917 40.9624 43.3554 41.0153Z" fill="black"/>
<path d="M35.7574 39.5295C35.3621 39.6485 34.9669 39.7673 34.5717 39.8862C34.5434 39.8948 34.5247 39.9338 34.5429 39.9615C34.7683 40.307 35.0166 40.6442 35.3012 40.9368C35.3458 40.9829 35.4142 40.9104 35.3694 40.8643C35.0903 40.5773 34.8472 40.2484 34.6262 39.9097C34.6166 39.9347 34.6069 39.9599 34.5974 39.9849C34.9925 39.866 35.3878 39.7472 35.783 39.6283C35.8428 39.6104 35.8174 39.5116 35.7574 39.5295Z" fill="black"/>
<path d="M37.0645 44.2203C36.723 44.2203 36.3774 44.2044 36.2186 44.1481C36.2031 44.1426 36.1914 44.1294 36.1873 44.1128C36.183 44.0961 36.187 44.0785 36.1976 44.0655C36.487 43.7176 36.7419 43.1999 36.7445 43.1945C36.7568 43.1694 36.7861 43.1595 36.8096 43.1728C36.8333 43.1858 36.8425 43.2167 36.8301 43.2419C36.8202 43.2623 36.5954 43.7189 36.3207 44.0705C36.7479 44.1631 37.9381 44.0913 37.9507 44.0904C37.9771 44.087 38.0001 44.1103 38.0017 44.1384C38.0033 44.1669 37.983 44.1909 37.9565 44.1926C37.925 44.1946 37.4979 44.2203 37.0645 44.2203Z" fill="black"/>
<path d="M44.0907 44.8962C44.0882 44.8962 44.0856 44.896 44.083 44.8954C44.0376 44.8877 42.9669 44.7039 42.6295 44.5565C42.6049 44.5457 42.5931 44.5159 42.6033 44.4896C42.6134 44.4635 42.6416 44.4507 42.6662 44.4618C42.9514 44.5863 43.8191 44.7448 44.0445 44.7848C44.0567 44.5697 44.1192 44.1043 44.1221 44.0823C44.126 44.0543 44.1506 44.0352 44.1769 44.0389C44.2032 44.0429 44.2216 44.0689 44.2178 44.0969C44.2169 44.1027 44.1391 44.6825 44.1391 44.8448C44.1391 44.8599 44.133 44.874 44.1221 44.8838C44.1132 44.8918 44.1021 44.8962 44.0907 44.8962Z" fill="black"/>
<path d="M19.8701 23.4507C20.2513 24.2354 23.5112 28.8141 25.0571 30.812C25.8724 31.8654 26.1101 32.3105 26.2447 33.2143C26.3791 34.118 26.4239 34.784 26.7824 35.426C27.1408 36.0682 27.365 36.306 27.5442 36.1397C27.7234 35.9732 27.6564 35.6164 27.4549 34.998C27.2528 34.3796 27.4098 34.1181 27.7908 34.451C28.1717 34.784 29.135 35.5929 29.74 35.9258C30.3449 36.2587 30.7931 35.9974 30.2331 35.5213C29.6726 35.0457 29.7624 35.1407 29.7624 35.1407C29.7624 35.1407 30.0986 34.6411 29.9417 33.8801C29.7848 33.1191 29.1574 32.6197 28.642 32.1678C28.1267 31.7157 26.8272 29.3373 26.1997 28.1003C25.5723 26.8637 22.7019 21.5477 22.5 21.2385C21.7636 21.3695 20.3073 22.3922 19.8701 23.4507Z" fill="#FEACDC"/>
<path d="M28.5744 33.9223C28.9748 34.3442 29.3705 34.7676 29.7845 35.1711C29.8302 35.2157 29.8987 35.1434 29.8527 35.0987C29.4396 34.6959 29.0422 34.2707 28.6427 33.8498C28.5984 33.8033 28.5301 33.8757 28.5744 33.9223Z" fill="black"/>
<path d="M29.0785 33.5833C29.4377 33.891 29.8042 34.3227 29.8543 34.8316C29.8606 34.8965 29.9573 34.8972 29.9508 34.8316C29.8979 34.2927 29.5281 33.8376 29.1468 33.5109C29.0989 33.4698 29.0301 33.5418 29.0785 33.5833Z" fill="black"/>
<path d="M29.2227 33.1632C29.5345 33.399 29.7516 33.7302 29.8726 34.1137C29.8922 34.1762 29.9855 34.1495 29.9656 34.0866C29.8361 33.676 29.6046 33.3266 29.2714 33.0747C29.2206 33.0363 29.1725 33.1253 29.2227 33.1632Z" fill="black"/>
</g>
</g>
<defs>
<clipPath id="clip0_13_2282">
<rect width="65" height="46" fill="white"/>
</clipPath>
</defs>
</svg>
