<svg width="181" height="175" viewBox="0 0 181 175" fill="none" xmlns="http://www.w3.org/2000/svg">
<path d="M53.1 0.5H176.5C178.709 0.5 180.5 2.29086 180.5 4.5V145.92C180.5 148.129 178.709 149.92 176.5 149.92H136.339C134.13 149.92 132.339 151.711 132.339 153.92V170.5C132.339 172.709 130.548 174.5 128.339 174.5H4.5C2.29086 174.5 0.5 172.709 0.5 170.5V29.3C0.5 27.0909 2.29086 25.3 4.5 25.3H45.1C47.3091 25.3 49.1 23.5091 49.1 21.3V4.5C49.1 2.29086 50.8908 0.5 53.1 0.5Z" fill="#E7F1FC" stroke="#019EE2"/>
</svg>
